<svg xmlns="http://www.w3.org/2000/svg" viewBox="0 0 512 512"><g fill="#573024"><path d="M92.191 58.369c-5.721-5.721-5.231-15.112 1.014-20.255 81.769-67.342 223.027-43.676 323.692 56.99s124.331 241.922 56.99 323.693c-5.143 6.244-14.534 6.735-20.255 1.014L92.191 58.369zM419.811 453.632c5.721 5.721 5.231 15.112-1.014 20.255-81.771 67.342-223.027 43.675-323.693-56.99S-29.228 174.975 38.114 93.205c5.143-6.244 14.534-6.735 20.255-1.014l361.442 361.441z"/></g><g fill="#83432d"><path d="M92.191 58.369c-5.721-5.721-5.231-15.112 1.014-20.255C135.788 3.045 194.504-7.343 255.219 4.971l-.093 216.332L92.191 58.369zM255.86 506.841c-55.583-11.481-112.779-41.968-160.756-89.943C-5.562 316.233-29.228 174.975 38.114 93.205c5.143-6.244 14.534-6.735 20.255-1.014l196.928 196.928.563 217.722z"/></g></svg>