<svg xmlns="http://www.w3.org/2000/svg" height="500" width="500">&amp;quot;<style>.style0{fill:#bb7d83}.style1{fill:#e8bac2}.style10{fill:#fdfdfb}.style100{fill:#f75297}.style101{fill:#c90047}.style102{fill:#bd003b}.style103{fill:#ffb1b3}.style104{fill:#ffe7cf}.style105{fill:#bb966b}.style106{fill:#fff6c4}.style107{fill:#ffecc1}.style108{fill:#f1d4b4}.style109{fill:#ffd8c7}.style11{fill:#fcfffc}.style110{fill:#95604f}.style111{fill:#fff3dc}.style112{fill:#e6b390}.style113{fill:#ffc093}.style114{fill:#c67d3b}.style115{fill:#f3bf67}.style116{fill:#e4c14f}.style117{fill:#fdf872}.style118{fill:#cfa900}.style119{fill:#ffcb1d}.style12{fill:#fef9ff}.style120{fill:#e2a200}.style121{fill:#f2b900}.style122{fill:#ffd65e}.style123{fill:#e19b71}.style124{fill:#b98c8b}.style125{fill:#ccbbb1}.style126{fill:#2e5969}.style127{fill:#5296a1}.style128{fill:#8ab6a4}.style129{fill:#9bab91}.style13{fill:#fafffe}.style130{fill:#866f6b}.style131{fill:#a17c7f}.style132{fill:#e4c0bc}.style133{fill:#974a58}.style134{fill:#ffeef2}.style135{fill:#e9d8be}.style136{fill:#cccca6}.style137{fill:#a09572}.style138{fill:#dbdeb0}.style139{fill:#bde0a2}.style14{fill:#f7fffb}.style140{fill:#b3dcaa}.style141{fill:#faffff}.style142{fill:#92909d}.style143{fill:#dadfe0}.style144{fill:#fbfffd}.style145{fill:#fefefc}.style146{fill:#feffff}.style147{fill:#fffefc}.style148{fill:#fefefe}.style149{fill:#fbfefb}.style15{fill:#fefffd}.style150{fill:#fffcf5}.style151{fill:#f9cbc2}.style152{fill:#c39984}.style153{fill:#feffe2}.style154{fill:#ffe6d6}.style155{fill:#ffe3fe}.style156{fill:#841237}.style157{fill:#ef9489}.style158{fill:#d08c67}.style159{fill:#ffe7ba}.style16{fill:#fafef2}.style160{fill:#b49d51}.style161{fill:#e3e563}.style162{fill:#9cb137}.style163{fill:#edde8f}.style164{fill:#b05543}.style165{fill:#f89888}.style166{fill:#ffe199}.style167{fill:#9c9244}.style168{fill:#b0937b}.style169{fill:#b29a93}.style17{fill:#feffeb}.style170{fill:#feffee}.style171{fill:#9ac9b4}.style172{fill:#60cec8}.style173{fill:#69d3d0}.style174{fill:#86a39b}.style175{fill:#b0bda3}.style176{fill:#c2efb4}.style177{fill:#8ac07d}.style178{fill:#edffd2}.style179{fill:#b0d394}.style18{fill:#edf1d2}.style180{fill:#abe78f}.style181{fill:#56a841}.style182{fill:#a3f991}.style183{fill:#50aa44}.style184{fill:#80cf6d}.style185{fill:#b4fd9a}.style186{fill:#74be5b}.style187{fill:#7ed265}.style188{fill:#57bf47}.style189{fill:#85c055}.style19{fill:#f1edd5}.style190{fill:#f1d790}.style191{fill:#72462b}.style192{fill:#6a737f}.style193{fill:#616280}.style194{fill:#955270}.style195{fill:#b985a0}.style196{fill:#56829e}.style197{fill:#496885}.style198{fill:#d07ba1}.style199{fill:#cc6386}.style2{fill:#fff8ff}.style20{fill:#fefff3}.style200{fill:#a57e98}.style201{fill:#564d63}.style202{fill:#fff6ff}.style203{fill:#9e9296}.style204{fill:#779a87}.style205{fill:#e4fff1}.style206{fill:#f5ffef}.style207{fill:#7f8970}.style208{fill:#626a63}.style209{fill:#f8f3f4}.style21{fill:#fffdff}.style210{fill:#7c636a}.style211{fill:#fff3ff}.style212{fill:#9d606d}.style213{fill:#ffc4c9}.style214{fill:#cb998e}.style215{fill:#b4a993}.style216{fill:#c4c3b2}.style217{fill:#af9eaa}.style218{fill:#d5d2e3}.style219{fill:#639aa0}.style22{fill:#5a5865}.style220{fill:#bffaef}.style221{fill:#bdbeaa}.style222{fill:#6a7a60}.style223{fill:#45af9a}.style224{fill:#9afffb}.style225{fill:#79a5ae}.style226{fill:#abc6cb}.style227{fill:#679689}.style228{fill:#75c5b6}.style229{fill:#63d4df}.style23{fill:#fbffff}.style230{fill:#10b0bf}.style231{fill:#26b5b6}.style232{fill:#14c8ce}.style233{fill:#00b5d3}.style234{fill:#00c0e8}.style235{fill:#00a2c9}.style236{fill:#00b0d7}.style237{fill:#00bdee}.style238{fill:#007f97}.style239{fill:#3ea993}.style24{fill:#ffe4ff}.style240{fill:#d7fcc0}.style241{fill:#fbd986}.style242{fill:#c69e39}.style243{fill:#aab051}.style244{fill:#f7feb7}.style245{fill:#e8bca4}.style246{fill:#db9988}.style247{fill:#a8632f}.style248{fill:#dc9a61}.style249{fill:#894820}.style25{fill:#6b1c3b}.style250{fill:#a77d5c}.style251{fill:#8b9462}.style252{fill:#4f8951}.style253{fill:#49ad79}.style254{fill:#007d44}.style255{fill:#a1ffbd}.style256{fill:#10924f}.style257{fill:#54d7a8}.style258{fill:#885968}.style259{fill:#e57d9a}.style26{fill:#fffdfb}.style260{fill:#931636}.style261{fill:#ffabb2}.style262{fill:#e4dbcf}.style263{fill:#948d7b}.style264{fill:#ce7879}.style265{fill:#e1777a}.style266{fill:#ffe2e0}.style267{fill:#a75b5d}.style268{fill:#e5758b}.style269{fill:#ff7fa1}.style27{fill:#b1be96}.style270{fill:#c6003f}.style271{fill:#e52a5e}.style272{fill:#d6456c}.style273{fill:#ff9eb3}.style274{fill:#ffeaf0}.style275{fill:#b25e63}.style276{fill:#ae203c}.style277{fill:#ffa3bc}.style278{fill:#c387a7}.style279{fill:#9b6080}.style28{fill:#cabb65}.style280{fill:#a01344}.style281{fill:#fb799b}.style282{fill:#ffddf6}.style283{fill:#906983}.style284{fill:#d096b3}.style285{fill:#aa849a}.style286{fill:#eafeff}.style287{fill:#c4cdd8}.style288{fill:#ba7993}.style289{fill:#be90b4}.style29{fill:#fcffbf}.style290{fill:#67b3d8}.style291{fill:#3f98b5}.style292{fill:#b097aa}.style293{fill:#ba929e}.style294{fill:#98b3c1}.style295{fill:#d1ffff}.style296{fill:#e5ffff}.style297{fill:#e2f9fd}.style298{fill:#b3b1c6}.style299{fill:#b39fb0}.style3{fill:#a69aab}.style30{fill:#e8cb85}.style300{fill:#fff2fa}.style301{fill:#ab827d}.style302{fill:#fffded}.style303{fill:#fffbf0}.style304{fill:#a0878e}.style305{fill:#fff8fb}.style306{fill:#faefd9}.style307{fill:#feffe5}.style308{fill:#fffffd}.style309{fill:#f9feff}.style31{fill:#f2c077}.style310{fill:#fdfffa}.style311{fill:#fefdfb}.style312{fill:#fdfdff}.style313{fill:#fffdfe}.style314{fill:#fff2f8}.style315{fill:#78001f}.style316{fill:#fd849e}.style317{fill:#ffbed9}.style318{fill:#856580}.style319{fill:#927f9a}.style32{fill:#e5a050}.style320{fill:#78849e}.style321{fill:#a6e5ff}.style322{fill:#24657e}.style323{fill:#cdc9e4}.style324{fill:#98839f}.style325{fill:#a39ac4}.style326{fill:#9fa8d7}.style327{fill:#647bae}.style328{fill:#a6a0d3}.style329{fill:#bc6d9d}.style33{fill:#ed7747}.style330{fill:#ffa1cd}.style331{fill:#b76692}.style332{fill:#9b4881}.style333{fill:#951f79}.style334{fill:#b61383}.style335{fill:#e30985}.style336{fill:#a50050}.style337{fill:#efc2d6}.style338{fill:#b0b08c}.style339{fill:#e8ca5e}.style34{fill:#bb0006}.style340{fill:#ffd348}.style341{fill:#cca321}.style342{fill:#fef682}.style343{fill:#fdef7d}.style344{fill:#ffce6c}.style345{fill:#fff0b9}.style346{fill:#a47652}.style347{fill:#fffae9}.style348{fill:#fefee0}.style349{fill:#f2b266}.style35{fill:#fe2c65}.style350{fill:#d18f39}.style351{fill:#fff9c4}.style352{fill:#feffe8}.style353{fill:#fffcf9}.style354{fill:#5e7f67}.style355{fill:#e5ffde}.style356{fill:#6aae54}.style357{fill:#9ae07b}.style358{fill:#89c56f}.style359{fill:#b3ffac}.style36{fill:#ffbdbf}.style360{fill:#009432}.style361{fill:#3dd664}.style362{fill:#50c849}.style363{fill:#56c33b}.style364{fill:#5bc83e}.style365{fill:#5ab439}.style366{fill:#b7f098}.style367{fill:#c4feac}.style368{fill:#59bd55}.style369{fill:#40b241}.style37{fill:#9e3b4f}.style370{fill:#9bf588}.style371{fill:#67b265}.style372{fill:#93d3bb}.style373{fill:#d2ffff}.style374{fill:#9ec7b1}.style375{fill:#c8ffe0}.style376{fill:#007258}.style377{fill:#7ae2bc}.style378{fill:#ade8a5}.style379{fill:#bdeaa6}.style38{fill:#ffd1e9}.style380{fill:#579267}.style381{fill:#ddffe8}.style382{fill:#b1e0a5}.style383{fill:#b7e29c}.style384{fill:#ba8c80}.style385{fill:#f3ffda}.style386{fill:#fdffe3}.style387{fill:#c7caaf}.style388{fill:#547152}.style389{fill:#98b99f}.style39{fill:#c45267}.style390{fill:#627464}.style391{fill:#fefbf2}.style392{fill:#fff8ed}.style393{fill:#f2bcae}.style394{fill:#cba393}.style395{fill:#feffea}.style396{fill:#bdd189}.style397{fill:#dbe841}.style398{fill:#e8f037}.style399{fill:#faff97}.style4{fill:#816e85}.style40{fill:#fa93a0}.style400{fill:#e6e577}.style401{fill:#f2fb60}.style402{fill:#e8e43c}.style403{fill:#ffe75e}.style404{fill:#b38800}.style405{fill:#f8d95e}.style406{fill:#ffef77}.style407{fill:#fcc650}.style408{fill:#cd9522}.style409{fill:#f0c069}.style41{fill:#ffebfa}.style410{fill:#ffd694}.style411{fill:#ac5530}.style412{fill:#ffc78e}.style413{fill:#d37e00}.style414{fill:#ffcc32}.style415{fill:#ffb438}.style416{fill:#d27a1a}.style417{fill:#d26539}.style418{fill:#ffa87d}.style419{fill:#fda247}.style42{fill:#cea8a9}.style420{fill:#d88b20}.style421{fill:#b07127}.style422{fill:#f6f4d3}.style423{fill:#e4e9c6}.style424{fill:#f8e6b1}.style425{fill:#a37e51}.style426{fill:#fff2e1}.style427{fill:#a98979}.style428{fill:#f8ffdd}.style429{fill:#9fa980}.style43{fill:#c7c5a9}.style430{fill:#ffcdc7}.style431{fill:#e68187}.style432{fill:#f08e8a}.style433{fill:#bd6768}.style434{fill:#914766}.style435{fill:#b4587d}.style436{fill:#ff8b9e}.style437{fill:#a00004}.style438{fill:#f25677}.style439{fill:#a32e4f}.style44{fill:#fdffdd}.style440{fill:#ffe1f2}.style441{fill:#efffff}.style442{fill:#69c5dd}.style443{fill:#5acbe1}.style444{fill:#6babb7}.style445{fill:#f3ffff}.style446{fill:#ffe5cb}.style447{fill:#e1b58d}.style448{fill:#dab790}.style449{fill:#fdffde}.style45{fill:#7a6046}.style450{fill:#69765c}.style451{fill:#d7e5d0}.style452{fill:#cec7b3}.style453{fill:#e1ffff}.style454{fill:#69bdcc}.style455{fill:#007191}.style456{fill:#79eaff}.style457{fill:#c4ffff}.style458{fill:#5dae9f}.style46{fill:#f09c97}.style47{fill:#c40030}.style48{fill:#d10020}.style49{fill:#f17654}.style5{fill:#fffaff}.style50{fill:#ffc7ab}.style51{fill:#b80032}.style52{fill:#d80062}.style53{fill:#f2698e}.style54{fill:#d36583}.style55{fill:#d86d99}.style56{fill:#ad3f74}.style57{fill:#8a004a}.style58{fill:#ffacd9}.style59{fill:#a65570}.style6{fill:#a8b9da}.style60{fill:#896f6c}.style61{fill:#97c3a3}.style62{fill:#d4ffd9}.style63{fill:#cfb097}.style64{fill:#99764c}.style65{fill:#c4e591}.style66{fill:#8ed66c}.style67{fill:#6db651}.style68{fill:#90dd81}.style69{fill:#88d290}.style7{fill:#576d88}.style70{fill:#abeead}.style71{fill:#7eb260}.style72{fill:#eaffc4}.style73{fill:#fdfff1}.style74{fill:#fefbfc}.style75{fill:#fffefa}.style76{fill:#fcfef9}.style77{fill:#fff}.style78{fill:#fcfdff}.style79{fill:#fefeff}.style8{fill:#e7e8f5}.style80{fill:#fff3f8}.style81{fill:#cb434f}.style82{fill:#c43c50}.style83{fill:#e2b8cb}.style84{fill:#ddcade}.style85{fill:#8a4d5e}.style86{fill:#9b7d86}.style87{fill:#99e4e8}.style88{fill:#4ba5ab}.style89{fill:#797088}.style9{fill:#fffeff}.style90{fill:#f0bedc}.style91{fill:#815171}.style92{fill:#bd98ba}.style93{fill:#d1c3e8}.style94{fill:#422d4d}.style95{fill:#c68da2}.style96{fill:#ffe0f2}.style97{fill:#660029}.style98{fill:#ee7bac}.style99{fill:#94004d}</style><path class="style0" d="M0 1h500v1H0z"/>&amp;quot;&amp;quot;<path class="style1" d="M0 2h500v1H0z"/>&amp;quot;&amp;quot;<path class="style2" d="M0 3h500v1H0z"/>&amp;quot;&amp;quot;<path class="style3" d="M0 4h500v1H0z"/>&amp;quot;&amp;quot;<path class="style4" d="M0 5h500v1H0z"/>&amp;quot;&amp;quot;<path class="style5" d="M0 6h500v1H0z"/>&amp;quot;&amp;quot;<path class="style6" d="M0 7h500v1H0z"/>&amp;quot;&amp;quot;<path class="style7" d="M0 8h500v1H0z"/>&amp;quot;&amp;quot;<path class="style8" d="M0 9h500v1H0z"/>&amp;quot;&amp;quot;<path class="style9" d="M0 10h500v1H0z"/>&amp;quot;&amp;quot;<path class="style10" d="M0 11h500v1H0z"/>&amp;quot;&amp;quot;<path class="style11" d="M0 12h500v1H0z"/>&amp;quot;&amp;quot;<path class="style12" d="M0 13h500v1H0z"/>&amp;quot;&amp;quot;<path class="style9" d="M0 14h500v1H0z"/>&amp;quot;&amp;quot;<path class="style13" d="M0 15h500v1H0z"/>&amp;quot;&amp;quot;<path class="style14" d="M0 16h500v1H0z"/>&amp;quot;&amp;quot;<path class="style15" d="M0 17h500v1H0z"/>&amp;quot;&amp;quot;<path class="style16" d="M0 18h500v1H0z"/>&amp;quot;&amp;quot;<path class="style17" d="M0 19h500v1H0z"/>&amp;quot;&amp;quot;<path class="style18" d="M0 20h500v1H0z"/>&amp;quot;&amp;quot;<path class="style19" d="M0 21h500v1H0z"/>&amp;quot;&amp;quot;<path class="style20" d="M0 22h500v1H0z"/>&amp;quot;&amp;quot;<path class="style21" d="M0 23h500v1H0z"/>&amp;quot;&amp;quot;<path class="style22" d="M0 24h500v1H0z"/>&amp;quot;&amp;quot;<path class="style23" d="M0 25h500v1H0z"/>&amp;quot;&amp;quot;<path class="style2" d="M0 26h500v1H0z"/>&amp;quot;&amp;quot;<path class="style24" d="M0 27h500v1H0z"/>&amp;quot;&amp;quot;<path class="style25" d="M0 28h500v1H0z"/>&amp;quot;&amp;quot;<path class="style26" d="M0 29h500v1H0z"/>&amp;quot;&amp;quot;<path class="style27" d="M0 30h500v1H0z"/>&amp;quot;&amp;quot;<path class="style28" d="M0 31h500v1H0z"/>&amp;quot;&amp;quot;<path class="style28" d="M0 32h500v1H0z"/>&amp;quot;&amp;quot;<path class="style29" d="M0 33h500v1H0z"/>&amp;quot;&amp;quot;<path class="style29" d="M0 34h500v1H0z"/>&amp;quot;&amp;quot;<path class="style30" d="M0 35h500v1H0z"/>&amp;quot;&amp;quot;<path class="style31" d="M0 36h500v1H0z"/>&amp;quot;&amp;quot;<path class="style32" d="M0 37h500v1H0z"/>&amp;quot;&amp;quot;<path class="style33" d="M0 38h500v1H0z"/>&amp;quot;&amp;quot;<path class="style34" d="M0 39h500v1H0z"/>&amp;quot;&amp;quot;<path class="style35" d="M0 40h500v1H0z"/>&amp;quot;&amp;quot;<path class="style36" d="M0 41h500v1H0z"/>&amp;quot;&amp;quot;<path class="style36" d="M0 42h500v1H0z"/>&amp;quot;&amp;quot;<path class="style37" d="M0 43h500v1H0z"/>&amp;quot;&amp;quot;<path class="style38" d="M0 44h500v1H0z"/>&amp;quot;&amp;quot;<path class="style39" d="M0 45h500v1H0z"/>&amp;quot;&amp;quot;<path class="style40" d="M0 46h500v1H0z"/>&amp;quot;&amp;quot;<path class="style41" d="M0 47h500v1H0z"/>&amp;quot;&amp;quot;<path class="style42" d="M0 48h500v1H0z"/>&amp;quot;&amp;quot;<path class="style43" d="M0 49h500v1H0z"/>&amp;quot;&amp;quot;<path class="style44" d="M0 50h500v1H0z"/>&amp;quot;&amp;quot;<path class="style45" d="M0 51h500v1H0z"/>&amp;quot;&amp;quot;<path class="style46" d="M0 52h500v1H0z"/>&amp;quot;&amp;quot;<path class="style47" d="M0 53h500v1H0z"/>&amp;quot;&amp;quot;<path class="style48" d="M0 54h500v1H0z"/>&amp;quot;&amp;quot;<path class="style49" d="M0 55h500v1H0z"/>&amp;quot;&amp;quot;<path class="style50" d="M0 56h500v1H0z"/>&amp;quot;&amp;quot;<path class="style51" d="M0 57h500v1H0z"/>&amp;quot;&amp;quot;<path class="style52" d="M0 58h500v1H0z"/>&amp;quot;&amp;quot;<path class="style53" d="M0 59h500v1H0z"/>&amp;quot;&amp;quot;<path class="style54" d="M0 60h500v1H0z"/>&amp;quot;&amp;quot;<path class="style55" d="M0 61h500v1H0z"/>&amp;quot;&amp;quot;<path class="style56" d="M0 62h500v1H0z"/>&amp;quot;&amp;quot;<path class="style57" d="M0 63h500v1H0z"/>&amp;quot;&amp;quot;<path class="style58" d="M0 64h500v1H0z"/>&amp;quot;&amp;quot;<path class="style59" d="M0 65h500v1H0z"/>&amp;quot;&amp;quot;<path class="style60" d="M0 66h500v1H0z"/>&amp;quot;&amp;quot;<path class="style61" d="M0 67h500v1H0z"/>&amp;quot;&amp;quot;<path class="style62" d="M0 68h500v1H0z"/>&amp;quot;&amp;quot;<path class="style63" d="M0 69h500v1H0z"/>&amp;quot;&amp;quot;<path class="style64" d="M0 70h500v1H0z"/>&amp;quot;&amp;quot;<path class="style65" d="M0 71h500v1H0z"/>&amp;quot;&amp;quot;<path class="style66" d="M0 72h500v1H0z"/>&amp;quot;&amp;quot;<path class="style67" d="M0 73h500v1H0z"/>&amp;quot;&amp;quot;<path class="style68" d="M0 74h500v1H0z"/>&amp;quot;&amp;quot;<path class="style69" d="M0 75h500v1H0z"/>&amp;quot;&amp;quot;<path class="style70" d="M0 76h500v1H0z"/>&amp;quot;&amp;quot;<path class="style71" d="M0 77h500v1H0z"/>&amp;quot;&amp;quot;<path class="style72" d="M0 78h500v1H0z"/>&amp;quot;&amp;quot;<path class="style73" d="M0 79h500v1H0z"/>&amp;quot;&amp;quot;<path class="style74" d="M0 80h500v1H0z"/>&amp;quot;&amp;quot;<path class="style75" d="M0 81h500v1H0z"/>&amp;quot;&amp;quot;<path class="style76" d="M0 82h500v1H0z"/>&amp;quot;&amp;quot;<path class="style77" d="M0 83h500v1H0z"/>&amp;quot;&amp;quot;<path class="style78" d="M0 84h500v1H0z"/>&amp;quot;&amp;quot;<path class="style79" d="M0 85h500v1H0z"/>&amp;quot;&amp;quot;<path class="style80" d="M0 86h500v1H0z"/>&amp;quot;&amp;quot;<path class="style81" d="M0 87h500v1H0z"/>&amp;quot;&amp;quot;<path class="style82" d="M0 88h500v1H0z"/>&amp;quot;&amp;quot;<path class="style83" d="M0 89h500v1H0z"/>&amp;quot;&amp;quot;<path class="style84" d="M0 90h500v1H0z"/>&amp;quot;&amp;quot;<path class="style85" d="M0 91h500v1H0z"/>&amp;quot;&amp;quot;<path class="style86" d="M0 92h500v1H0z"/>&amp;quot;&amp;quot;<path class="style87" d="M0 93h500v1H0z"/>&amp;quot;&amp;quot;<path class="style88" d="M0 94h500v1H0z"/>&amp;quot;&amp;quot;<path class="style89" d="M0 95h500v1H0z"/>&amp;quot;&amp;quot;<path class="style90" d="M0 96h500v1H0z"/>&amp;quot;&amp;quot;<path class="style91" d="M0 97h500v1H0z"/>&amp;quot;&amp;quot;<path class="style92" d="M0 98h500v1H0z"/>&amp;quot;&amp;quot;<path class="style93" d="M0 99h500v1H0z"/>&amp;quot;&amp;quot;<path class="style94" d="M0 100h500v1H0z"/>&amp;quot;&amp;quot;<path class="style95" d="M0 101h500v1H0z"/>&amp;quot;&amp;quot;<path class="style96" d="M0 102h500v1H0z"/>&amp;quot;&amp;quot;<path class="style97" d="M0 103h500v1H0z"/>&amp;quot;&amp;quot;<path class="style98" d="M0 104h500v1H0z"/>&amp;quot;&amp;quot;<path class="style99" d="M0 105h500v1H0z"/>&amp;quot;&amp;quot;<path class="style100" d="M0 106h500v1H0z"/>&amp;quot;&amp;quot;<path class="style101" d="M0 107h500v1H0z"/>&amp;quot;&amp;quot;<path class="style102" d="M0 108h500v1H0z"/>&amp;quot;&amp;quot;<path class="style103" d="M0 109h500v1H0z"/>&amp;quot;&amp;quot;<path class="style104" d="M0 110h500v1H0z"/>&amp;quot;&amp;quot;<path class="style105" d="M0 111h500v1H0z"/>&amp;quot;&amp;quot;<path class="style106" d="M0 112h500v1H0z"/>&amp;quot;&amp;quot;<path class="style107" d="M0 113h500v1H0z"/>&amp;quot;&amp;quot;<path class="style108" d="M0 114h500v1H0z"/>&amp;quot;&amp;quot;<path class="style109" d="M0 115h500v1H0z"/>&amp;quot;&amp;quot;<path class="style110" d="M0 116h500v1H0z"/>&amp;quot;&amp;quot;<path class="style111" d="M0 117h500v1H0z"/>&amp;quot;&amp;quot;<path class="style112" d="M0 118h500v1H0z"/>&amp;quot;&amp;quot;<path class="style113" d="M0 119h500v1H0z"/>&amp;quot;&amp;quot;<path class="style114" d="M0 120h500v1H0z"/>&amp;quot;&amp;quot;<path class="style115" d="M0 121h500v1H0z"/>&amp;quot;&amp;quot;<path class="style116" d="M0 122h500v1H0z"/>&amp;quot;&amp;quot;<path class="style117" d="M0 123h500v1H0z"/>&amp;quot;&amp;quot;<path class="style118" d="M0 124h500v1H0z"/>&amp;quot;&amp;quot;<path class="style119" d="M0 125h500v1H0z"/>&amp;quot;&amp;quot;<path class="style120" d="M0 126h500v1H0z"/>&amp;quot;&amp;quot;<path class="style121" d="M0 127h500v1H0z"/>&amp;quot;&amp;quot;<path class="style122" d="M0 128h500v1H0z"/>&amp;quot;&amp;quot;<path class="style123" d="M0 129h500v1H0z"/>&amp;quot;&amp;quot;<path class="style105" d="M0 130h500v1H0z"/>&amp;quot;&amp;quot;<path class="style124" d="M0 131h500v1H0z"/>&amp;quot;&amp;quot;<path class="style125" d="M0 132h500v1H0z"/>&amp;quot;&amp;quot;<path class="style126" d="M0 133h500v1H0z"/>&amp;quot;&amp;quot;<path class="style127" d="M0 134h500v1H0z"/>&amp;quot;&amp;quot;<path class="style128" d="M0 135h500v1H0z"/>&amp;quot;&amp;quot;<path class="style129" d="M0 136h500v1H0z"/>&amp;quot;&amp;quot;<path class="style130" d="M0 137h500v1H0z"/>&amp;quot;&amp;quot;<path class="style131" d="M0 138h500v1H0z"/>&amp;quot;&amp;quot;<path class="style132" d="M0 139h500v1H0z"/>&amp;quot;&amp;quot;<path class="style124" d="M0 140h500v1H0z"/>&amp;quot;&amp;quot;<path class="style133" d="M0 141h500v1H0z"/>&amp;quot;&amp;quot;<path class="style134" d="M0 142h500v1H0z"/>&amp;quot;&amp;quot;<path class="style135" d="M0 143h500v1H0z"/>&amp;quot;&amp;quot;<path class="style136" d="M0 144h500v1H0z"/>&amp;quot;&amp;quot;<path class="style137" d="M0 145h500v1H0z"/>&amp;quot;&amp;quot;<path class="style138" d="M0 146h500v1H0z"/>&amp;quot;&amp;quot;<path class="style139" d="M0 147h500v1H0z"/>&amp;quot;&amp;quot;<path class="style140" d="M0 148h500v1H0z"/>&amp;quot;&amp;quot;<path class="style141" d="M0 149h500v1H0z"/>&amp;quot;&amp;quot;<path class="style142" d="M0 150h500v1H0z"/>&amp;quot;&amp;quot;<path class="style143" d="M0 151h500v1H0z"/>&amp;quot;&amp;quot;<path class="style144" d="M0 152h500v1H0z"/>&amp;quot;&amp;quot;<path class="style145" d="M0 153h500v1H0z"/>&amp;quot;&amp;quot;<path class="style145" d="M0 154h500v1H0z"/>&amp;quot;&amp;quot;<path class="style146" d="M0 155h500v1H0z"/>&amp;quot;&amp;quot;<path class="style146" d="M0 156h500v1H0z"/>&amp;quot;&amp;quot;<path class="style147" d="M0 157h500v1H0z"/>&amp;quot;&amp;quot;<path class="style147" d="M0 158h500v1H0z"/>&amp;quot;&amp;quot;<path class="style144" d="M0 159h500v1H0z"/>&amp;quot;&amp;quot;<path class="style77" d="M0 160h500v1H0z"/>&amp;quot;&amp;quot;<path class="style77" d="M0 161h500v1H0z"/>&amp;quot;&amp;quot;<path class="style77" d="M0 162h500v1H0z"/>&amp;quot;&amp;quot;<path class="style77" d="M0 163h500v1H0z"/>&amp;quot;&amp;quot;<path class="style77" d="M0 164h500v1H0z"/>&amp;quot;&amp;quot;<path class="style77" d="M0 165h500v1H0z"/>&amp;quot;&amp;quot;<path class="style77" d="M0 166h500v1H0z"/>&amp;quot;&amp;quot;<path class="style77" d="M0 167h500v1H0z"/>&amp;quot;&amp;quot;<path class="style77" d="M0 168h500v1H0z"/>&amp;quot;&amp;quot;<path class="style77" d="M0 169h500v1H0z"/>&amp;quot;&amp;quot;<path class="style77" d="M0 170h500v1H0z"/>&amp;quot;&amp;quot;<path class="style77" d="M0 171h500v1H0z"/>&amp;quot;&amp;quot;<path class="style77" d="M0 172h500v1H0z"/>&amp;quot;&amp;quot;<path class="style77" d="M0 173h500v1H0z"/>&amp;quot;&amp;quot;<path class="style148" d="M0 174h500v1H0z"/>&amp;quot;&amp;quot;<path class="style148" d="M0 175h500v1H0z"/>&amp;quot;&amp;quot;<path class="style148" d="M0 176h500v1H0z"/>&amp;quot;&amp;quot;<path class="style149" d="M0 177h500v1H0z"/>&amp;quot;&amp;quot;<path class="style150" d="M0 178h500v1H0z"/>&amp;quot;&amp;quot;<path class="style151" d="M0 179h500v1H0z"/>&amp;quot;&amp;quot;<path class="style152" d="M0 180h500v1H0z"/>&amp;quot;&amp;quot;<path class="style153" d="M0 181h500v1H0z"/>&amp;quot;&amp;quot;<path class="style154" d="M0 182h500v1H0z"/>&amp;quot;&amp;quot;<path class="style155" d="M0 183h500v1H0z"/>&amp;quot;&amp;quot;<path class="style156" d="M0 184h500v1H0z"/>&amp;quot;&amp;quot;<path class="style157" d="M0 185h500v1H0z"/>&amp;quot;&amp;quot;<path class="style158" d="M0 186h500v1H0z"/>&amp;quot;&amp;quot;<path class="style159" d="M0 187h500v1H0z"/>&amp;quot;&amp;quot;<path class="style160" d="M0 188h500v1H0z"/>&amp;quot;&amp;quot;<path class="style161" d="M0 189h500v1H0z"/>&amp;quot;&amp;quot;<path class="style148" d="M0 190h500v1H0z"/>&amp;quot;&amp;quot;<path class="style162" d="M0 191h500v1H0z"/>&amp;quot;&amp;quot;<path class="style163" d="M0 192h500v1H0z"/>&amp;quot;&amp;quot;<path class="style164" d="M0 193h500v1H0z"/>&amp;quot;&amp;quot;<path class="style165" d="M0 194h500v1H0z"/>&amp;quot;&amp;quot;<path class="style166" d="M0 195h500v1H0z"/>&amp;quot;&amp;quot;<path class="style167" d="M0 196h500v1H0z"/>&amp;quot;&amp;quot;<path class="style168" d="M0 197h500v1H0z"/>&amp;quot;&amp;quot;<path class="style169" d="M0 198h500v1H0z"/>&amp;quot;&amp;quot;<path class="style170" d="M0 199h500v1H0z"/>&amp;quot;&amp;quot;<path class="style171" d="M0 200h500v1H0z"/>&amp;quot;&amp;quot;<path class="style172" d="M0 201h500v1H0z"/>&amp;quot;&amp;quot;<path class="style173" d="M0 202h500v1H0z"/>&amp;quot;&amp;quot;<path class="style174" d="M0 203h500v1H0z"/>&amp;quot;&amp;quot;<path class="style175" d="M0 204h500v1H0z"/>&amp;quot;&amp;quot;<path class="style176" d="M0 205h500v1H0z"/>&amp;quot;&amp;quot;<path class="style177" d="M0 206h500v1H0z"/>&amp;quot;&amp;quot;<path class="style178" d="M0 207h500v1H0z"/>&amp;quot;&amp;quot;<path class="style179" d="M0 208h500v1H0z"/>&amp;quot;&amp;quot;<path class="style180" d="M0 209h500v1H0z"/>&amp;quot;&amp;quot;<path class="style181" d="M0 210h500v1H0z"/>&amp;quot;&amp;quot;<path class="style182" d="M0 211h500v1H0z"/>&amp;quot;&amp;quot;<path class="style183" d="M0 212h500v1H0z"/>&amp;quot;&amp;quot;<path class="style184" d="M0 213h500v1H0z"/>&amp;quot;&amp;quot;<path class="style185" d="M0 214h500v1H0z"/>&amp;quot;&amp;quot;<path class="style186" d="M0 215h500v1H0z"/>&amp;quot;&amp;quot;<path class="style187" d="M0 216h500v1H0z"/>&amp;quot;&amp;quot;<path class="style188" d="M0 217h500v1H0z"/>&amp;quot;&amp;quot;<path class="style189" d="M0 218h500v1H0z"/>&amp;quot;&amp;quot;<path class="style190" d="M0 219h500v1H0z"/>&amp;quot;&amp;quot;<path class="style191" d="M0 220h500v1H0z"/>&amp;quot;&amp;quot;<path class="style192" d="M0 221h500v1H0z"/>&amp;quot;&amp;quot;<path class="style193" d="M0 222h500v1H0z"/>&amp;quot;&amp;quot;<path class="style194" d="M0 223h500v1H0z"/>&amp;quot;&amp;quot;<path class="style195" d="M0 224h500v1H0z"/>&amp;quot;&amp;quot;<path class="style196" d="M0 225h500v1H0z"/>&amp;quot;&amp;quot;<path class="style197" d="M0 226h500v1H0z"/>&amp;quot;&amp;quot;<path class="style198" d="M0 227h500v1H0z"/>&amp;quot;&amp;quot;<path class="style199" d="M0 228h500v1H0z"/>&amp;quot;&amp;quot;<path class="style200" d="M0 229h500v1H0z"/>&amp;quot;&amp;quot;<path class="style201" d="M0 230h500v1H0z"/>&amp;quot;&amp;quot;<path class="style202" d="M0 231h500v1H0z"/>&amp;quot;&amp;quot;<path class="style203" d="M0 232h500v1H0z"/>&amp;quot;&amp;quot;<path class="style204" d="M0 233h500v1H0z"/>&amp;quot;&amp;quot;<path class="style205" d="M0 234h500v1H0z"/>&amp;quot;&amp;quot;<path class="style206" d="M0 235h500v1H0z"/>&amp;quot;&amp;quot;<path class="style207" d="M0 236h500v1H0z"/>&amp;quot;&amp;quot;<path class="style208" d="M0 237h500v1H0z"/>&amp;quot;&amp;quot;<path class="style209" d="M0 238h500v1H0z"/>&amp;quot;&amp;quot;<path class="style210" d="M0 239h500v1H0z"/>&amp;quot;&amp;quot;<path class="style211" d="M0 240h500v1H0z"/>&amp;quot;&amp;quot;<path class="style211" d="M0 241h500v1H0z"/>&amp;quot;&amp;quot;<path class="style212" d="M0 242h500v1H0z"/>&amp;quot;&amp;quot;<path class="style213" d="M0 243h500v1H0z"/>&amp;quot;&amp;quot;<path class="style214" d="M0 244h500v1H0z"/>&amp;quot;&amp;quot;<path class="style215" d="M0 245h500v1H0z"/>&amp;quot;&amp;quot;<path class="style216" d="M0 246h500v1H0z"/>&amp;quot;&amp;quot;<path class="style217" d="M0 247h500v1H0z"/>&amp;quot;&amp;quot;<path class="style218" d="M0 248h500v1H0z"/>&amp;quot;&amp;quot;<path class="style219" d="M0 249h500v1H0z"/>&amp;quot;&amp;quot;<path class="style220" d="M0 250h500v1H0z"/>&amp;quot;&amp;quot;<path class="style221" d="M0 251h500v1H0z"/>&amp;quot;&amp;quot;<path class="style222" d="M0 252h500v1H0z"/>&amp;quot;&amp;quot;<path class="style223" d="M0 253h500v1H0z"/>&amp;quot;&amp;quot;<path class="style224" d="M0 254h500v1H0z"/>&amp;quot;&amp;quot;<path class="style225" d="M0 255h500v1H0z"/>&amp;quot;&amp;quot;<path class="style226" d="M0 256h500v1H0z"/>&amp;quot;&amp;quot;<path class="style227" d="M0 257h500v1H0z"/>&amp;quot;&amp;quot;<path class="style228" d="M0 258h500v1H0z"/>&amp;quot;&amp;quot;<path class="style229" d="M0 259h500v1H0z"/>&amp;quot;&amp;quot;<path class="style230" d="M0 260h500v1H0z"/>&amp;quot;&amp;quot;<path class="style231" d="M0 261h500v1H0z"/>&amp;quot;&amp;quot;<path class="style232" d="M0 262h500v1H0z"/>&amp;quot;&amp;quot;<path class="style233" d="M0 263h500v1H0z"/>&amp;quot;&amp;quot;<path class="style234" d="M0 264h500v1H0z"/>&amp;quot;&amp;quot;<path class="style235" d="M0 265h500v1H0z"/>&amp;quot;&amp;quot;<path class="style236" d="M0 266h500v1H0z"/>&amp;quot;&amp;quot;<path class="style237" d="M0 267h500v1H0z"/>&amp;quot;&amp;quot;<path class="style238" d="M0 268h500v1H0z"/>&amp;quot;&amp;quot;<path class="style239" d="M0 269h500v1H0z"/>&amp;quot;&amp;quot;<path class="style240" d="M0 270h500v1H0z"/>&amp;quot;&amp;quot;<path class="style241" d="M0 271h500v1H0z"/>&amp;quot;&amp;quot;<path class="style242" d="M0 272h500v1H0z"/>&amp;quot;&amp;quot;<path class="style243" d="M0 273h500v1H0z"/>&amp;quot;&amp;quot;<path class="style244" d="M0 274h500v1H0z"/>&amp;quot;&amp;quot;<path class="style245" d="M0 275h500v1H0z"/>&amp;quot;&amp;quot;<path class="style246" d="M0 276h500v1H0z"/>&amp;quot;&amp;quot;<path class="style247" d="M0 277h500v1H0z"/>&amp;quot;&amp;quot;<path class="style248" d="M0 278h500v1H0z"/>&amp;quot;&amp;quot;<path class="style249" d="M0 279h500v1H0z"/>&amp;quot;&amp;quot;<path class="style250" d="M0 280h500v1H0z"/>&amp;quot;&amp;quot;<path class="style251" d="M0 281h500v1H0z"/>&amp;quot;&amp;quot;<path class="style252" d="M0 282h500v1H0z"/>&amp;quot;&amp;quot;<path class="style253" d="M0 283h500v1H0z"/>&amp;quot;&amp;quot;<path class="style254" d="M0 284h500v1H0z"/>&amp;quot;&amp;quot;<path class="style255" d="M0 285h500v1H0z"/>&amp;quot;&amp;quot;<path class="style256" d="M0 286h500v1H0z"/>&amp;quot;&amp;quot;<path class="style257" d="M0 287h500v1H0z"/>&amp;quot;&amp;quot;<path class="style251" d="M0 288h500v1H0z"/>&amp;quot;&amp;quot;<path class="style258" d="M0 289h500v1H0z"/>&amp;quot;&amp;quot;<path class="style259" d="M0 290h500v1H0z"/>&amp;quot;&amp;quot;<path class="style260" d="M0 291h500v1H0z"/>&amp;quot;&amp;quot;<path class="style261" d="M0 292h500v1H0z"/>&amp;quot;&amp;quot;<path class="style262" d="M0 293h500v1H0z"/>&amp;quot;&amp;quot;<path class="style263" d="M0 294h500v1H0z"/>&amp;quot;&amp;quot;<path class="style264" d="M0 295h500v1H0z"/>&amp;quot;&amp;quot;<path class="style265" d="M0 296h500v1H0z"/>&amp;quot;&amp;quot;<path class="style266" d="M0 297h500v1H0z"/>&amp;quot;&amp;quot;<path class="style267" d="M0 298h500v1H0z"/>&amp;quot;&amp;quot;<path class="style268" d="M0 299h500v1H0z"/>&amp;quot;&amp;quot;<path class="style269" d="M0 300h500v1H0z"/>&amp;quot;&amp;quot;<path class="style270" d="M0 301h500v1H0z"/>&amp;quot;&amp;quot;<path class="style271" d="M0 302h500v1H0z"/>&amp;quot;&amp;quot;<path class="style272" d="M0 303h500v1H0z"/>&amp;quot;&amp;quot;<path class="style273" d="M0 304h500v1H0z"/>&amp;quot;&amp;quot;<path class="style274" d="M0 305h500v1H0z"/>&amp;quot;&amp;quot;<path class="style275" d="M0 306h500v1H0z"/>&amp;quot;&amp;quot;<path class="style276" d="M0 307h500v1H0z"/>&amp;quot;&amp;quot;<path class="style277" d="M0 308h500v1H0z"/>&amp;quot;&amp;quot;<path class="style278" d="M0 309h500v1H0z"/>&amp;quot;&amp;quot;<path class="style279" d="M0 310h500v1H0z"/>&amp;quot;&amp;quot;<path class="style280" d="M0 311h500v1H0z"/>&amp;quot;&amp;quot;<path class="style281" d="M0 312h500v1H0z"/>&amp;quot;&amp;quot;<path class="style282" d="M0 313h500v1H0z"/>&amp;quot;&amp;quot;<path class="style283" d="M0 314h500v1H0z"/>&amp;quot;&amp;quot;<path class="style284" d="M0 315h500v1H0z"/>&amp;quot;&amp;quot;<path class="style285" d="M0 316h500v1H0z"/>&amp;quot;&amp;quot;<path class="style286" d="M0 317h500v1H0z"/>&amp;quot;&amp;quot;<path class="style287" d="M0 318h500v1H0z"/>&amp;quot;&amp;quot;<path class="style288" d="M0 319h500v1H0z"/>&amp;quot;&amp;quot;<path class="style289" d="M0 320h500v1H0z"/>&amp;quot;&amp;quot;<path class="style290" d="M0 321h500v1H0z"/>&amp;quot;&amp;quot;<path class="style291" d="M0 322h500v1H0z"/>&amp;quot;&amp;quot;<path class="style292" d="M0 323h500v1H0z"/>&amp;quot;&amp;quot;<path class="style293" d="M0 324h500v1H0z"/>&amp;quot;&amp;quot;<path class="style294" d="M0 325h500v1H0z"/>&amp;quot;&amp;quot;<path class="style295" d="M0 326h500v1H0z"/>&amp;quot;&amp;quot;<path class="style296" d="M0 327h500v1H0z"/>&amp;quot;&amp;quot;<path class="style297" d="M0 328h500v1H0z"/>&amp;quot;&amp;quot;<path class="style298" d="M0 329h500v1H0z"/>&amp;quot;&amp;quot;<path class="style299" d="M0 330h500v1H0z"/>&amp;quot;&amp;quot;<path class="style300" d="M0 331h500v1H0z"/>&amp;quot;&amp;quot;<path class="style301" d="M0 332h500v1H0z"/>&amp;quot;&amp;quot;<path class="style302" d="M0 333h500v1H0z"/>&amp;quot;&amp;quot;<path class="style303" d="M0 334h500v1H0z"/>&amp;quot;&amp;quot;<path class="style304" d="M0 335h500v1H0z"/>&amp;quot;&amp;quot;<path class="style305" d="M0 336h500v1H0z"/>&amp;quot;&amp;quot;<path class="style306" d="M0 337h500v1H0z"/>&amp;quot;&amp;quot;<path class="style307" d="M0 338h500v1H0z"/>&amp;quot;&amp;quot;<path class="style308" d="M0 339h500v1H0z"/>&amp;quot;&amp;quot;<path class="style309" d="M0 340h500v1H0z"/>&amp;quot;&amp;quot;<path class="style10" d="M0 341h500v1H0z"/>&amp;quot;&amp;quot;<path class="style310" d="M0 342h500v1H0z"/>&amp;quot;&amp;quot;<path class="style311" d="M0 343h500v1H0z"/>&amp;quot;&amp;quot;<path class="style148" d="M0 344h500v1H0z"/>&amp;quot;&amp;quot;<path class="style312" d="M0 345h500v1H0z"/>&amp;quot;&amp;quot;<path class="style146" d="M0 346h500v1H0z"/>&amp;quot;&amp;quot;<path class="style313" d="M0 347h500v1H0z"/>&amp;quot;&amp;quot;<path class="style314" d="M0 348h500v1H0z"/>&amp;quot;&amp;quot;<path class="style315" d="M0 349h500v1H0z"/>&amp;quot;&amp;quot;<path class="style316" d="M0 350h500v1H0z"/>&amp;quot;&amp;quot;<path class="style317" d="M0 351h500v1H0z"/>&amp;quot;&amp;quot;<path class="style318" d="M0 352h500v1H0z"/>&amp;quot;&amp;quot;<path class="style319" d="M0 353h500v1H0z"/>&amp;quot;&amp;quot;<path class="style320" d="M0 354h500v1H0z"/>&amp;quot;&amp;quot;<path class="style321" d="M0 355h500v1H0z"/>&amp;quot;&amp;quot;<path class="style322" d="M0 356h500v1H0z"/>&amp;quot;&amp;quot;<path class="style323" d="M0 357h500v1H0z"/>&amp;quot;&amp;quot;<path class="style324" d="M0 358h500v1H0z"/>&amp;quot;&amp;quot;<path class="style325" d="M0 359h500v1H0z"/>&amp;quot;&amp;quot;<path class="style326" d="M0 360h500v1H0z"/>&amp;quot;&amp;quot;<path class="style327" d="M0 361h500v1H0z"/>&amp;quot;&amp;quot;<path class="style328" d="M0 362h500v1H0z"/>&amp;quot;&amp;quot;<path class="style329" d="M0 363h500v1H0z"/>&amp;quot;&amp;quot;<path class="style330" d="M0 364h500v1H0z"/>&amp;quot;&amp;quot;<path class="style331" d="M0 365h500v1H0z"/>&amp;quot;&amp;quot;<path class="style332" d="M0 366h500v1H0z"/>&amp;quot;&amp;quot;<path class="style333" d="M0 367h500v1H0z"/>&amp;quot;&amp;quot;<path class="style334" d="M0 368h500v1H0z"/>&amp;quot;&amp;quot;<path class="style335" d="M0 369h500v1H0z"/>&amp;quot;&amp;quot;<path class="style336" d="M0 370h500v1H0z"/>&amp;quot;&amp;quot;<path class="style337" d="M0 371h500v1H0z"/>&amp;quot;&amp;quot;<path class="style338" d="M0 372h500v1H0z"/>&amp;quot;&amp;quot;<path class="style339" d="M0 373h500v1H0z"/>&amp;quot;&amp;quot;<path class="style340" d="M0 374h500v1H0z"/>&amp;quot;&amp;quot;<path class="style341" d="M0 375h500v1H0z"/>&amp;quot;&amp;quot;<path class="style342" d="M0 376h500v1H0z"/>&amp;quot;&amp;quot;<path class="style342" d="M0 377h500v1H0z"/>&amp;quot;&amp;quot;<path class="style343" d="M0 378h500v1H0z"/>&amp;quot;&amp;quot;<path class="style344" d="M0 379h500v1H0z"/>&amp;quot;&amp;quot;<path class="style330" d="M0 380h500v1H0z"/>&amp;quot;&amp;quot;<path class="style345" d="M0 381h500v1H0z"/>&amp;quot;&amp;quot;<path class="style346" d="M0 382h500v1H0z"/>&amp;quot;&amp;quot;<path class="style347" d="M0 383h500v1H0z"/>&amp;quot;&amp;quot;<path class="style348" d="M0 384h500v1H0z"/>&amp;quot;&amp;quot;<path class="style349" d="M0 385h500v1H0z"/>&amp;quot;&amp;quot;<path class="style350" d="M0 386h500v1H0z"/>&amp;quot;&amp;quot;<path class="style351" d="M0 387h500v1H0z"/>&amp;quot;&amp;quot;<path class="style352" d="M0 388h500v1H0z"/>&amp;quot;&amp;quot;<path class="style353" d="M0 389h500v1H0z"/>&amp;quot;&amp;quot;<path class="style23" d="M0 390h500v1H0z"/>&amp;quot;&amp;quot;<path class="style354" d="M0 391h500v1H0z"/>&amp;quot;&amp;quot;<path class="style355" d="M0 392h500v1H0z"/>&amp;quot;&amp;quot;<path class="style356" d="M0 393h500v1H0z"/>&amp;quot;&amp;quot;<path class="style357" d="M0 394h500v1H0z"/>&amp;quot;&amp;quot;<path class="style358" d="M0 395h500v1H0z"/>&amp;quot;&amp;quot;<path class="style359" d="M0 396h500v1H0z"/>&amp;quot;&amp;quot;<path class="style360" d="M0 397h500v1H0z"/>&amp;quot;&amp;quot;<path class="style361" d="M0 398h500v1H0z"/>&amp;quot;&amp;quot;<path class="style362" d="M0 399h500v1H0z"/>&amp;quot;&amp;quot;<path class="style363" d="M0 400h500v1H0z"/>&amp;quot;&amp;quot;<path class="style364" d="M0 401h500v1H0z"/>&amp;quot;&amp;quot;<path class="style365" d="M0 402h500v1H0z"/>&amp;quot;&amp;quot;<path class="style366" d="M0 403h500v1H0z"/>&amp;quot;&amp;quot;<path class="style367" d="M0 404h500v1H0z"/>&amp;quot;&amp;quot;<path class="style368" d="M0 405h500v1H0z"/>&amp;quot;&amp;quot;<path class="style369" d="M0 406h500v1H0z"/>&amp;quot;&amp;quot;<path class="style370" d="M0 407h500v1H0z"/>&amp;quot;&amp;quot;<path class="style371" d="M0 408h500v1H0z"/>&amp;quot;&amp;quot;<path class="style372" d="M0 409h500v1H0z"/>&amp;quot;&amp;quot;<path class="style373" d="M0 410h500v1H0z"/>&amp;quot;&amp;quot;<path class="style374" d="M0 411h500v1H0z"/>&amp;quot;&amp;quot;<path class="style375" d="M0 412h500v1H0z"/>&amp;quot;&amp;quot;<path class="style376" d="M0 413h500v1H0z"/>&amp;quot;&amp;quot;<path class="style377" d="M0 414h500v1H0z"/>&amp;quot;&amp;quot;<path class="style378" d="M0 415h500v1H0z"/>&amp;quot;&amp;quot;<path class="style379" d="M0 416h500v1H0z"/>&amp;quot;&amp;quot;<path class="style380" d="M0 417h500v1H0z"/>&amp;quot;&amp;quot;<path class="style381" d="M0 418h500v1H0z"/>&amp;quot;&amp;quot;<path class="style382" d="M0 419h500v1H0z"/>&amp;quot;&amp;quot;<path class="style383" d="M0 420h500v1H0z"/>&amp;quot;&amp;quot;<path class="style384" d="M0 421h500v1H0z"/>&amp;quot;&amp;quot;<path class="style385" d="M0 422h500v1H0z"/>&amp;quot;&amp;quot;<path class="style386" d="M0 423h500v1H0z"/>&amp;quot;&amp;quot;<path class="style387" d="M0 424h500v1H0z"/>&amp;quot;&amp;quot;<path class="style388" d="M0 425h500v1H0z"/>&amp;quot;&amp;quot;<path class="style389" d="M0 426h500v1H0z"/>&amp;quot;&amp;quot;<path class="style390" d="M0 427h500v1H0z"/>&amp;quot;&amp;quot;<path class="style391" d="M0 428h500v1H0z"/>&amp;quot;&amp;quot;<path class="style392" d="M0 429h500v1H0z"/>&amp;quot;&amp;quot;<path class="style384" d="M0 430h500v1H0z"/>&amp;quot;&amp;quot;<path class="style393" d="M0 431h500v1H0z"/>&amp;quot;&amp;quot;<path class="style394" d="M0 432h500v1H0z"/>&amp;quot;&amp;quot;<path class="style395" d="M0 433h500v1H0z"/>&amp;quot;&amp;quot;<path class="style396" d="M0 434h500v1H0z"/>&amp;quot;&amp;quot;<path class="style397" d="M0 435h500v1H0z"/>&amp;quot;&amp;quot;<path class="style398" d="M0 436h500v1H0z"/>&amp;quot;&amp;quot;<path class="style399" d="M0 437h500v1H0z"/>&amp;quot;&amp;quot;<path class="style400" d="M0 438h500v1H0z"/>&amp;quot;&amp;quot;<path class="style401" d="M0 439h500v1H0z"/>&amp;quot;&amp;quot;<path class="style402" d="M0 440h500v1H0z"/>&amp;quot;&amp;quot;<path class="style403" d="M0 441h500v1H0z"/>&amp;quot;&amp;quot;<path class="style404" d="M0 442h500v1H0z"/>&amp;quot;&amp;quot;<path class="style405" d="M0 443h500v1H0z"/>&amp;quot;&amp;quot;<path class="style406" d="M0 444h500v1H0z"/>&amp;quot;&amp;quot;<path class="style407" d="M0 445h500v1H0z"/>&amp;quot;&amp;quot;<path class="style408" d="M0 446h500v1H0z"/>&amp;quot;&amp;quot;<path class="style409" d="M0 447h500v1H0z"/>&amp;quot;&amp;quot;<path class="style410" d="M0 448h500v1H0z"/>&amp;quot;&amp;quot;<path class="style411" d="M0 449h500v1H0z"/>&amp;quot;&amp;quot;<path class="style412" d="M0 450h500v1H0z"/>&amp;quot;&amp;quot;<path class="style413" d="M0 451h500v1H0z"/>&amp;quot;&amp;quot;<path class="style414" d="M0 452h500v1H0z"/>&amp;quot;&amp;quot;<path class="style415" d="M0 453h500v1H0z"/>&amp;quot;&amp;quot;<path class="style416" d="M0 454h500v1H0z"/>&amp;quot;&amp;quot;<path class="style417" d="M0 455h500v1H0z"/>&amp;quot;&amp;quot;<path class="style418" d="M0 456h500v1H0z"/>&amp;quot;&amp;quot;<path class="style419" d="M0 457h500v1H0z"/>&amp;quot;&amp;quot;<path class="style420" d="M0 458h500v1H0z"/>&amp;quot;&amp;quot;<path class="style421" d="M0 459h500v1H0z"/>&amp;quot;&amp;quot;<path class="style406" d="M0 460h500v1H0z"/>&amp;quot;&amp;quot;<path class="style422" d="M0 461h500v1H0z"/>&amp;quot;&amp;quot;<path class="style423" d="M0 462h500v1H0z"/>&amp;quot;&amp;quot;<path class="style424" d="M0 463h500v1H0z"/>&amp;quot;&amp;quot;<path class="style425" d="M0 464h500v1H0z"/>&amp;quot;&amp;quot;<path class="style426" d="M0 465h500v1H0z"/>&amp;quot;&amp;quot;<path class="style427" d="M0 466h500v1H0z"/>&amp;quot;&amp;quot;<path class="style428" d="M0 467h500v1H0z"/>&amp;quot;&amp;quot;<path class="style429" d="M0 468h500v1H0z"/>&amp;quot;&amp;quot;<path class="style430" d="M0 469h500v1H0z"/>&amp;quot;&amp;quot;<path class="style431" d="M0 470h500v1H0z"/>&amp;quot;&amp;quot;<path class="style432" d="M0 471h500v1H0z"/>&amp;quot;&amp;quot;<path class="style433" d="M0 472h500v1H0z"/>&amp;quot;&amp;quot;<path class="style434" d="M0 473h500v1H0z"/>&amp;quot;&amp;quot;<path class="style435" d="M0 474h500v1H0z"/>&amp;quot;&amp;quot;<path class="style436" d="M0 475h500v1H0z"/>&amp;quot;&amp;quot;<path class="style437" d="M0 476h500v1H0z"/>&amp;quot;&amp;quot;<path class="style438" d="M0 477h500v1H0z"/>&amp;quot;&amp;quot;<path class="style439" d="M0 478h500v1H0z"/>&amp;quot;&amp;quot;<path class="style440" d="M0 479h500v1H0z"/>&amp;quot;&amp;quot;<path class="style441" d="M0 480h500v1H0z"/>&amp;quot;&amp;quot;<path class="style442" d="M0 481h500v1H0z"/>&amp;quot;&amp;quot;<path class="style443" d="M0 482h500v1H0z"/>&amp;quot;&amp;quot;<path class="style444" d="M0 483h500v1H0z"/>&amp;quot;&amp;quot;<path class="style445" d="M0 484h500v1H0z"/>&amp;quot;&amp;quot;<path class="style446" d="M0 485h500v1H0z"/>&amp;quot;&amp;quot;<path class="style447" d="M0 486h500v1H0z"/>&amp;quot;&amp;quot;<path class="style448" d="M0 487h500v1H0z"/>&amp;quot;&amp;quot;<path class="style449" d="M0 488h500v1H0z"/>&amp;quot;&amp;quot;<path class="style450" d="M0 489h500v1H0z"/>&amp;quot;&amp;quot;<path class="style451" d="M0 490h500v1H0z"/>&amp;quot;&amp;quot;<path class="style452" d="M0 491h500v1H0z"/>&amp;quot;&amp;quot;<path class="style310" d="M0 492h500v1H0z"/>&amp;quot;&amp;quot;<path class="style453" d="M0 493h500v1H0z"/>&amp;quot;&amp;quot;<path class="style454" d="M0 494h500v1H0z"/>&amp;quot;&amp;quot;<path class="style455" d="M0 495h500v1H0z"/>&amp;quot;&amp;quot;<path class="style456" d="M0 496h500v1H0z"/>&amp;quot;&amp;quot;<path class="style457" d="M0 497h500v1H0z"/>&amp;quot;&amp;quot;<path class="style458" d="M0 498h500v1H0z"/>&amp;quot;&amp;quot;<path class="style458" d="M0 499h500v1H0z"/>&amp;quot;&amp;quot;<path class="style373" d="M0 500h500v1H0z"/>&amp;quot;</svg>