<?xml version="1.0" encoding="utf-8"?>
<!-- Generator: Adobe Illustrator 16.0.0, SVG Export Plug-In . SVG Version: 6.00 Build 0)  -->
<!DOCTYPE svg PUBLIC "-//W3C//DTD SVG 1.1//EN" "http://www.w3.org/Graphics/SVG/1.1/DTD/svg11.dtd">
<svg version="1.1" id="Layer_1" xmlns="http://www.w3.org/2000/svg" xmlns:xlink="http://www.w3.org/1999/xlink" x="0px" y="0px"
	 width="500px" height="8px"  xml:space="preserve">


"<rect x="1" fill="rgba(187, 125, 131, 1)" width="1" height="8"/>"
"<rect x="2" fill="rgba(232, 186, 194, 1)" width="1" height="8"/>"
"<rect x="3" fill="rgba(255, 248, 255, 1)" width="1" height="8"/>"
"<rect x="4" fill="rgba(166, 154, 171, 1)" width="1" height="8"/>"
"<rect x="5" fill="rgba(129, 110, 133, 1)" width="1" height="8"/>"
"<rect x="6" fill="rgba(255, 250, 255, 1)" width="1" height="8"/>"
"<rect x="7" fill="rgba(168, 185, 218, 1)" width="1" height="8"/>"
"<rect x="8" fill="rgba(87, 109, 136, 1)" width="1" height="8"/>"
"<rect x="9" fill="rgba(231, 232, 245, 1)" width="1" height="8"/>"
"<rect x="10" fill="rgba(255, 254, 255, 1)" width="1" height="8"/>"
"<rect x="11" fill="rgba(253, 253, 251, 1)" width="1" height="8"/>"
"<rect x="12" fill="rgba(252, 255, 252, 1)" width="1" height="8"/>"
"<rect x="13" fill="rgba(254, 249, 255, 1)" width="1" height="8"/>"
"<rect x="14" fill="rgba(255, 254, 255, 1)" width="1" height="8"/>"
"<rect x="15" fill="rgba(250, 255, 254, 1)" width="1" height="8"/>"
"<rect x="16" fill="rgba(247, 255, 251, 1)" width="1" height="8"/>"
"<rect x="17" fill="rgba(254, 255, 253, 1)" width="1" height="8"/>"
"<rect x="18" fill="rgba(250, 254, 242, 1)" width="1" height="8"/>"
"<rect x="19" fill="rgba(254, 255, 235, 1)" width="1" height="8"/>"
"<rect x="20" fill="rgba(237, 241, 210, 1)" width="1" height="8"/>"
"<rect x="21" fill="rgba(241, 237, 213, 1)" width="1" height="8"/>"
"<rect x="22" fill="rgba(254, 255, 243, 1)" width="1" height="8"/>"
"<rect x="23" fill="rgba(255, 253, 255, 1)" width="1" height="8"/>"
"<rect x="24" fill="rgba(90, 88, 101, 1)" width="1" height="8"/>"
"<rect x="25" fill="rgba(251, 255, 255, 1)" width="1" height="8"/>"
"<rect x="26" fill="rgba(255, 248, 255, 1)" width="1" height="8"/>"
"<rect x="27" fill="rgba(255, 228, 255, 1)" width="1" height="8"/>"
"<rect x="28" fill="rgba(107, 28, 59, 1)" width="1" height="8"/>"
"<rect x="29" fill="rgba(255, 253, 251, 1)" width="1" height="8"/>"
"<rect x="30" fill="rgba(177, 190, 150, 1)" width="1" height="8"/>"
"<rect x="31" fill="rgba(202, 187, 101, 1)" width="1" height="8"/>"
"<rect x="32" fill="rgba(202, 187, 101, 1)" width="1" height="8"/>"
"<rect x="33" fill="rgba(252, 255, 191, 1)" width="1" height="8"/>"
"<rect x="34" fill="rgba(252, 255, 191, 1)" width="1" height="8"/>"
"<rect x="35" fill="rgba(232, 203, 133, 1)" width="1" height="8"/>"
"<rect x="36" fill="rgba(242, 192, 119, 1)" width="1" height="8"/>"
"<rect x="37" fill="rgba(229, 160, 80, 1)" width="1" height="8"/>"
"<rect x="38" fill="rgba(237, 119, 71, 1)" width="1" height="8"/>"
"<rect x="39" fill="rgba(187, 0, 6, 1)" width="1" height="8"/>"
"<rect x="40" fill="rgba(254, 44, 101, 1)" width="1" height="8"/>"
"<rect x="41" fill="rgba(255, 189, 191, 1)" width="1" height="8"/>"
"<rect x="42" fill="rgba(255, 189, 191, 1)" width="1" height="8"/>"
"<rect x="43" fill="rgba(158, 59, 79, 1)" width="1" height="8"/>"
"<rect x="44" fill="rgba(255, 209, 233, 1)" width="1" height="8"/>"
"<rect x="45" fill="rgba(196, 82, 103, 1)" width="1" height="8"/>"
"<rect x="46" fill="rgba(250, 147, 160, 1)" width="1" height="8"/>"
"<rect x="47" fill="rgba(255, 235, 250, 1)" width="1" height="8"/>"
"<rect x="48" fill="rgba(206, 168, 169, 1)" width="1" height="8"/>"
"<rect x="49" fill="rgba(199, 197, 169, 1)" width="1" height="8"/>"
"<rect x="50" fill="rgba(253, 255, 221, 1)" width="1" height="8"/>"
"<rect x="51" fill="rgba(122, 96, 70, 1)" width="1" height="8"/>"
"<rect x="52" fill="rgba(240, 156, 151, 1)" width="1" height="8"/>"
"<rect x="53" fill="rgba(196, 0, 48, 1)" width="1" height="8"/>"
"<rect x="54" fill="rgba(209, 0, 32, 1)" width="1" height="8"/>"
"<rect x="55" fill="rgba(241, 118, 84, 1)" width="1" height="8"/>"
"<rect x="56" fill="rgba(255, 199, 171, 1)" width="1" height="8"/>"
"<rect x="57" fill="rgba(184, 0, 50, 1)" width="1" height="8"/>"
"<rect x="58" fill="rgba(216, 0, 98, 1)" width="1" height="8"/>"
"<rect x="59" fill="rgba(242, 105, 142, 1)" width="1" height="8"/>"
"<rect x="60" fill="rgba(211, 101, 131, 1)" width="1" height="8"/>"
"<rect x="61" fill="rgba(216, 109, 153, 1)" width="1" height="8"/>"
"<rect x="62" fill="rgba(173, 63, 116, 1)" width="1" height="8"/>"
"<rect x="63" fill="rgba(138, 0, 74, 1)" width="1" height="8"/>"
"<rect x="64" fill="rgba(255, 172, 217, 1)" width="1" height="8"/>"
"<rect x="65" fill="rgba(166, 85, 112, 1)" width="1" height="8"/>"
"<rect x="66" fill="rgba(137, 111, 108, 1)" width="1" height="8"/>"
"<rect x="67" fill="rgba(151, 195, 163, 1)" width="1" height="8"/>"
"<rect x="68" fill="rgba(212, 255, 217, 1)" width="1" height="8"/>"
"<rect x="69" fill="rgba(207, 176, 151, 1)" width="1" height="8"/>"
"<rect x="70" fill="rgba(153, 118, 76, 1)" width="1" height="8"/>"
"<rect x="71" fill="rgba(196, 229, 145, 1)" width="1" height="8"/>"
"<rect x="72" fill="rgba(142, 214, 108, 1)" width="1" height="8"/>"
"<rect x="73" fill="rgba(109, 182, 81, 1)" width="1" height="8"/>"
"<rect x="74" fill="rgba(144, 221, 129, 1)" width="1" height="8"/>"
"<rect x="75" fill="rgba(136, 210, 144, 1)" width="1" height="8"/>"
"<rect x="76" fill="rgba(171, 238, 173, 1)" width="1" height="8"/>"
"<rect x="77" fill="rgba(126, 178, 96, 1)" width="1" height="8"/>"
"<rect x="78" fill="rgba(234, 255, 196, 1)" width="1" height="8"/>"
"<rect x="79" fill="rgba(253, 255, 241, 1)" width="1" height="8"/>"
"<rect x="80" fill="rgba(254, 251, 252, 1)" width="1" height="8"/>"
"<rect x="81" fill="rgba(255, 254, 250, 1)" width="1" height="8"/>"
"<rect x="82" fill="rgba(252, 254, 249, 1)" width="1" height="8"/>"
"<rect x="83" fill="rgba(255, 255, 255, 1)" width="1" height="8"/>"
"<rect x="84" fill="rgba(252, 253, 255, 1)" width="1" height="8"/>"
"<rect x="85" fill="rgba(254, 254, 255, 1)" width="1" height="8"/>"
"<rect x="86" fill="rgba(255, 243, 248, 1)" width="1" height="8"/>"
"<rect x="87" fill="rgba(203, 67, 79, 1)" width="1" height="8"/>"
"<rect x="88" fill="rgba(196, 60, 80, 1)" width="1" height="8"/>"
"<rect x="89" fill="rgba(226, 184, 203, 1)" width="1" height="8"/>"
"<rect x="90" fill="rgba(221, 202, 222, 1)" width="1" height="8"/>"
"<rect x="91" fill="rgba(138, 77, 94, 1)" width="1" height="8"/>"
"<rect x="92" fill="rgba(155, 125, 134, 1)" width="1" height="8"/>"
"<rect x="93" fill="rgba(153, 228, 232, 1)" width="1" height="8"/>"
"<rect x="94" fill="rgba(75, 165, 171, 1)" width="1" height="8"/>"
"<rect x="95" fill="rgba(121, 112, 136, 1)" width="1" height="8"/>"
"<rect x="96" fill="rgba(240, 190, 220, 1)" width="1" height="8"/>"
"<rect x="97" fill="rgba(129, 81, 113, 1)" width="1" height="8"/>"
"<rect x="98" fill="rgba(189, 152, 186, 1)" width="1" height="8"/>"
"<rect x="99" fill="rgba(209, 195, 232, 1)" width="1" height="8"/>"
"<rect x="100" fill="rgba(66, 45, 77, 1)" width="1" height="8"/>"
"<rect x="101" fill="rgba(198, 141, 162, 1)" width="1" height="8"/>"
"<rect x="102" fill="rgba(255, 224, 242, 1)" width="1" height="8"/>"
"<rect x="103" fill="rgba(102, 0, 41, 1)" width="1" height="8"/>"
"<rect x="104" fill="rgba(238, 123, 172, 1)" width="1" height="8"/>"
"<rect x="105" fill="rgba(148, 0, 77, 1)" width="1" height="8"/>"
"<rect x="106" fill="rgba(247, 82, 151, 1)" width="1" height="8"/>"
"<rect x="107" fill="rgba(201, 0, 71, 1)" width="1" height="8"/>"
"<rect x="108" fill="rgba(189, 0, 59, 1)" width="1" height="8"/>"
"<rect x="109" fill="rgba(255, 177, 179, 1)" width="1" height="8"/>"
"<rect x="110" fill="rgba(255, 231, 207, 1)" width="1" height="8"/>"
"<rect x="111" fill="rgba(187, 150, 107, 1)" width="1" height="8"/>"
"<rect x="112" fill="rgba(255, 246, 196, 1)" width="1" height="8"/>"
"<rect x="113" fill="rgba(255, 236, 193, 1)" width="1" height="8"/>"
"<rect x="114" fill="rgba(241, 212, 180, 1)" width="1" height="8"/>"
"<rect x="115" fill="rgba(255, 216, 199, 1)" width="1" height="8"/>"
"<rect x="116" fill="rgba(149, 96, 79, 1)" width="1" height="8"/>"
"<rect x="117" fill="rgba(255, 243, 220, 1)" width="1" height="8"/>"
"<rect x="118" fill="rgba(230, 179, 144, 1)" width="1" height="8"/>"
"<rect x="119" fill="rgba(255, 192, 147, 1)" width="1" height="8"/>"
"<rect x="120" fill="rgba(198, 125, 59, 1)" width="1" height="8"/>"
"<rect x="121" fill="rgba(243, 191, 103, 1)" width="1" height="8"/>"
"<rect x="122" fill="rgba(228, 193, 79, 1)" width="1" height="8"/>"
"<rect x="123" fill="rgba(253, 248, 114, 1)" width="1" height="8"/>"
"<rect x="124" fill="rgba(207, 169, 0, 1)" width="1" height="8"/>"
"<rect x="125" fill="rgba(255, 203, 29, 1)" width="1" height="8"/>"
"<rect x="126" fill="rgba(226, 162, 0, 1)" width="1" height="8"/>"
"<rect x="127" fill="rgba(242, 185, 0, 1)" width="1" height="8"/>"
"<rect x="128" fill="rgba(255, 214, 94, 1)" width="1" height="8"/>"
"<rect x="129" fill="rgba(225, 155, 113, 1)" width="1" height="8"/>"
"<rect x="130" fill="rgba(187, 150, 107, 1)" width="1" height="8"/>"
"<rect x="131" fill="rgba(185, 140, 139, 1)" width="1" height="8"/>"
"<rect x="132" fill="rgba(204, 187, 177, 1)" width="1" height="8"/>"
"<rect x="133" fill="rgba(46, 89, 105, 1)" width="1" height="8"/>"
"<rect x="134" fill="rgba(82, 150, 161, 1)" width="1" height="8"/>"
"<rect x="135" fill="rgba(138, 182, 164, 1)" width="1" height="8"/>"
"<rect x="136" fill="rgba(155, 171, 145, 1)" width="1" height="8"/>"
"<rect x="137" fill="rgba(134, 111, 107, 1)" width="1" height="8"/>"
"<rect x="138" fill="rgba(161, 124, 127, 1)" width="1" height="8"/>"
"<rect x="139" fill="rgba(228, 192, 188, 1)" width="1" height="8"/>"
"<rect x="140" fill="rgba(185, 140, 139, 1)" width="1" height="8"/>"
"<rect x="141" fill="rgba(151, 74, 88, 1)" width="1" height="8"/>"
"<rect x="142" fill="rgba(255, 238, 242, 1)" width="1" height="8"/>"
"<rect x="143" fill="rgba(233, 216, 190, 1)" width="1" height="8"/>"
"<rect x="144" fill="rgba(204, 204, 166, 1)" width="1" height="8"/>"
"<rect x="145" fill="rgba(160, 149, 114, 1)" width="1" height="8"/>"
"<rect x="146" fill="rgba(219, 222, 176, 1)" width="1" height="8"/>"
"<rect x="147" fill="rgba(189, 224, 162, 1)" width="1" height="8"/>"
"<rect x="148" fill="rgba(179, 220, 170, 1)" width="1" height="8"/>"
"<rect x="149" fill="rgba(250, 255, 255, 1)" width="1" height="8"/>"
"<rect x="150" fill="rgba(146, 144, 157, 1)" width="1" height="8"/>"
"<rect x="151" fill="rgba(218, 223, 224, 1)" width="1" height="8"/>"
"<rect x="152" fill="rgba(251, 255, 253, 1)" width="1" height="8"/>"
"<rect x="153" fill="rgba(254, 254, 252, 1)" width="1" height="8"/>"
"<rect x="154" fill="rgba(254, 254, 252, 1)" width="1" height="8"/>"
"<rect x="155" fill="rgba(254, 255, 255, 1)" width="1" height="8"/>"
"<rect x="156" fill="rgba(254, 255, 255, 1)" width="1" height="8"/>"
"<rect x="157" fill="rgba(255, 254, 252, 1)" width="1" height="8"/>"
"<rect x="158" fill="rgba(255, 254, 252, 1)" width="1" height="8"/>"
"<rect x="159" fill="rgba(251, 255, 253, 1)" width="1" height="8"/>"
"<rect x="160" fill="rgba(255, 255, 255, 1)" width="1" height="8"/>"
"<rect x="161" fill="rgba(255, 255, 255, 1)" width="1" height="8"/>"
"<rect x="162" fill="rgba(255, 255, 255, 1)" width="1" height="8"/>"
"<rect x="163" fill="rgba(255, 255, 255, 1)" width="1" height="8"/>"
"<rect x="164" fill="rgba(255, 255, 255, 1)" width="1" height="8"/>"
"<rect x="165" fill="rgba(255, 255, 255, 1)" width="1" height="8"/>"
"<rect x="166" fill="rgba(255, 255, 255, 1)" width="1" height="8"/>"
"<rect x="167" fill="rgba(255, 255, 255, 1)" width="1" height="8"/>"
"<rect x="168" fill="rgba(255, 255, 255, 1)" width="1" height="8"/>"
"<rect x="169" fill="rgba(255, 255, 255, 1)" width="1" height="8"/>"
"<rect x="170" fill="rgba(255, 255, 255, 1)" width="1" height="8"/>"
"<rect x="171" fill="rgba(255, 255, 255, 1)" width="1" height="8"/>"
"<rect x="172" fill="rgba(255, 255, 255, 1)" width="1" height="8"/>"
"<rect x="173" fill="rgba(255, 255, 255, 1)" width="1" height="8"/>"
"<rect x="174" fill="rgba(254, 254, 254, 1)" width="1" height="8"/>"
"<rect x="175" fill="rgba(254, 254, 254, 1)" width="1" height="8"/>"
"<rect x="176" fill="rgba(254, 254, 254, 1)" width="1" height="8"/>"
"<rect x="177" fill="rgba(251, 254, 251, 1)" width="1" height="8"/>"
"<rect x="178" fill="rgba(255, 252, 245, 1)" width="1" height="8"/>"
"<rect x="179" fill="rgba(249, 203, 194, 1)" width="1" height="8"/>"
"<rect x="180" fill="rgba(195, 153, 132, 1)" width="1" height="8"/>"
"<rect x="181" fill="rgba(254, 255, 226, 1)" width="1" height="8"/>"
"<rect x="182" fill="rgba(255, 230, 214, 1)" width="1" height="8"/>"
"<rect x="183" fill="rgba(255, 227, 254, 1)" width="1" height="8"/>"
"<rect x="184" fill="rgba(132, 18, 55, 1)" width="1" height="8"/>"
"<rect x="185" fill="rgba(239, 148, 137, 1)" width="1" height="8"/>"
"<rect x="186" fill="rgba(208, 140, 103, 1)" width="1" height="8"/>"
"<rect x="187" fill="rgba(255, 231, 186, 1)" width="1" height="8"/>"
"<rect x="188" fill="rgba(180, 157, 81, 1)" width="1" height="8"/>"
"<rect x="189" fill="rgba(227, 229, 99, 1)" width="1" height="8"/>"
"<rect x="190" fill="rgba(254, 254, 254, 1)" width="1" height="8"/>"
"<rect x="191" fill="rgba(156, 177, 55, 1)" width="1" height="8"/>"
"<rect x="192" fill="rgba(237, 222, 143, 1)" width="1" height="8"/>"
"<rect x="193" fill="rgba(176, 85, 67, 1)" width="1" height="8"/>"
"<rect x="194" fill="rgba(248, 152, 136, 1)" width="1" height="8"/>"
"<rect x="195" fill="rgba(255, 225, 153, 1)" width="1" height="8"/>"
"<rect x="196" fill="rgba(156, 146, 68, 1)" width="1" height="8"/>"
"<rect x="197" fill="rgba(176, 147, 123, 1)" width="1" height="8"/>"
"<rect x="198" fill="rgba(178, 154, 147, 1)" width="1" height="8"/>"
"<rect x="199" fill="rgba(254, 255, 238, 1)" width="1" height="8"/>"
"<rect x="200" fill="rgba(154, 201, 180, 1)" width="1" height="8"/>"
"<rect x="201" fill="rgba(96, 206, 200, 1)" width="1" height="8"/>"
"<rect x="202" fill="rgba(105, 211, 208, 1)" width="1" height="8"/>"
"<rect x="203" fill="rgba(134, 163, 155, 1)" width="1" height="8"/>"
"<rect x="204" fill="rgba(176, 189, 163, 1)" width="1" height="8"/>"
"<rect x="205" fill="rgba(194, 239, 180, 1)" width="1" height="8"/>"
"<rect x="206" fill="rgba(138, 192, 125, 1)" width="1" height="8"/>"
"<rect x="207" fill="rgba(237, 255, 210, 1)" width="1" height="8"/>"
"<rect x="208" fill="rgba(176, 211, 148, 1)" width="1" height="8"/>"
"<rect x="209" fill="rgba(171, 231, 143, 1)" width="1" height="8"/>"
"<rect x="210" fill="rgba(86, 168, 65, 1)" width="1" height="8"/>"
"<rect x="211" fill="rgba(163, 249, 145, 1)" width="1" height="8"/>"
"<rect x="212" fill="rgba(80, 170, 68, 1)" width="1" height="8"/>"
"<rect x="213" fill="rgba(128, 207, 109, 1)" width="1" height="8"/>"
"<rect x="214" fill="rgba(180, 253, 154, 1)" width="1" height="8"/>"
"<rect x="215" fill="rgba(116, 190, 91, 1)" width="1" height="8"/>"
"<rect x="216" fill="rgba(126, 210, 101, 1)" width="1" height="8"/>"
"<rect x="217" fill="rgba(87, 191, 71, 1)" width="1" height="8"/>"
"<rect x="218" fill="rgba(133, 192, 85, 1)" width="1" height="8"/>"
"<rect x="219" fill="rgba(241, 215, 144, 1)" width="1" height="8"/>"
"<rect x="220" fill="rgba(114, 70, 43, 1)" width="1" height="8"/>"
"<rect x="221" fill="rgba(106, 115, 127, 1)" width="1" height="8"/>"
"<rect x="222" fill="rgba(97, 98, 128, 1)" width="1" height="8"/>"
"<rect x="223" fill="rgba(149, 82, 112, 1)" width="1" height="8"/>"
"<rect x="224" fill="rgba(185, 133, 160, 1)" width="1" height="8"/>"
"<rect x="225" fill="rgba(86, 130, 158, 1)" width="1" height="8"/>"
"<rect x="226" fill="rgba(73, 104, 133, 1)" width="1" height="8"/>"
"<rect x="227" fill="rgba(208, 123, 161, 1)" width="1" height="8"/>"
"<rect x="228" fill="rgba(204, 99, 134, 1)" width="1" height="8"/>"
"<rect x="229" fill="rgba(165, 126, 152, 1)" width="1" height="8"/>"
"<rect x="230" fill="rgba(86, 77, 99, 1)" width="1" height="8"/>"
"<rect x="231" fill="rgba(255, 246, 255, 1)" width="1" height="8"/>"
"<rect x="232" fill="rgba(158, 146, 150, 1)" width="1" height="8"/>"
"<rect x="233" fill="rgba(119, 154, 135, 1)" width="1" height="8"/>"
"<rect x="234" fill="rgba(228, 255, 241, 1)" width="1" height="8"/>"
"<rect x="235" fill="rgba(245, 255, 239, 1)" width="1" height="8"/>"
"<rect x="236" fill="rgba(127, 137, 112, 1)" width="1" height="8"/>"
"<rect x="237" fill="rgba(98, 106, 99, 1)" width="1" height="8"/>"
"<rect x="238" fill="rgba(248, 243, 244, 1)" width="1" height="8"/>"
"<rect x="239" fill="rgba(124, 99, 106, 1)" width="1" height="8"/>"
"<rect x="240" fill="rgba(255, 243, 255, 1)" width="1" height="8"/>"
"<rect x="241" fill="rgba(255, 243, 255, 1)" width="1" height="8"/>"
"<rect x="242" fill="rgba(157, 96, 109, 1)" width="1" height="8"/>"
"<rect x="243" fill="rgba(255, 196, 201, 1)" width="1" height="8"/>"
"<rect x="244" fill="rgba(203, 153, 142, 1)" width="1" height="8"/>"
"<rect x="245" fill="rgba(180, 169, 147, 1)" width="1" height="8"/>"
"<rect x="246" fill="rgba(196, 195, 178, 1)" width="1" height="8"/>"
"<rect x="247" fill="rgba(175, 158, 170, 1)" width="1" height="8"/>"
"<rect x="248" fill="rgba(213, 210, 227, 1)" width="1" height="8"/>"
"<rect x="249" fill="rgba(99, 154, 160, 1)" width="1" height="8"/>"
"<rect x="250" fill="rgba(191, 250, 239, 1)" width="1" height="8"/>"
"<rect x="251" fill="rgba(189, 190, 170, 1)" width="1" height="8"/>"
"<rect x="252" fill="rgba(106, 122, 96, 1)" width="1" height="8"/>"
"<rect x="253" fill="rgba(69, 175, 154, 1)" width="1" height="8"/>"
"<rect x="254" fill="rgba(154, 255, 251, 1)" width="1" height="8"/>"
"<rect x="255" fill="rgba(121, 165, 174, 1)" width="1" height="8"/>"
"<rect x="256" fill="rgba(171, 198, 203, 1)" width="1" height="8"/>"
"<rect x="257" fill="rgba(103, 150, 137, 1)" width="1" height="8"/>"
"<rect x="258" fill="rgba(117, 197, 182, 1)" width="1" height="8"/>"
"<rect x="259" fill="rgba(99, 212, 223, 1)" width="1" height="8"/>"
"<rect x="260" fill="rgba(16, 176, 191, 1)" width="1" height="8"/>"
"<rect x="261" fill="rgba(38, 181, 182, 1)" width="1" height="8"/>"
"<rect x="262" fill="rgba(20, 200, 206, 1)" width="1" height="8"/>"
"<rect x="263" fill="rgba(0, 181, 211, 1)" width="1" height="8"/>"
"<rect x="264" fill="rgba(0, 192, 232, 1)" width="1" height="8"/>"
"<rect x="265" fill="rgba(0, 162, 201, 1)" width="1" height="8"/>"
"<rect x="266" fill="rgba(0, 176, 215, 1)" width="1" height="8"/>"
"<rect x="267" fill="rgba(0, 189, 238, 1)" width="1" height="8"/>"
"<rect x="268" fill="rgba(0, 127, 151, 1)" width="1" height="8"/>"
"<rect x="269" fill="rgba(62, 169, 147, 1)" width="1" height="8"/>"
"<rect x="270" fill="rgba(215, 252, 192, 1)" width="1" height="8"/>"
"<rect x="271" fill="rgba(251, 217, 134, 1)" width="1" height="8"/>"
"<rect x="272" fill="rgba(198, 158, 57, 1)" width="1" height="8"/>"
"<rect x="273" fill="rgba(170, 176, 81, 1)" width="1" height="8"/>"
"<rect x="274" fill="rgba(247, 254, 183, 1)" width="1" height="8"/>"
"<rect x="275" fill="rgba(232, 188, 164, 1)" width="1" height="8"/>"
"<rect x="276" fill="rgba(219, 153, 136, 1)" width="1" height="8"/>"
"<rect x="277" fill="rgba(168, 99, 47, 1)" width="1" height="8"/>"
"<rect x="278" fill="rgba(220, 154, 97, 1)" width="1" height="8"/>"
"<rect x="279" fill="rgba(137, 72, 32, 1)" width="1" height="8"/>"
"<rect x="280" fill="rgba(167, 125, 92, 1)" width="1" height="8"/>"
"<rect x="281" fill="rgba(139, 148, 98, 1)" width="1" height="8"/>"
"<rect x="282" fill="rgba(79, 137, 81, 1)" width="1" height="8"/>"
"<rect x="283" fill="rgba(73, 173, 121, 1)" width="1" height="8"/>"
"<rect x="284" fill="rgba(0, 125, 68, 1)" width="1" height="8"/>"
"<rect x="285" fill="rgba(161, 255, 189, 1)" width="1" height="8"/>"
"<rect x="286" fill="rgba(16, 146, 79, 1)" width="1" height="8"/>"
"<rect x="287" fill="rgba(84, 215, 168, 1)" width="1" height="8"/>"
"<rect x="288" fill="rgba(139, 148, 98, 1)" width="1" height="8"/>"
"<rect x="289" fill="rgba(136, 89, 104, 1)" width="1" height="8"/>"
"<rect x="290" fill="rgba(229, 125, 154, 1)" width="1" height="8"/>"
"<rect x="291" fill="rgba(147, 22, 54, 1)" width="1" height="8"/>"
"<rect x="292" fill="rgba(255, 171, 178, 1)" width="1" height="8"/>"
"<rect x="293" fill="rgba(228, 219, 207, 1)" width="1" height="8"/>"
"<rect x="294" fill="rgba(148, 141, 123, 1)" width="1" height="8"/>"
"<rect x="295" fill="rgba(206, 120, 121, 1)" width="1" height="8"/>"
"<rect x="296" fill="rgba(225, 119, 122, 1)" width="1" height="8"/>"
"<rect x="297" fill="rgba(255, 226, 224, 1)" width="1" height="8"/>"
"<rect x="298" fill="rgba(167, 91, 93, 1)" width="1" height="8"/>"
"<rect x="299" fill="rgba(229, 117, 139, 1)" width="1" height="8"/>"
"<rect x="300" fill="rgba(255, 127, 161, 1)" width="1" height="8"/>"
"<rect x="301" fill="rgba(198, 0, 63, 1)" width="1" height="8"/>"
"<rect x="302" fill="rgba(229, 42, 94, 1)" width="1" height="8"/>"
"<rect x="303" fill="rgba(214, 69, 108, 1)" width="1" height="8"/>"
"<rect x="304" fill="rgba(255, 158, 179, 1)" width="1" height="8"/>"
"<rect x="305" fill="rgba(255, 234, 240, 1)" width="1" height="8"/>"
"<rect x="306" fill="rgba(178, 94, 99, 1)" width="1" height="8"/>"
"<rect x="307" fill="rgba(174, 32, 60, 1)" width="1" height="8"/>"
"<rect x="308" fill="rgba(255, 163, 188, 1)" width="1" height="8"/>"
"<rect x="309" fill="rgba(195, 135, 167, 1)" width="1" height="8"/>"
"<rect x="310" fill="rgba(155, 96, 128, 1)" width="1" height="8"/>"
"<rect x="311" fill="rgba(160, 19, 68, 1)" width="1" height="8"/>"
"<rect x="312" fill="rgba(251, 121, 155, 1)" width="1" height="8"/>"
"<rect x="313" fill="rgba(255, 221, 246, 1)" width="1" height="8"/>"
"<rect x="314" fill="rgba(144, 105, 131, 1)" width="1" height="8"/>"
"<rect x="315" fill="rgba(208, 150, 179, 1)" width="1" height="8"/>"
"<rect x="316" fill="rgba(170, 132, 154, 1)" width="1" height="8"/>"
"<rect x="317" fill="rgba(234, 254, 255, 1)" width="1" height="8"/>"
"<rect x="318" fill="rgba(196, 205, 216, 1)" width="1" height="8"/>"
"<rect x="319" fill="rgba(186, 121, 147, 1)" width="1" height="8"/>"
"<rect x="320" fill="rgba(190, 144, 180, 1)" width="1" height="8"/>"
"<rect x="321" fill="rgba(103, 179, 216, 1)" width="1" height="8"/>"
"<rect x="322" fill="rgba(63, 152, 181, 1)" width="1" height="8"/>"
"<rect x="323" fill="rgba(176, 151, 170, 1)" width="1" height="8"/>"
"<rect x="324" fill="rgba(186, 146, 158, 1)" width="1" height="8"/>"
"<rect x="325" fill="rgba(152, 179, 193, 1)" width="1" height="8"/>"
"<rect x="326" fill="rgba(209, 255, 255, 1)" width="1" height="8"/>"
"<rect x="327" fill="rgba(229, 255, 255, 1)" width="1" height="8"/>"
"<rect x="328" fill="rgba(226, 249, 253, 1)" width="1" height="8"/>"
"<rect x="329" fill="rgba(179, 177, 198, 1)" width="1" height="8"/>"
"<rect x="330" fill="rgba(179, 159, 176, 1)" width="1" height="8"/>"
"<rect x="331" fill="rgba(255, 242, 250, 1)" width="1" height="8"/>"
"<rect x="332" fill="rgba(171, 130, 125, 1)" width="1" height="8"/>"
"<rect x="333" fill="rgba(255, 253, 237, 1)" width="1" height="8"/>"
"<rect x="334" fill="rgba(255, 251, 240, 1)" width="1" height="8"/>"
"<rect x="335" fill="rgba(160, 135, 142, 1)" width="1" height="8"/>"
"<rect x="336" fill="rgba(255, 248, 251, 1)" width="1" height="8"/>"
"<rect x="337" fill="rgba(250, 239, 217, 1)" width="1" height="8"/>"
"<rect x="338" fill="rgba(254, 255, 229, 1)" width="1" height="8"/>"
"<rect x="339" fill="rgba(255, 255, 253, 1)" width="1" height="8"/>"
"<rect x="340" fill="rgba(249, 254, 255, 1)" width="1" height="8"/>"
"<rect x="341" fill="rgba(253, 253, 251, 1)" width="1" height="8"/>"
"<rect x="342" fill="rgba(253, 255, 250, 1)" width="1" height="8"/>"
"<rect x="343" fill="rgba(254, 253, 251, 1)" width="1" height="8"/>"
"<rect x="344" fill="rgba(254, 254, 254, 1)" width="1" height="8"/>"
"<rect x="345" fill="rgba(253, 253, 255, 1)" width="1" height="8"/>"
"<rect x="346" fill="rgba(254, 255, 255, 1)" width="1" height="8"/>"
"<rect x="347" fill="rgba(255, 253, 254, 1)" width="1" height="8"/>"
"<rect x="348" fill="rgba(255, 242, 248, 1)" width="1" height="8"/>"
"<rect x="349" fill="rgba(120, 0, 31, 1)" width="1" height="8"/>"
"<rect x="350" fill="rgba(253, 132, 158, 1)" width="1" height="8"/>"
"<rect x="351" fill="rgba(255, 190, 217, 1)" width="1" height="8"/>"
"<rect x="352" fill="rgba(133, 101, 128, 1)" width="1" height="8"/>"
"<rect x="353" fill="rgba(146, 127, 154, 1)" width="1" height="8"/>"
"<rect x="354" fill="rgba(120, 132, 158, 1)" width="1" height="8"/>"
"<rect x="355" fill="rgba(166, 229, 255, 1)" width="1" height="8"/>"
"<rect x="356" fill="rgba(36, 101, 126, 1)" width="1" height="8"/>"
"<rect x="357" fill="rgba(205, 201, 228, 1)" width="1" height="8"/>"
"<rect x="358" fill="rgba(152, 131, 159, 1)" width="1" height="8"/>"
"<rect x="359" fill="rgba(163, 154, 196, 1)" width="1" height="8"/>"
"<rect x="360" fill="rgba(159, 168, 215, 1)" width="1" height="8"/>"
"<rect x="361" fill="rgba(100, 123, 174, 1)" width="1" height="8"/>"
"<rect x="362" fill="rgba(166, 160, 211, 1)" width="1" height="8"/>"
"<rect x="363" fill="rgba(188, 109, 157, 1)" width="1" height="8"/>"
"<rect x="364" fill="rgba(255, 161, 205, 1)" width="1" height="8"/>"
"<rect x="365" fill="rgba(183, 102, 146, 1)" width="1" height="8"/>"
"<rect x="366" fill="rgba(155, 72, 129, 1)" width="1" height="8"/>"
"<rect x="367" fill="rgba(149, 31, 121, 1)" width="1" height="8"/>"
"<rect x="368" fill="rgba(182, 19, 131, 1)" width="1" height="8"/>"
"<rect x="369" fill="rgba(227, 9, 133, 1)" width="1" height="8"/>"
"<rect x="370" fill="rgba(165, 0, 80, 1)" width="1" height="8"/>"
"<rect x="371" fill="rgba(239, 194, 214, 1)" width="1" height="8"/>"
"<rect x="372" fill="rgba(176, 176, 140, 1)" width="1" height="8"/>"
"<rect x="373" fill="rgba(232, 202, 94, 1)" width="1" height="8"/>"
"<rect x="374" fill="rgba(255, 211, 72, 1)" width="1" height="8"/>"
"<rect x="375" fill="rgba(204, 163, 33, 1)" width="1" height="8"/>"
"<rect x="376" fill="rgba(254, 246, 130, 1)" width="1" height="8"/>"
"<rect x="377" fill="rgba(254, 246, 130, 1)" width="1" height="8"/>"
"<rect x="378" fill="rgba(253, 239, 125, 1)" width="1" height="8"/>"
"<rect x="379" fill="rgba(255, 206, 108, 1)" width="1" height="8"/>"
"<rect x="380" fill="rgba(255, 161, 205, 1)" width="1" height="8"/>"
"<rect x="381" fill="rgba(255, 240, 185, 1)" width="1" height="8"/>"
"<rect x="382" fill="rgba(164, 118, 82, 1)" width="1" height="8"/>"
"<rect x="383" fill="rgba(255, 250, 233, 1)" width="1" height="8"/>"
"<rect x="384" fill="rgba(254, 254, 224, 1)" width="1" height="8"/>"
"<rect x="385" fill="rgba(242, 178, 102, 1)" width="1" height="8"/>"
"<rect x="386" fill="rgba(209, 143, 57, 1)" width="1" height="8"/>"
"<rect x="387" fill="rgba(255, 249, 196, 1)" width="1" height="8"/>"
"<rect x="388" fill="rgba(254, 255, 232, 1)" width="1" height="8"/>"
"<rect x="389" fill="rgba(255, 252, 249, 1)" width="1" height="8"/>"
"<rect x="390" fill="rgba(251, 255, 255, 1)" width="1" height="8"/>"
"<rect x="391" fill="rgba(94, 127, 103, 1)" width="1" height="8"/>"
"<rect x="392" fill="rgba(229, 255, 222, 1)" width="1" height="8"/>"
"<rect x="393" fill="rgba(106, 174, 84, 1)" width="1" height="8"/>"
"<rect x="394" fill="rgba(154, 224, 123, 1)" width="1" height="8"/>"
"<rect x="395" fill="rgba(137, 197, 111, 1)" width="1" height="8"/>"
"<rect x="396" fill="rgba(179, 255, 172, 1)" width="1" height="8"/>"
"<rect x="397" fill="rgba(0, 148, 50, 1)" width="1" height="8"/>"
"<rect x="398" fill="rgba(61, 214, 100, 1)" width="1" height="8"/>"
"<rect x="399" fill="rgba(80, 200, 73, 1)" width="1" height="8"/>"
"<rect x="400" fill="rgba(86, 195, 59, 1)" width="1" height="8"/>"
"<rect x="401" fill="rgba(91, 200, 62, 1)" width="1" height="8"/>"
"<rect x="402" fill="rgba(90, 180, 57, 1)" width="1" height="8"/>"
"<rect x="403" fill="rgba(183, 240, 152, 1)" width="1" height="8"/>"
"<rect x="404" fill="rgba(196, 254, 172, 1)" width="1" height="8"/>"
"<rect x="405" fill="rgba(89, 189, 85, 1)" width="1" height="8"/>"
"<rect x="406" fill="rgba(64, 178, 65, 1)" width="1" height="8"/>"
"<rect x="407" fill="rgba(155, 245, 136, 1)" width="1" height="8"/>"
"<rect x="408" fill="rgba(103, 178, 101, 1)" width="1" height="8"/>"
"<rect x="409" fill="rgba(147, 211, 187, 1)" width="1" height="8"/>"
"<rect x="410" fill="rgba(210, 255, 255, 1)" width="1" height="8"/>"
"<rect x="411" fill="rgba(158, 199, 177, 1)" width="1" height="8"/>"
"<rect x="412" fill="rgba(200, 255, 224, 1)" width="1" height="8"/>"
"<rect x="413" fill="rgba(0, 114, 88, 1)" width="1" height="8"/>"
"<rect x="414" fill="rgba(122, 226, 188, 1)" width="1" height="8"/>"
"<rect x="415" fill="rgba(173, 232, 165, 1)" width="1" height="8"/>"
"<rect x="416" fill="rgba(189, 234, 166, 1)" width="1" height="8"/>"
"<rect x="417" fill="rgba(87, 146, 103, 1)" width="1" height="8"/>"
"<rect x="418" fill="rgba(221, 255, 232, 1)" width="1" height="8"/>"
"<rect x="419" fill="rgba(177, 224, 165, 1)" width="1" height="8"/>"
"<rect x="420" fill="rgba(183, 226, 156, 1)" width="1" height="8"/>"
"<rect x="421" fill="rgba(186, 140, 128, 1)" width="1" height="8"/>"
"<rect x="422" fill="rgba(243, 255, 218, 1)" width="1" height="8"/>"
"<rect x="423" fill="rgba(253, 255, 227, 1)" width="1" height="8"/>"
"<rect x="424" fill="rgba(199, 202, 175, 1)" width="1" height="8"/>"
"<rect x="425" fill="rgba(84, 113, 82, 1)" width="1" height="8"/>"
"<rect x="426" fill="rgba(152, 185, 159, 1)" width="1" height="8"/>"
"<rect x="427" fill="rgba(98, 116, 100, 1)" width="1" height="8"/>"
"<rect x="428" fill="rgba(254, 251, 242, 1)" width="1" height="8"/>"
"<rect x="429" fill="rgba(255, 248, 237, 1)" width="1" height="8"/>"
"<rect x="430" fill="rgba(186, 140, 128, 1)" width="1" height="8"/>"
"<rect x="431" fill="rgba(242, 188, 174, 1)" width="1" height="8"/>"
"<rect x="432" fill="rgba(203, 163, 147, 1)" width="1" height="8"/>"
"<rect x="433" fill="rgba(254, 255, 234, 1)" width="1" height="8"/>"
"<rect x="434" fill="rgba(189, 209, 137, 1)" width="1" height="8"/>"
"<rect x="435" fill="rgba(219, 232, 65, 1)" width="1" height="8"/>"
"<rect x="436" fill="rgba(232, 240, 55, 1)" width="1" height="8"/>"
"<rect x="437" fill="rgba(250, 255, 151, 1)" width="1" height="8"/>"
"<rect x="438" fill="rgba(230, 229, 119, 1)" width="1" height="8"/>"
"<rect x="439" fill="rgba(242, 251, 96, 1)" width="1" height="8"/>"
"<rect x="440" fill="rgba(232, 228, 60, 1)" width="1" height="8"/>"
"<rect x="441" fill="rgba(255, 231, 94, 1)" width="1" height="8"/>"
"<rect x="442" fill="rgba(179, 136, 0, 1)" width="1" height="8"/>"
"<rect x="443" fill="rgba(248, 217, 94, 1)" width="1" height="8"/>"
"<rect x="444" fill="rgba(255, 239, 119, 1)" width="1" height="8"/>"
"<rect x="445" fill="rgba(252, 198, 80, 1)" width="1" height="8"/>"
"<rect x="446" fill="rgba(205, 149, 34, 1)" width="1" height="8"/>"
"<rect x="447" fill="rgba(240, 192, 105, 1)" width="1" height="8"/>"
"<rect x="448" fill="rgba(255, 214, 148, 1)" width="1" height="8"/>"
"<rect x="449" fill="rgba(172, 85, 48, 1)" width="1" height="8"/>"
"<rect x="450" fill="rgba(255, 199, 142, 1)" width="1" height="8"/>"
"<rect x="451" fill="rgba(211, 126, 0, 1)" width="1" height="8"/>"
"<rect x="452" fill="rgba(255, 204, 50, 1)" width="1" height="8"/>"
"<rect x="453" fill="rgba(255, 180, 56, 1)" width="1" height="8"/>"
"<rect x="454" fill="rgba(210, 122, 26, 1)" width="1" height="8"/>"
"<rect x="455" fill="rgba(210, 101, 57, 1)" width="1" height="8"/>"
"<rect x="456" fill="rgba(255, 168, 125, 1)" width="1" height="8"/>"
"<rect x="457" fill="rgba(253, 162, 71, 1)" width="1" height="8"/>"
"<rect x="458" fill="rgba(216, 139, 32, 1)" width="1" height="8"/>"
"<rect x="459" fill="rgba(176, 113, 39, 1)" width="1" height="8"/>"
"<rect x="460" fill="rgba(255, 239, 119, 1)" width="1" height="8"/>"
"<rect x="461" fill="rgba(246, 244, 211, 1)" width="1" height="8"/>"
"<rect x="462" fill="rgba(228, 233, 198, 1)" width="1" height="8"/>"
"<rect x="463" fill="rgba(248, 230, 177, 1)" width="1" height="8"/>"
"<rect x="464" fill="rgba(163, 126, 81, 1)" width="1" height="8"/>"
"<rect x="465" fill="rgba(255, 242, 225, 1)" width="1" height="8"/>"
"<rect x="466" fill="rgba(169, 137, 121, 1)" width="1" height="8"/>"
"<rect x="467" fill="rgba(248, 255, 221, 1)" width="1" height="8"/>"
"<rect x="468" fill="rgba(159, 169, 128, 1)" width="1" height="8"/>"
"<rect x="469" fill="rgba(255, 205, 199, 1)" width="1" height="8"/>"
"<rect x="470" fill="rgba(230, 129, 135, 1)" width="1" height="8"/>"
"<rect x="471" fill="rgba(240, 142, 138, 1)" width="1" height="8"/>"
"<rect x="472" fill="rgba(189, 103, 104, 1)" width="1" height="8"/>"
"<rect x="473" fill="rgba(145, 71, 102, 1)" width="1" height="8"/>"
"<rect x="474" fill="rgba(180, 88, 125, 1)" width="1" height="8"/>"
"<rect x="475" fill="rgba(255, 139, 158, 1)" width="1" height="8"/>"
"<rect x="476" fill="rgba(160, 0, 4, 1)" width="1" height="8"/>"
"<rect x="477" fill="rgba(242, 86, 119, 1)" width="1" height="8"/>"
"<rect x="478" fill="rgba(163, 46, 79, 1)" width="1" height="8"/>"
"<rect x="479" fill="rgba(255, 225, 242, 1)" width="1" height="8"/>"
"<rect x="480" fill="rgba(239, 255, 255, 1)" width="1" height="8"/>"
"<rect x="481" fill="rgba(105, 197, 221, 1)" width="1" height="8"/>"
"<rect x="482" fill="rgba(90, 203, 225, 1)" width="1" height="8"/>"
"<rect x="483" fill="rgba(107, 171, 183, 1)" width="1" height="8"/>"
"<rect x="484" fill="rgba(243, 255, 255, 1)" width="1" height="8"/>"
"<rect x="485" fill="rgba(255, 229, 203, 1)" width="1" height="8"/>"
"<rect x="486" fill="rgba(225, 181, 141, 1)" width="1" height="8"/>"
"<rect x="487" fill="rgba(218, 183, 144, 1)" width="1" height="8"/>"
"<rect x="488" fill="rgba(253, 255, 222, 1)" width="1" height="8"/>"
"<rect x="489" fill="rgba(105, 118, 92, 1)" width="1" height="8"/>"
"<rect x="490" fill="rgba(215, 229, 208, 1)" width="1" height="8"/>"
"<rect x="491" fill="rgba(206, 199, 179, 1)" width="1" height="8"/>"
"<rect x="492" fill="rgba(253, 255, 250, 1)" width="1" height="8"/>"
"<rect x="493" fill="rgba(225, 255, 255, 1)" width="1" height="8"/>"
"<rect x="494" fill="rgba(105, 189, 204, 1)" width="1" height="8"/>"
"<rect x="495" fill="rgba(0, 113, 145, 1)" width="1" height="8"/>"
"<rect x="496" fill="rgba(121, 234, 255, 1)" width="1" height="8"/>"
"<rect x="497" fill="rgba(196, 255, 255, 1)" width="1" height="8"/>"
"<rect x="498" fill="rgba(93, 174, 159, 1)" width="1" height="8"/>"
"<rect x="499" fill="rgba(93, 174, 159, 1)" width="1" height="8"/>"
"<rect x="500" fill="rgba(210, 255, 255, 1)" width="1" height="8"/>"

</svg>
