<svg xmlns="http://www.w3.org/2000/svg" width="500" height="8">&amp;quot;<path fill="rgba(187, 125, 131, 1)" d="M1 0h1v8H1z"/>&amp;quot; &amp;quot;<path fill="rgba(232, 186, 194, 1)" d="M2 0h1v8H2z"/>&amp;quot; &amp;quot;<path fill="rgba(255, 248, 255, 1)" d="M3 0h1v8H3z"/>&amp;quot; &amp;quot;<path fill="rgba(166, 154, 171, 1)" d="M4 0h1v8H4z"/>&amp;quot; &amp;quot;<path fill="rgba(129, 110, 133, 1)" d="M5 0h1v8H5z"/>&amp;quot; &amp;quot;<path fill="rgba(255, 250, 255, 1)" d="M6 0h1v8H6z"/>&amp;quot; &amp;quot;<path fill="rgba(168, 185, 218, 1)" d="M7 0h1v8H7z"/>&amp;quot; &amp;quot;<path fill="rgba(87, 109, 136, 1)" d="M8 0h1v8H8z"/>&amp;quot; &amp;quot;<path fill="rgba(231, 232, 245, 1)" d="M9 0h1v8H9z"/>&amp;quot; &amp;quot;<path fill="rgba(255, 254, 255, 1)" d="M10 0h1v8h-1z"/>&amp;quot; &amp;quot;<path fill="rgba(253, 253, 251, 1)" d="M11 0h1v8h-1z"/>&amp;quot; &amp;quot;<path fill="rgba(252, 255, 252, 1)" d="M12 0h1v8h-1z"/>&amp;quot; &amp;quot;<path fill="rgba(254, 249, 255, 1)" d="M13 0h1v8h-1z"/>&amp;quot; &amp;quot;<path fill="rgba(255, 254, 255, 1)" d="M14 0h1v8h-1z"/>&amp;quot; &amp;quot;<path fill="rgba(250, 255, 254, 1)" d="M15 0h1v8h-1z"/>&amp;quot; &amp;quot;<path fill="rgba(247, 255, 251, 1)" d="M16 0h1v8h-1z"/>&amp;quot; &amp;quot;<path fill="rgba(254, 255, 253, 1)" d="M17 0h1v8h-1z"/>&amp;quot; &amp;quot;<path fill="rgba(250, 254, 242, 1)" d="M18 0h1v8h-1z"/>&amp;quot; &amp;quot;<path fill="rgba(254, 255, 235, 1)" d="M19 0h1v8h-1z"/>&amp;quot; &amp;quot;<path fill="rgba(237, 241, 210, 1)" d="M20 0h1v8h-1z"/>&amp;quot; &amp;quot;<path fill="rgba(241, 237, 213, 1)" d="M21 0h1v8h-1z"/>&amp;quot; &amp;quot;<path fill="rgba(254, 255, 243, 1)" d="M22 0h1v8h-1z"/>&amp;quot; &amp;quot;<path fill="rgba(255, 253, 255, 1)" d="M23 0h1v8h-1z"/>&amp;quot; &amp;quot;<path fill="rgba(90, 88, 101, 1)" d="M24 0h1v8h-1z"/>&amp;quot; &amp;quot;<path fill="rgba(251, 255, 255, 1)" d="M25 0h1v8h-1z"/>&amp;quot; &amp;quot;<path fill="rgba(255, 248, 255, 1)" d="M26 0h1v8h-1z"/>&amp;quot; &amp;quot;<path fill="rgba(255, 228, 255, 1)" d="M27 0h1v8h-1z"/>&amp;quot; &amp;quot;<path fill="rgba(107, 28, 59, 1)" d="M28 0h1v8h-1z"/>&amp;quot; &amp;quot;<path fill="rgba(255, 253, 251, 1)" d="M29 0h1v8h-1z"/>&amp;quot; &amp;quot;<path fill="rgba(177, 190, 150, 1)" d="M30 0h1v8h-1z"/>&amp;quot; &amp;quot;<path fill="rgba(202, 187, 101, 1)" d="M31 0h1v8h-1z"/>&amp;quot; &amp;quot;<path fill="rgba(202, 187, 101, 1)" d="M32 0h1v8h-1z"/>&amp;quot; &amp;quot;<path fill="rgba(252, 255, 191, 1)" d="M33 0h1v8h-1z"/>&amp;quot; &amp;quot;<path fill="rgba(252, 255, 191, 1)" d="M34 0h1v8h-1z"/>&amp;quot; &amp;quot;<path fill="rgba(232, 203, 133, 1)" d="M35 0h1v8h-1z"/>&amp;quot; &amp;quot;<path fill="rgba(242, 192, 119, 1)" d="M36 0h1v8h-1z"/>&amp;quot; &amp;quot;<path fill="rgba(229, 160, 80, 1)" d="M37 0h1v8h-1z"/>&amp;quot; &amp;quot;<path fill="rgba(237, 119, 71, 1)" d="M38 0h1v8h-1z"/>&amp;quot; &amp;quot;<path fill="rgba(187, 0, 6, 1)" d="M39 0h1v8h-1z"/>&amp;quot; &amp;quot;<path fill="rgba(254, 44, 101, 1)" d="M40 0h1v8h-1z"/>&amp;quot; &amp;quot;<path fill="rgba(255, 189, 191, 1)" d="M41 0h1v8h-1z"/>&amp;quot; &amp;quot;<path fill="rgba(255, 189, 191, 1)" d="M42 0h1v8h-1z"/>&amp;quot; &amp;quot;<path fill="rgba(158, 59, 79, 1)" d="M43 0h1v8h-1z"/>&amp;quot; &amp;quot;<path fill="rgba(255, 209, 233, 1)" d="M44 0h1v8h-1z"/>&amp;quot; &amp;quot;<path fill="rgba(196, 82, 103, 1)" d="M45 0h1v8h-1z"/>&amp;quot; &amp;quot;<path fill="rgba(250, 147, 160, 1)" d="M46 0h1v8h-1z"/>&amp;quot; &amp;quot;<path fill="rgba(255, 235, 250, 1)" d="M47 0h1v8h-1z"/>&amp;quot; &amp;quot;<path fill="rgba(206, 168, 169, 1)" d="M48 0h1v8h-1z"/>&amp;quot; &amp;quot;<path fill="rgba(199, 197, 169, 1)" d="M49 0h1v8h-1z"/>&amp;quot; &amp;quot;<path fill="rgba(253, 255, 221, 1)" d="M50 0h1v8h-1z"/>&amp;quot; &amp;quot;<path fill="rgba(122, 96, 70, 1)" d="M51 0h1v8h-1z"/>&amp;quot; &amp;quot;<path fill="rgba(240, 156, 151, 1)" d="M52 0h1v8h-1z"/>&amp;quot; &amp;quot;<path fill="rgba(196, 0, 48, 1)" d="M53 0h1v8h-1z"/>&amp;quot; &amp;quot;<path fill="rgba(209, 0, 32, 1)" d="M54 0h1v8h-1z"/>&amp;quot; &amp;quot;<path fill="rgba(241, 118, 84, 1)" d="M55 0h1v8h-1z"/>&amp;quot; &amp;quot;<path fill="rgba(255, 199, 171, 1)" d="M56 0h1v8h-1z"/>&amp;quot; &amp;quot;<path fill="rgba(184, 0, 50, 1)" d="M57 0h1v8h-1z"/>&amp;quot; &amp;quot;<path fill="rgba(216, 0, 98, 1)" d="M58 0h1v8h-1z"/>&amp;quot; &amp;quot;<path fill="rgba(242, 105, 142, 1)" d="M59 0h1v8h-1z"/>&amp;quot; &amp;quot;<path fill="rgba(211, 101, 131, 1)" d="M60 0h1v8h-1z"/>&amp;quot; &amp;quot;<path fill="rgba(216, 109, 153, 1)" d="M61 0h1v8h-1z"/>&amp;quot; &amp;quot;<path fill="rgba(173, 63, 116, 1)" d="M62 0h1v8h-1z"/>&amp;quot; &amp;quot;<path fill="rgba(138, 0, 74, 1)" d="M63 0h1v8h-1z"/>&amp;quot; &amp;quot;<path fill="rgba(255, 172, 217, 1)" d="M64 0h1v8h-1z"/>&amp;quot; &amp;quot;<path fill="rgba(166, 85, 112, 1)" d="M65 0h1v8h-1z"/>&amp;quot; &amp;quot;<path fill="rgba(137, 111, 108, 1)" d="M66 0h1v8h-1z"/>&amp;quot; &amp;quot;<path fill="rgba(151, 195, 163, 1)" d="M67 0h1v8h-1z"/>&amp;quot; &amp;quot;<path fill="rgba(212, 255, 217, 1)" d="M68 0h1v8h-1z"/>&amp;quot; &amp;quot;<path fill="rgba(207, 176, 151, 1)" d="M69 0h1v8h-1z"/>&amp;quot; &amp;quot;<path fill="rgba(153, 118, 76, 1)" d="M70 0h1v8h-1z"/>&amp;quot; &amp;quot;<path fill="rgba(196, 229, 145, 1)" d="M71 0h1v8h-1z"/>&amp;quot; &amp;quot;<path fill="rgba(142, 214, 108, 1)" d="M72 0h1v8h-1z"/>&amp;quot; &amp;quot;<path fill="rgba(109, 182, 81, 1)" d="M73 0h1v8h-1z"/>&amp;quot; &amp;quot;<path fill="rgba(144, 221, 129, 1)" d="M74 0h1v8h-1z"/>&amp;quot; &amp;quot;<path fill="rgba(136, 210, 144, 1)" d="M75 0h1v8h-1z"/>&amp;quot; &amp;quot;<path fill="rgba(171, 238, 173, 1)" d="M76 0h1v8h-1z"/>&amp;quot; &amp;quot;<path fill="rgba(126, 178, 96, 1)" d="M77 0h1v8h-1z"/>&amp;quot; &amp;quot;<path fill="rgba(234, 255, 196, 1)" d="M78 0h1v8h-1z"/>&amp;quot; &amp;quot;<path fill="rgba(253, 255, 241, 1)" d="M79 0h1v8h-1z"/>&amp;quot; &amp;quot;<path fill="rgba(254, 251, 252, 1)" d="M80 0h1v8h-1z"/>&amp;quot; &amp;quot;<path fill="rgba(255, 254, 250, 1)" d="M81 0h1v8h-1z"/>&amp;quot; &amp;quot;<path fill="rgba(252, 254, 249, 1)" d="M82 0h1v8h-1z"/>&amp;quot; &amp;quot;<path fill="rgba(255, 255, 255, 1)" d="M83 0h1v8h-1z"/>&amp;quot; &amp;quot;<path fill="rgba(252, 253, 255, 1)" d="M84 0h1v8h-1z"/>&amp;quot; &amp;quot;<path fill="rgba(254, 254, 255, 1)" d="M85 0h1v8h-1z"/>&amp;quot; &amp;quot;<path fill="rgba(255, 243, 248, 1)" d="M86 0h1v8h-1z"/>&amp;quot; &amp;quot;<path fill="rgba(203, 67, 79, 1)" d="M87 0h1v8h-1z"/>&amp;quot; &amp;quot;<path fill="rgba(196, 60, 80, 1)" d="M88 0h1v8h-1z"/>&amp;quot; &amp;quot;<path fill="rgba(226, 184, 203, 1)" d="M89 0h1v8h-1z"/>&amp;quot; &amp;quot;<path fill="rgba(221, 202, 222, 1)" d="M90 0h1v8h-1z"/>&amp;quot; &amp;quot;<path fill="rgba(138, 77, 94, 1)" d="M91 0h1v8h-1z"/>&amp;quot; &amp;quot;<path fill="rgba(155, 125, 134, 1)" d="M92 0h1v8h-1z"/>&amp;quot; &amp;quot;<path fill="rgba(153, 228, 232, 1)" d="M93 0h1v8h-1z"/>&amp;quot; &amp;quot;<path fill="rgba(75, 165, 171, 1)" d="M94 0h1v8h-1z"/>&amp;quot; &amp;quot;<path fill="rgba(121, 112, 136, 1)" d="M95 0h1v8h-1z"/>&amp;quot; &amp;quot;<path fill="rgba(240, 190, 220, 1)" d="M96 0h1v8h-1z"/>&amp;quot; &amp;quot;<path fill="rgba(129, 81, 113, 1)" d="M97 0h1v8h-1z"/>&amp;quot; &amp;quot;<path fill="rgba(189, 152, 186, 1)" d="M98 0h1v8h-1z"/>&amp;quot; &amp;quot;<path fill="rgba(209, 195, 232, 1)" d="M99 0h1v8h-1z"/>&amp;quot; &amp;quot;<path fill="rgba(66, 45, 77, 1)" d="M100 0h1v8h-1z"/>&amp;quot; &amp;quot;<path fill="rgba(198, 141, 162, 1)" d="M101 0h1v8h-1z"/>&amp;quot; &amp;quot;<path fill="rgba(255, 224, 242, 1)" d="M102 0h1v8h-1z"/>&amp;quot; &amp;quot;<path fill="rgba(102, 0, 41, 1)" d="M103 0h1v8h-1z"/>&amp;quot; &amp;quot;<path fill="rgba(238, 123, 172, 1)" d="M104 0h1v8h-1z"/>&amp;quot; &amp;quot;<path fill="rgba(148, 0, 77, 1)" d="M105 0h1v8h-1z"/>&amp;quot; &amp;quot;<path fill="rgba(247, 82, 151, 1)" d="M106 0h1v8h-1z"/>&amp;quot; &amp;quot;<path fill="rgba(201, 0, 71, 1)" d="M107 0h1v8h-1z"/>&amp;quot; &amp;quot;<path fill="rgba(189, 0, 59, 1)" d="M108 0h1v8h-1z"/>&amp;quot; &amp;quot;<path fill="rgba(255, 177, 179, 1)" d="M109 0h1v8h-1z"/>&amp;quot; &amp;quot;<path fill="rgba(255, 231, 207, 1)" d="M110 0h1v8h-1z"/>&amp;quot; &amp;quot;<path fill="rgba(187, 150, 107, 1)" d="M111 0h1v8h-1z"/>&amp;quot; &amp;quot;<path fill="rgba(255, 246, 196, 1)" d="M112 0h1v8h-1z"/>&amp;quot; &amp;quot;<path fill="rgba(255, 236, 193, 1)" d="M113 0h1v8h-1z"/>&amp;quot; &amp;quot;<path fill="rgba(241, 212, 180, 1)" d="M114 0h1v8h-1z"/>&amp;quot; &amp;quot;<path fill="rgba(255, 216, 199, 1)" d="M115 0h1v8h-1z"/>&amp;quot; &amp;quot;<path fill="rgba(149, 96, 79, 1)" d="M116 0h1v8h-1z"/>&amp;quot; &amp;quot;<path fill="rgba(255, 243, 220, 1)" d="M117 0h1v8h-1z"/>&amp;quot; &amp;quot;<path fill="rgba(230, 179, 144, 1)" d="M118 0h1v8h-1z"/>&amp;quot; &amp;quot;<path fill="rgba(255, 192, 147, 1)" d="M119 0h1v8h-1z"/>&amp;quot; &amp;quot;<path fill="rgba(198, 125, 59, 1)" d="M120 0h1v8h-1z"/>&amp;quot; &amp;quot;<path fill="rgba(243, 191, 103, 1)" d="M121 0h1v8h-1z"/>&amp;quot; &amp;quot;<path fill="rgba(228, 193, 79, 1)" d="M122 0h1v8h-1z"/>&amp;quot; &amp;quot;<path fill="rgba(253, 248, 114, 1)" d="M123 0h1v8h-1z"/>&amp;quot; &amp;quot;<path fill="rgba(207, 169, 0, 1)" d="M124 0h1v8h-1z"/>&amp;quot; &amp;quot;<path fill="rgba(255, 203, 29, 1)" d="M125 0h1v8h-1z"/>&amp;quot; &amp;quot;<path fill="rgba(226, 162, 0, 1)" d="M126 0h1v8h-1z"/>&amp;quot; &amp;quot;<path fill="rgba(242, 185, 0, 1)" d="M127 0h1v8h-1z"/>&amp;quot; &amp;quot;<path fill="rgba(255, 214, 94, 1)" d="M128 0h1v8h-1z"/>&amp;quot; &amp;quot;<path fill="rgba(225, 155, 113, 1)" d="M129 0h1v8h-1z"/>&amp;quot; &amp;quot;<path fill="rgba(187, 150, 107, 1)" d="M130 0h1v8h-1z"/>&amp;quot; &amp;quot;<path fill="rgba(185, 140, 139, 1)" d="M131 0h1v8h-1z"/>&amp;quot; &amp;quot;<path fill="rgba(204, 187, 177, 1)" d="M132 0h1v8h-1z"/>&amp;quot; &amp;quot;<path fill="rgba(46, 89, 105, 1)" d="M133 0h1v8h-1z"/>&amp;quot; &amp;quot;<path fill="rgba(82, 150, 161, 1)" d="M134 0h1v8h-1z"/>&amp;quot; &amp;quot;<path fill="rgba(138, 182, 164, 1)" d="M135 0h1v8h-1z"/>&amp;quot; &amp;quot;<path fill="rgba(155, 171, 145, 1)" d="M136 0h1v8h-1z"/>&amp;quot; &amp;quot;<path fill="rgba(134, 111, 107, 1)" d="M137 0h1v8h-1z"/>&amp;quot; &amp;quot;<path fill="rgba(161, 124, 127, 1)" d="M138 0h1v8h-1z"/>&amp;quot; &amp;quot;<path fill="rgba(228, 192, 188, 1)" d="M139 0h1v8h-1z"/>&amp;quot; &amp;quot;<path fill="rgba(185, 140, 139, 1)" d="M140 0h1v8h-1z"/>&amp;quot; &amp;quot;<path fill="rgba(151, 74, 88, 1)" d="M141 0h1v8h-1z"/>&amp;quot; &amp;quot;<path fill="rgba(255, 238, 242, 1)" d="M142 0h1v8h-1z"/>&amp;quot; &amp;quot;<path fill="rgba(233, 216, 190, 1)" d="M143 0h1v8h-1z"/>&amp;quot; &amp;quot;<path fill="rgba(204, 204, 166, 1)" d="M144 0h1v8h-1z"/>&amp;quot; &amp;quot;<path fill="rgba(160, 149, 114, 1)" d="M145 0h1v8h-1z"/>&amp;quot; &amp;quot;<path fill="rgba(219, 222, 176, 1)" d="M146 0h1v8h-1z"/>&amp;quot; &amp;quot;<path fill="rgba(189, 224, 162, 1)" d="M147 0h1v8h-1z"/>&amp;quot; &amp;quot;<path fill="rgba(179, 220, 170, 1)" d="M148 0h1v8h-1z"/>&amp;quot; &amp;quot;<path fill="rgba(250, 255, 255, 1)" d="M149 0h1v8h-1z"/>&amp;quot; &amp;quot;<path fill="rgba(146, 144, 157, 1)" d="M150 0h1v8h-1z"/>&amp;quot; &amp;quot;<path fill="rgba(218, 223, 224, 1)" d="M151 0h1v8h-1z"/>&amp;quot; &amp;quot;<path fill="rgba(251, 255, 253, 1)" d="M152 0h1v8h-1z"/>&amp;quot; &amp;quot;<path fill="rgba(254, 254, 252, 1)" d="M153 0h1v8h-1z"/>&amp;quot; &amp;quot;<path fill="rgba(254, 254, 252, 1)" d="M154 0h1v8h-1z"/>&amp;quot; &amp;quot;<path fill="rgba(254, 255, 255, 1)" d="M155 0h1v8h-1z"/>&amp;quot; &amp;quot;<path fill="rgba(254, 255, 255, 1)" d="M156 0h1v8h-1z"/>&amp;quot; &amp;quot;<path fill="rgba(255, 254, 252, 1)" d="M157 0h1v8h-1z"/>&amp;quot; &amp;quot;<path fill="rgba(255, 254, 252, 1)" d="M158 0h1v8h-1z"/>&amp;quot; &amp;quot;<path fill="rgba(251, 255, 253, 1)" d="M159 0h1v8h-1z"/>&amp;quot; &amp;quot;<path fill="rgba(255, 255, 255, 1)" d="M160 0h1v8h-1z"/>&amp;quot; &amp;quot;<path fill="rgba(255, 255, 255, 1)" d="M161 0h1v8h-1z"/>&amp;quot; &amp;quot;<path fill="rgba(255, 255, 255, 1)" d="M162 0h1v8h-1z"/>&amp;quot; &amp;quot;<path fill="rgba(255, 255, 255, 1)" d="M163 0h1v8h-1z"/>&amp;quot; &amp;quot;<path fill="rgba(255, 255, 255, 1)" d="M164 0h1v8h-1z"/>&amp;quot; &amp;quot;<path fill="rgba(255, 255, 255, 1)" d="M165 0h1v8h-1z"/>&amp;quot; &amp;quot;<path fill="rgba(255, 255, 255, 1)" d="M166 0h1v8h-1z"/>&amp;quot; &amp;quot;<path fill="rgba(255, 255, 255, 1)" d="M167 0h1v8h-1z"/>&amp;quot; &amp;quot;<path fill="rgba(255, 255, 255, 1)" d="M168 0h1v8h-1z"/>&amp;quot; &amp;quot;<path fill="rgba(255, 255, 255, 1)" d="M169 0h1v8h-1z"/>&amp;quot; &amp;quot;<path fill="rgba(255, 255, 255, 1)" d="M170 0h1v8h-1z"/>&amp;quot; &amp;quot;<path fill="rgba(255, 255, 255, 1)" d="M171 0h1v8h-1z"/>&amp;quot; &amp;quot;<path fill="rgba(255, 255, 255, 1)" d="M172 0h1v8h-1z"/>&amp;quot; &amp;quot;<path fill="rgba(255, 255, 255, 1)" d="M173 0h1v8h-1z"/>&amp;quot; &amp;quot;<path fill="rgba(254, 254, 254, 1)" d="M174 0h1v8h-1z"/>&amp;quot; &amp;quot;<path fill="rgba(254, 254, 254, 1)" d="M175 0h1v8h-1z"/>&amp;quot; &amp;quot;<path fill="rgba(254, 254, 254, 1)" d="M176 0h1v8h-1z"/>&amp;quot; &amp;quot;<path fill="rgba(251, 254, 251, 1)" d="M177 0h1v8h-1z"/>&amp;quot; &amp;quot;<path fill="rgba(255, 252, 245, 1)" d="M178 0h1v8h-1z"/>&amp;quot; &amp;quot;<path fill="rgba(249, 203, 194, 1)" d="M179 0h1v8h-1z"/>&amp;quot; &amp;quot;<path fill="rgba(195, 153, 132, 1)" d="M180 0h1v8h-1z"/>&amp;quot; &amp;quot;<path fill="rgba(254, 255, 226, 1)" d="M181 0h1v8h-1z"/>&amp;quot; &amp;quot;<path fill="rgba(255, 230, 214, 1)" d="M182 0h1v8h-1z"/>&amp;quot; &amp;quot;<path fill="rgba(255, 227, 254, 1)" d="M183 0h1v8h-1z"/>&amp;quot; &amp;quot;<path fill="rgba(132, 18, 55, 1)" d="M184 0h1v8h-1z"/>&amp;quot; &amp;quot;<path fill="rgba(239, 148, 137, 1)" d="M185 0h1v8h-1z"/>&amp;quot; &amp;quot;<path fill="rgba(208, 140, 103, 1)" d="M186 0h1v8h-1z"/>&amp;quot; &amp;quot;<path fill="rgba(255, 231, 186, 1)" d="M187 0h1v8h-1z"/>&amp;quot; &amp;quot;<path fill="rgba(180, 157, 81, 1)" d="M188 0h1v8h-1z"/>&amp;quot; &amp;quot;<path fill="rgba(227, 229, 99, 1)" d="M189 0h1v8h-1z"/>&amp;quot; &amp;quot;<path fill="rgba(254, 254, 254, 1)" d="M190 0h1v8h-1z"/>&amp;quot; &amp;quot;<path fill="rgba(156, 177, 55, 1)" d="M191 0h1v8h-1z"/>&amp;quot; &amp;quot;<path fill="rgba(237, 222, 143, 1)" d="M192 0h1v8h-1z"/>&amp;quot; &amp;quot;<path fill="rgba(176, 85, 67, 1)" d="M193 0h1v8h-1z"/>&amp;quot; &amp;quot;<path fill="rgba(248, 152, 136, 1)" d="M194 0h1v8h-1z"/>&amp;quot; &amp;quot;<path fill="rgba(255, 225, 153, 1)" d="M195 0h1v8h-1z"/>&amp;quot; &amp;quot;<path fill="rgba(156, 146, 68, 1)" d="M196 0h1v8h-1z"/>&amp;quot; &amp;quot;<path fill="rgba(176, 147, 123, 1)" d="M197 0h1v8h-1z"/>&amp;quot; &amp;quot;<path fill="rgba(178, 154, 147, 1)" d="M198 0h1v8h-1z"/>&amp;quot; &amp;quot;<path fill="rgba(254, 255, 238, 1)" d="M199 0h1v8h-1z"/>&amp;quot; &amp;quot;<path fill="rgba(154, 201, 180, 1)" d="M200 0h1v8h-1z"/>&amp;quot; &amp;quot;<path fill="rgba(96, 206, 200, 1)" d="M201 0h1v8h-1z"/>&amp;quot; &amp;quot;<path fill="rgba(105, 211, 208, 1)" d="M202 0h1v8h-1z"/>&amp;quot; &amp;quot;<path fill="rgba(134, 163, 155, 1)" d="M203 0h1v8h-1z"/>&amp;quot; &amp;quot;<path fill="rgba(176, 189, 163, 1)" d="M204 0h1v8h-1z"/>&amp;quot; &amp;quot;<path fill="rgba(194, 239, 180, 1)" d="M205 0h1v8h-1z"/>&amp;quot; &amp;quot;<path fill="rgba(138, 192, 125, 1)" d="M206 0h1v8h-1z"/>&amp;quot; &amp;quot;<path fill="rgba(237, 255, 210, 1)" d="M207 0h1v8h-1z"/>&amp;quot; &amp;quot;<path fill="rgba(176, 211, 148, 1)" d="M208 0h1v8h-1z"/>&amp;quot; &amp;quot;<path fill="rgba(171, 231, 143, 1)" d="M209 0h1v8h-1z"/>&amp;quot; &amp;quot;<path fill="rgba(86, 168, 65, 1)" d="M210 0h1v8h-1z"/>&amp;quot; &amp;quot;<path fill="rgba(163, 249, 145, 1)" d="M211 0h1v8h-1z"/>&amp;quot; &amp;quot;<path fill="rgba(80, 170, 68, 1)" d="M212 0h1v8h-1z"/>&amp;quot; &amp;quot;<path fill="rgba(128, 207, 109, 1)" d="M213 0h1v8h-1z"/>&amp;quot; &amp;quot;<path fill="rgba(180, 253, 154, 1)" d="M214 0h1v8h-1z"/>&amp;quot; &amp;quot;<path fill="rgba(116, 190, 91, 1)" d="M215 0h1v8h-1z"/>&amp;quot; &amp;quot;<path fill="rgba(126, 210, 101, 1)" d="M216 0h1v8h-1z"/>&amp;quot; &amp;quot;<path fill="rgba(87, 191, 71, 1)" d="M217 0h1v8h-1z"/>&amp;quot; &amp;quot;<path fill="rgba(133, 192, 85, 1)" d="M218 0h1v8h-1z"/>&amp;quot; &amp;quot;<path fill="rgba(241, 215, 144, 1)" d="M219 0h1v8h-1z"/>&amp;quot; &amp;quot;<path fill="rgba(114, 70, 43, 1)" d="M220 0h1v8h-1z"/>&amp;quot; &amp;quot;<path fill="rgba(106, 115, 127, 1)" d="M221 0h1v8h-1z"/>&amp;quot; &amp;quot;<path fill="rgba(97, 98, 128, 1)" d="M222 0h1v8h-1z"/>&amp;quot; &amp;quot;<path fill="rgba(149, 82, 112, 1)" d="M223 0h1v8h-1z"/>&amp;quot; &amp;quot;<path fill="rgba(185, 133, 160, 1)" d="M224 0h1v8h-1z"/>&amp;quot; &amp;quot;<path fill="rgba(86, 130, 158, 1)" d="M225 0h1v8h-1z"/>&amp;quot; &amp;quot;<path fill="rgba(73, 104, 133, 1)" d="M226 0h1v8h-1z"/>&amp;quot; &amp;quot;<path fill="rgba(208, 123, 161, 1)" d="M227 0h1v8h-1z"/>&amp;quot; &amp;quot;<path fill="rgba(204, 99, 134, 1)" d="M228 0h1v8h-1z"/>&amp;quot; &amp;quot;<path fill="rgba(165, 126, 152, 1)" d="M229 0h1v8h-1z"/>&amp;quot; &amp;quot;<path fill="rgba(86, 77, 99, 1)" d="M230 0h1v8h-1z"/>&amp;quot; &amp;quot;<path fill="rgba(255, 246, 255, 1)" d="M231 0h1v8h-1z"/>&amp;quot; &amp;quot;<path fill="rgba(158, 146, 150, 1)" d="M232 0h1v8h-1z"/>&amp;quot; &amp;quot;<path fill="rgba(119, 154, 135, 1)" d="M233 0h1v8h-1z"/>&amp;quot; &amp;quot;<path fill="rgba(228, 255, 241, 1)" d="M234 0h1v8h-1z"/>&amp;quot; &amp;quot;<path fill="rgba(245, 255, 239, 1)" d="M235 0h1v8h-1z"/>&amp;quot; &amp;quot;<path fill="rgba(127, 137, 112, 1)" d="M236 0h1v8h-1z"/>&amp;quot; &amp;quot;<path fill="rgba(98, 106, 99, 1)" d="M237 0h1v8h-1z"/>&amp;quot; &amp;quot;<path fill="rgba(248, 243, 244, 1)" d="M238 0h1v8h-1z"/>&amp;quot; &amp;quot;<path fill="rgba(124, 99, 106, 1)" d="M239 0h1v8h-1z"/>&amp;quot; &amp;quot;<path fill="rgba(255, 243, 255, 1)" d="M240 0h1v8h-1z"/>&amp;quot; &amp;quot;<path fill="rgba(255, 243, 255, 1)" d="M241 0h1v8h-1z"/>&amp;quot; &amp;quot;<path fill="rgba(157, 96, 109, 1)" d="M242 0h1v8h-1z"/>&amp;quot; &amp;quot;<path fill="rgba(255, 196, 201, 1)" d="M243 0h1v8h-1z"/>&amp;quot; &amp;quot;<path fill="rgba(203, 153, 142, 1)" d="M244 0h1v8h-1z"/>&amp;quot; &amp;quot;<path fill="rgba(180, 169, 147, 1)" d="M245 0h1v8h-1z"/>&amp;quot; &amp;quot;<path fill="rgba(196, 195, 178, 1)" d="M246 0h1v8h-1z"/>&amp;quot; &amp;quot;<path fill="rgba(175, 158, 170, 1)" d="M247 0h1v8h-1z"/>&amp;quot; &amp;quot;<path fill="rgba(213, 210, 227, 1)" d="M248 0h1v8h-1z"/>&amp;quot; &amp;quot;<path fill="rgba(99, 154, 160, 1)" d="M249 0h1v8h-1z"/>&amp;quot; &amp;quot;<path fill="rgba(191, 250, 239, 1)" d="M250 0h1v8h-1z"/>&amp;quot; &amp;quot;<path fill="rgba(189, 190, 170, 1)" d="M251 0h1v8h-1z"/>&amp;quot; &amp;quot;<path fill="rgba(106, 122, 96, 1)" d="M252 0h1v8h-1z"/>&amp;quot; &amp;quot;<path fill="rgba(69, 175, 154, 1)" d="M253 0h1v8h-1z"/>&amp;quot; &amp;quot;<path fill="rgba(154, 255, 251, 1)" d="M254 0h1v8h-1z"/>&amp;quot; &amp;quot;<path fill="rgba(121, 165, 174, 1)" d="M255 0h1v8h-1z"/>&amp;quot; &amp;quot;<path fill="rgba(171, 198, 203, 1)" d="M256 0h1v8h-1z"/>&amp;quot; &amp;quot;<path fill="rgba(103, 150, 137, 1)" d="M257 0h1v8h-1z"/>&amp;quot; &amp;quot;<path fill="rgba(117, 197, 182, 1)" d="M258 0h1v8h-1z"/>&amp;quot; &amp;quot;<path fill="rgba(99, 212, 223, 1)" d="M259 0h1v8h-1z"/>&amp;quot; &amp;quot;<path fill="rgba(16, 176, 191, 1)" d="M260 0h1v8h-1z"/>&amp;quot; &amp;quot;<path fill="rgba(38, 181, 182, 1)" d="M261 0h1v8h-1z"/>&amp;quot; &amp;quot;<path fill="rgba(20, 200, 206, 1)" d="M262 0h1v8h-1z"/>&amp;quot; &amp;quot;<path fill="rgba(0, 181, 211, 1)" d="M263 0h1v8h-1z"/>&amp;quot; &amp;quot;<path fill="rgba(0, 192, 232, 1)" d="M264 0h1v8h-1z"/>&amp;quot; &amp;quot;<path fill="rgba(0, 162, 201, 1)" d="M265 0h1v8h-1z"/>&amp;quot; &amp;quot;<path fill="rgba(0, 176, 215, 1)" d="M266 0h1v8h-1z"/>&amp;quot; &amp;quot;<path fill="rgba(0, 189, 238, 1)" d="M267 0h1v8h-1z"/>&amp;quot; &amp;quot;<path fill="rgba(0, 127, 151, 1)" d="M268 0h1v8h-1z"/>&amp;quot; &amp;quot;<path fill="rgba(62, 169, 147, 1)" d="M269 0h1v8h-1z"/>&amp;quot; &amp;quot;<path fill="rgba(215, 252, 192, 1)" d="M270 0h1v8h-1z"/>&amp;quot; &amp;quot;<path fill="rgba(251, 217, 134, 1)" d="M271 0h1v8h-1z"/>&amp;quot; &amp;quot;<path fill="rgba(198, 158, 57, 1)" d="M272 0h1v8h-1z"/>&amp;quot; &amp;quot;<path fill="rgba(170, 176, 81, 1)" d="M273 0h1v8h-1z"/>&amp;quot; &amp;quot;<path fill="rgba(247, 254, 183, 1)" d="M274 0h1v8h-1z"/>&amp;quot; &amp;quot;<path fill="rgba(232, 188, 164, 1)" d="M275 0h1v8h-1z"/>&amp;quot; &amp;quot;<path fill="rgba(219, 153, 136, 1)" d="M276 0h1v8h-1z"/>&amp;quot; &amp;quot;<path fill="rgba(168, 99, 47, 1)" d="M277 0h1v8h-1z"/>&amp;quot; &amp;quot;<path fill="rgba(220, 154, 97, 1)" d="M278 0h1v8h-1z"/>&amp;quot; &amp;quot;<path fill="rgba(137, 72, 32, 1)" d="M279 0h1v8h-1z"/>&amp;quot; &amp;quot;<path fill="rgba(167, 125, 92, 1)" d="M280 0h1v8h-1z"/>&amp;quot; &amp;quot;<path fill="rgba(139, 148, 98, 1)" d="M281 0h1v8h-1z"/>&amp;quot; &amp;quot;<path fill="rgba(79, 137, 81, 1)" d="M282 0h1v8h-1z"/>&amp;quot; &amp;quot;<path fill="rgba(73, 173, 121, 1)" d="M283 0h1v8h-1z"/>&amp;quot; &amp;quot;<path fill="rgba(0, 125, 68, 1)" d="M284 0h1v8h-1z"/>&amp;quot; &amp;quot;<path fill="rgba(161, 255, 189, 1)" d="M285 0h1v8h-1z"/>&amp;quot; &amp;quot;<path fill="rgba(16, 146, 79, 1)" d="M286 0h1v8h-1z"/>&amp;quot; &amp;quot;<path fill="rgba(84, 215, 168, 1)" d="M287 0h1v8h-1z"/>&amp;quot; &amp;quot;<path fill="rgba(139, 148, 98, 1)" d="M288 0h1v8h-1z"/>&amp;quot; &amp;quot;<path fill="rgba(136, 89, 104, 1)" d="M289 0h1v8h-1z"/>&amp;quot; &amp;quot;<path fill="rgba(229, 125, 154, 1)" d="M290 0h1v8h-1z"/>&amp;quot; &amp;quot;<path fill="rgba(147, 22, 54, 1)" d="M291 0h1v8h-1z"/>&amp;quot; &amp;quot;<path fill="rgba(255, 171, 178, 1)" d="M292 0h1v8h-1z"/>&amp;quot; &amp;quot;<path fill="rgba(228, 219, 207, 1)" d="M293 0h1v8h-1z"/>&amp;quot; &amp;quot;<path fill="rgba(148, 141, 123, 1)" d="M294 0h1v8h-1z"/>&amp;quot; &amp;quot;<path fill="rgba(206, 120, 121, 1)" d="M295 0h1v8h-1z"/>&amp;quot; &amp;quot;<path fill="rgba(225, 119, 122, 1)" d="M296 0h1v8h-1z"/>&amp;quot; &amp;quot;<path fill="rgba(255, 226, 224, 1)" d="M297 0h1v8h-1z"/>&amp;quot; &amp;quot;<path fill="rgba(167, 91, 93, 1)" d="M298 0h1v8h-1z"/>&amp;quot; &amp;quot;<path fill="rgba(229, 117, 139, 1)" d="M299 0h1v8h-1z"/>&amp;quot; &amp;quot;<path fill="rgba(255, 127, 161, 1)" d="M300 0h1v8h-1z"/>&amp;quot; &amp;quot;<path fill="rgba(198, 0, 63, 1)" d="M301 0h1v8h-1z"/>&amp;quot; &amp;quot;<path fill="rgba(229, 42, 94, 1)" d="M302 0h1v8h-1z"/>&amp;quot; &amp;quot;<path fill="rgba(214, 69, 108, 1)" d="M303 0h1v8h-1z"/>&amp;quot; &amp;quot;<path fill="rgba(255, 158, 179, 1)" d="M304 0h1v8h-1z"/>&amp;quot; &amp;quot;<path fill="rgba(255, 234, 240, 1)" d="M305 0h1v8h-1z"/>&amp;quot; &amp;quot;<path fill="rgba(178, 94, 99, 1)" d="M306 0h1v8h-1z"/>&amp;quot; &amp;quot;<path fill="rgba(174, 32, 60, 1)" d="M307 0h1v8h-1z"/>&amp;quot; &amp;quot;<path fill="rgba(255, 163, 188, 1)" d="M308 0h1v8h-1z"/>&amp;quot; &amp;quot;<path fill="rgba(195, 135, 167, 1)" d="M309 0h1v8h-1z"/>&amp;quot; &amp;quot;<path fill="rgba(155, 96, 128, 1)" d="M310 0h1v8h-1z"/>&amp;quot; &amp;quot;<path fill="rgba(160, 19, 68, 1)" d="M311 0h1v8h-1z"/>&amp;quot; &amp;quot;<path fill="rgba(251, 121, 155, 1)" d="M312 0h1v8h-1z"/>&amp;quot; &amp;quot;<path fill="rgba(255, 221, 246, 1)" d="M313 0h1v8h-1z"/>&amp;quot; &amp;quot;<path fill="rgba(144, 105, 131, 1)" d="M314 0h1v8h-1z"/>&amp;quot; &amp;quot;<path fill="rgba(208, 150, 179, 1)" d="M315 0h1v8h-1z"/>&amp;quot; &amp;quot;<path fill="rgba(170, 132, 154, 1)" d="M316 0h1v8h-1z"/>&amp;quot; &amp;quot;<path fill="rgba(234, 254, 255, 1)" d="M317 0h1v8h-1z"/>&amp;quot; &amp;quot;<path fill="rgba(196, 205, 216, 1)" d="M318 0h1v8h-1z"/>&amp;quot; &amp;quot;<path fill="rgba(186, 121, 147, 1)" d="M319 0h1v8h-1z"/>&amp;quot; &amp;quot;<path fill="rgba(190, 144, 180, 1)" d="M320 0h1v8h-1z"/>&amp;quot; &amp;quot;<path fill="rgba(103, 179, 216, 1)" d="M321 0h1v8h-1z"/>&amp;quot; &amp;quot;<path fill="rgba(63, 152, 181, 1)" d="M322 0h1v8h-1z"/>&amp;quot; &amp;quot;<path fill="rgba(176, 151, 170, 1)" d="M323 0h1v8h-1z"/>&amp;quot; &amp;quot;<path fill="rgba(186, 146, 158, 1)" d="M324 0h1v8h-1z"/>&amp;quot; &amp;quot;<path fill="rgba(152, 179, 193, 1)" d="M325 0h1v8h-1z"/>&amp;quot; &amp;quot;<path fill="rgba(209, 255, 255, 1)" d="M326 0h1v8h-1z"/>&amp;quot; &amp;quot;<path fill="rgba(229, 255, 255, 1)" d="M327 0h1v8h-1z"/>&amp;quot; &amp;quot;<path fill="rgba(226, 249, 253, 1)" d="M328 0h1v8h-1z"/>&amp;quot; &amp;quot;<path fill="rgba(179, 177, 198, 1)" d="M329 0h1v8h-1z"/>&amp;quot; &amp;quot;<path fill="rgba(179, 159, 176, 1)" d="M330 0h1v8h-1z"/>&amp;quot; &amp;quot;<path fill="rgba(255, 242, 250, 1)" d="M331 0h1v8h-1z"/>&amp;quot; &amp;quot;<path fill="rgba(171, 130, 125, 1)" d="M332 0h1v8h-1z"/>&amp;quot; &amp;quot;<path fill="rgba(255, 253, 237, 1)" d="M333 0h1v8h-1z"/>&amp;quot; &amp;quot;<path fill="rgba(255, 251, 240, 1)" d="M334 0h1v8h-1z"/>&amp;quot; &amp;quot;<path fill="rgba(160, 135, 142, 1)" d="M335 0h1v8h-1z"/>&amp;quot; &amp;quot;<path fill="rgba(255, 248, 251, 1)" d="M336 0h1v8h-1z"/>&amp;quot; &amp;quot;<path fill="rgba(250, 239, 217, 1)" d="M337 0h1v8h-1z"/>&amp;quot; &amp;quot;<path fill="rgba(254, 255, 229, 1)" d="M338 0h1v8h-1z"/>&amp;quot; &amp;quot;<path fill="rgba(255, 255, 253, 1)" d="M339 0h1v8h-1z"/>&amp;quot; &amp;quot;<path fill="rgba(249, 254, 255, 1)" d="M340 0h1v8h-1z"/>&amp;quot; &amp;quot;<path fill="rgba(253, 253, 251, 1)" d="M341 0h1v8h-1z"/>&amp;quot; &amp;quot;<path fill="rgba(253, 255, 250, 1)" d="M342 0h1v8h-1z"/>&amp;quot; &amp;quot;<path fill="rgba(254, 253, 251, 1)" d="M343 0h1v8h-1z"/>&amp;quot; &amp;quot;<path fill="rgba(254, 254, 254, 1)" d="M344 0h1v8h-1z"/>&amp;quot; &amp;quot;<path fill="rgba(253, 253, 255, 1)" d="M345 0h1v8h-1z"/>&amp;quot; &amp;quot;<path fill="rgba(254, 255, 255, 1)" d="M346 0h1v8h-1z"/>&amp;quot; &amp;quot;<path fill="rgba(255, 253, 254, 1)" d="M347 0h1v8h-1z"/>&amp;quot; &amp;quot;<path fill="rgba(255, 242, 248, 1)" d="M348 0h1v8h-1z"/>&amp;quot; &amp;quot;<path fill="rgba(120, 0, 31, 1)" d="M349 0h1v8h-1z"/>&amp;quot; &amp;quot;<path fill="rgba(253, 132, 158, 1)" d="M350 0h1v8h-1z"/>&amp;quot; &amp;quot;<path fill="rgba(255, 190, 217, 1)" d="M351 0h1v8h-1z"/>&amp;quot; &amp;quot;<path fill="rgba(133, 101, 128, 1)" d="M352 0h1v8h-1z"/>&amp;quot; &amp;quot;<path fill="rgba(146, 127, 154, 1)" d="M353 0h1v8h-1z"/>&amp;quot; &amp;quot;<path fill="rgba(120, 132, 158, 1)" d="M354 0h1v8h-1z"/>&amp;quot; &amp;quot;<path fill="rgba(166, 229, 255, 1)" d="M355 0h1v8h-1z"/>&amp;quot; &amp;quot;<path fill="rgba(36, 101, 126, 1)" d="M356 0h1v8h-1z"/>&amp;quot; &amp;quot;<path fill="rgba(205, 201, 228, 1)" d="M357 0h1v8h-1z"/>&amp;quot; &amp;quot;<path fill="rgba(152, 131, 159, 1)" d="M358 0h1v8h-1z"/>&amp;quot; &amp;quot;<path fill="rgba(163, 154, 196, 1)" d="M359 0h1v8h-1z"/>&amp;quot; &amp;quot;<path fill="rgba(159, 168, 215, 1)" d="M360 0h1v8h-1z"/>&amp;quot; &amp;quot;<path fill="rgba(100, 123, 174, 1)" d="M361 0h1v8h-1z"/>&amp;quot; &amp;quot;<path fill="rgba(166, 160, 211, 1)" d="M362 0h1v8h-1z"/>&amp;quot; &amp;quot;<path fill="rgba(188, 109, 157, 1)" d="M363 0h1v8h-1z"/>&amp;quot; &amp;quot;<path fill="rgba(255, 161, 205, 1)" d="M364 0h1v8h-1z"/>&amp;quot; &amp;quot;<path fill="rgba(183, 102, 146, 1)" d="M365 0h1v8h-1z"/>&amp;quot; &amp;quot;<path fill="rgba(155, 72, 129, 1)" d="M366 0h1v8h-1z"/>&amp;quot; &amp;quot;<path fill="rgba(149, 31, 121, 1)" d="M367 0h1v8h-1z"/>&amp;quot; &amp;quot;<path fill="rgba(182, 19, 131, 1)" d="M368 0h1v8h-1z"/>&amp;quot; &amp;quot;<path fill="rgba(227, 9, 133, 1)" d="M369 0h1v8h-1z"/>&amp;quot; &amp;quot;<path fill="rgba(165, 0, 80, 1)" d="M370 0h1v8h-1z"/>&amp;quot; &amp;quot;<path fill="rgba(239, 194, 214, 1)" d="M371 0h1v8h-1z"/>&amp;quot; &amp;quot;<path fill="rgba(176, 176, 140, 1)" d="M372 0h1v8h-1z"/>&amp;quot; &amp;quot;<path fill="rgba(232, 202, 94, 1)" d="M373 0h1v8h-1z"/>&amp;quot; &amp;quot;<path fill="rgba(255, 211, 72, 1)" d="M374 0h1v8h-1z"/>&amp;quot; &amp;quot;<path fill="rgba(204, 163, 33, 1)" d="M375 0h1v8h-1z"/>&amp;quot; &amp;quot;<path fill="rgba(254, 246, 130, 1)" d="M376 0h1v8h-1z"/>&amp;quot; &amp;quot;<path fill="rgba(254, 246, 130, 1)" d="M377 0h1v8h-1z"/>&amp;quot; &amp;quot;<path fill="rgba(253, 239, 125, 1)" d="M378 0h1v8h-1z"/>&amp;quot; &amp;quot;<path fill="rgba(255, 206, 108, 1)" d="M379 0h1v8h-1z"/>&amp;quot; &amp;quot;<path fill="rgba(255, 161, 205, 1)" d="M380 0h1v8h-1z"/>&amp;quot; &amp;quot;<path fill="rgba(255, 240, 185, 1)" d="M381 0h1v8h-1z"/>&amp;quot; &amp;quot;<path fill="rgba(164, 118, 82, 1)" d="M382 0h1v8h-1z"/>&amp;quot; &amp;quot;<path fill="rgba(255, 250, 233, 1)" d="M383 0h1v8h-1z"/>&amp;quot; &amp;quot;<path fill="rgba(254, 254, 224, 1)" d="M384 0h1v8h-1z"/>&amp;quot; &amp;quot;<path fill="rgba(242, 178, 102, 1)" d="M385 0h1v8h-1z"/>&amp;quot; &amp;quot;<path fill="rgba(209, 143, 57, 1)" d="M386 0h1v8h-1z"/>&amp;quot; &amp;quot;<path fill="rgba(255, 249, 196, 1)" d="M387 0h1v8h-1z"/>&amp;quot; &amp;quot;<path fill="rgba(254, 255, 232, 1)" d="M388 0h1v8h-1z"/>&amp;quot; &amp;quot;<path fill="rgba(255, 252, 249, 1)" d="M389 0h1v8h-1z"/>&amp;quot; &amp;quot;<path fill="rgba(251, 255, 255, 1)" d="M390 0h1v8h-1z"/>&amp;quot; &amp;quot;<path fill="rgba(94, 127, 103, 1)" d="M391 0h1v8h-1z"/>&amp;quot; &amp;quot;<path fill="rgba(229, 255, 222, 1)" d="M392 0h1v8h-1z"/>&amp;quot; &amp;quot;<path fill="rgba(106, 174, 84, 1)" d="M393 0h1v8h-1z"/>&amp;quot; &amp;quot;<path fill="rgba(154, 224, 123, 1)" d="M394 0h1v8h-1z"/>&amp;quot; &amp;quot;<path fill="rgba(137, 197, 111, 1)" d="M395 0h1v8h-1z"/>&amp;quot; &amp;quot;<path fill="rgba(179, 255, 172, 1)" d="M396 0h1v8h-1z"/>&amp;quot; &amp;quot;<path fill="rgba(0, 148, 50, 1)" d="M397 0h1v8h-1z"/>&amp;quot; &amp;quot;<path fill="rgba(61, 214, 100, 1)" d="M398 0h1v8h-1z"/>&amp;quot; &amp;quot;<path fill="rgba(80, 200, 73, 1)" d="M399 0h1v8h-1z"/>&amp;quot; &amp;quot;<path fill="rgba(86, 195, 59, 1)" d="M400 0h1v8h-1z"/>&amp;quot; &amp;quot;<path fill="rgba(91, 200, 62, 1)" d="M401 0h1v8h-1z"/>&amp;quot; &amp;quot;<path fill="rgba(90, 180, 57, 1)" d="M402 0h1v8h-1z"/>&amp;quot; &amp;quot;<path fill="rgba(183, 240, 152, 1)" d="M403 0h1v8h-1z"/>&amp;quot; &amp;quot;<path fill="rgba(196, 254, 172, 1)" d="M404 0h1v8h-1z"/>&amp;quot; &amp;quot;<path fill="rgba(89, 189, 85, 1)" d="M405 0h1v8h-1z"/>&amp;quot; &amp;quot;<path fill="rgba(64, 178, 65, 1)" d="M406 0h1v8h-1z"/>&amp;quot; &amp;quot;<path fill="rgba(155, 245, 136, 1)" d="M407 0h1v8h-1z"/>&amp;quot; &amp;quot;<path fill="rgba(103, 178, 101, 1)" d="M408 0h1v8h-1z"/>&amp;quot; &amp;quot;<path fill="rgba(147, 211, 187, 1)" d="M409 0h1v8h-1z"/>&amp;quot; &amp;quot;<path fill="rgba(210, 255, 255, 1)" d="M410 0h1v8h-1z"/>&amp;quot; &amp;quot;<path fill="rgba(158, 199, 177, 1)" d="M411 0h1v8h-1z"/>&amp;quot; &amp;quot;<path fill="rgba(200, 255, 224, 1)" d="M412 0h1v8h-1z"/>&amp;quot; &amp;quot;<path fill="rgba(0, 114, 88, 1)" d="M413 0h1v8h-1z"/>&amp;quot; &amp;quot;<path fill="rgba(122, 226, 188, 1)" d="M414 0h1v8h-1z"/>&amp;quot; &amp;quot;<path fill="rgba(173, 232, 165, 1)" d="M415 0h1v8h-1z"/>&amp;quot; &amp;quot;<path fill="rgba(189, 234, 166, 1)" d="M416 0h1v8h-1z"/>&amp;quot; &amp;quot;<path fill="rgba(87, 146, 103, 1)" d="M417 0h1v8h-1z"/>&amp;quot; &amp;quot;<path fill="rgba(221, 255, 232, 1)" d="M418 0h1v8h-1z"/>&amp;quot; &amp;quot;<path fill="rgba(177, 224, 165, 1)" d="M419 0h1v8h-1z"/>&amp;quot; &amp;quot;<path fill="rgba(183, 226, 156, 1)" d="M420 0h1v8h-1z"/>&amp;quot; &amp;quot;<path fill="rgba(186, 140, 128, 1)" d="M421 0h1v8h-1z"/>&amp;quot; &amp;quot;<path fill="rgba(243, 255, 218, 1)" d="M422 0h1v8h-1z"/>&amp;quot; &amp;quot;<path fill="rgba(253, 255, 227, 1)" d="M423 0h1v8h-1z"/>&amp;quot; &amp;quot;<path fill="rgba(199, 202, 175, 1)" d="M424 0h1v8h-1z"/>&amp;quot; &amp;quot;<path fill="rgba(84, 113, 82, 1)" d="M425 0h1v8h-1z"/>&amp;quot; &amp;quot;<path fill="rgba(152, 185, 159, 1)" d="M426 0h1v8h-1z"/>&amp;quot; &amp;quot;<path fill="rgba(98, 116, 100, 1)" d="M427 0h1v8h-1z"/>&amp;quot; &amp;quot;<path fill="rgba(254, 251, 242, 1)" d="M428 0h1v8h-1z"/>&amp;quot; &amp;quot;<path fill="rgba(255, 248, 237, 1)" d="M429 0h1v8h-1z"/>&amp;quot; &amp;quot;<path fill="rgba(186, 140, 128, 1)" d="M430 0h1v8h-1z"/>&amp;quot; &amp;quot;<path fill="rgba(242, 188, 174, 1)" d="M431 0h1v8h-1z"/>&amp;quot; &amp;quot;<path fill="rgba(203, 163, 147, 1)" d="M432 0h1v8h-1z"/>&amp;quot; &amp;quot;<path fill="rgba(254, 255, 234, 1)" d="M433 0h1v8h-1z"/>&amp;quot; &amp;quot;<path fill="rgba(189, 209, 137, 1)" d="M434 0h1v8h-1z"/>&amp;quot; &amp;quot;<path fill="rgba(219, 232, 65, 1)" d="M435 0h1v8h-1z"/>&amp;quot; &amp;quot;<path fill="rgba(232, 240, 55, 1)" d="M436 0h1v8h-1z"/>&amp;quot; &amp;quot;<path fill="rgba(250, 255, 151, 1)" d="M437 0h1v8h-1z"/>&amp;quot; &amp;quot;<path fill="rgba(230, 229, 119, 1)" d="M438 0h1v8h-1z"/>&amp;quot; &amp;quot;<path fill="rgba(242, 251, 96, 1)" d="M439 0h1v8h-1z"/>&amp;quot; &amp;quot;<path fill="rgba(232, 228, 60, 1)" d="M440 0h1v8h-1z"/>&amp;quot; &amp;quot;<path fill="rgba(255, 231, 94, 1)" d="M441 0h1v8h-1z"/>&amp;quot; &amp;quot;<path fill="rgba(179, 136, 0, 1)" d="M442 0h1v8h-1z"/>&amp;quot; &amp;quot;<path fill="rgba(248, 217, 94, 1)" d="M443 0h1v8h-1z"/>&amp;quot; &amp;quot;<path fill="rgba(255, 239, 119, 1)" d="M444 0h1v8h-1z"/>&amp;quot; &amp;quot;<path fill="rgba(252, 198, 80, 1)" d="M445 0h1v8h-1z"/>&amp;quot; &amp;quot;<path fill="rgba(205, 149, 34, 1)" d="M446 0h1v8h-1z"/>&amp;quot; &amp;quot;<path fill="rgba(240, 192, 105, 1)" d="M447 0h1v8h-1z"/>&amp;quot; &amp;quot;<path fill="rgba(255, 214, 148, 1)" d="M448 0h1v8h-1z"/>&amp;quot; &amp;quot;<path fill="rgba(172, 85, 48, 1)" d="M449 0h1v8h-1z"/>&amp;quot; &amp;quot;<path fill="rgba(255, 199, 142, 1)" d="M450 0h1v8h-1z"/>&amp;quot; &amp;quot;<path fill="rgba(211, 126, 0, 1)" d="M451 0h1v8h-1z"/>&amp;quot; &amp;quot;<path fill="rgba(255, 204, 50, 1)" d="M452 0h1v8h-1z"/>&amp;quot; &amp;quot;<path fill="rgba(255, 180, 56, 1)" d="M453 0h1v8h-1z"/>&amp;quot; &amp;quot;<path fill="rgba(210, 122, 26, 1)" d="M454 0h1v8h-1z"/>&amp;quot; &amp;quot;<path fill="rgba(210, 101, 57, 1)" d="M455 0h1v8h-1z"/>&amp;quot; &amp;quot;<path fill="rgba(255, 168, 125, 1)" d="M456 0h1v8h-1z"/>&amp;quot; &amp;quot;<path fill="rgba(253, 162, 71, 1)" d="M457 0h1v8h-1z"/>&amp;quot; &amp;quot;<path fill="rgba(216, 139, 32, 1)" d="M458 0h1v8h-1z"/>&amp;quot; &amp;quot;<path fill="rgba(176, 113, 39, 1)" d="M459 0h1v8h-1z"/>&amp;quot; &amp;quot;<path fill="rgba(255, 239, 119, 1)" d="M460 0h1v8h-1z"/>&amp;quot; &amp;quot;<path fill="rgba(246, 244, 211, 1)" d="M461 0h1v8h-1z"/>&amp;quot; &amp;quot;<path fill="rgba(228, 233, 198, 1)" d="M462 0h1v8h-1z"/>&amp;quot; &amp;quot;<path fill="rgba(248, 230, 177, 1)" d="M463 0h1v8h-1z"/>&amp;quot; &amp;quot;<path fill="rgba(163, 126, 81, 1)" d="M464 0h1v8h-1z"/>&amp;quot; &amp;quot;<path fill="rgba(255, 242, 225, 1)" d="M465 0h1v8h-1z"/>&amp;quot; &amp;quot;<path fill="rgba(169, 137, 121, 1)" d="M466 0h1v8h-1z"/>&amp;quot; &amp;quot;<path fill="rgba(248, 255, 221, 1)" d="M467 0h1v8h-1z"/>&amp;quot; &amp;quot;<path fill="rgba(159, 169, 128, 1)" d="M468 0h1v8h-1z"/>&amp;quot; &amp;quot;<path fill="rgba(255, 205, 199, 1)" d="M469 0h1v8h-1z"/>&amp;quot; &amp;quot;<path fill="rgba(230, 129, 135, 1)" d="M470 0h1v8h-1z"/>&amp;quot; &amp;quot;<path fill="rgba(240, 142, 138, 1)" d="M471 0h1v8h-1z"/>&amp;quot; &amp;quot;<path fill="rgba(189, 103, 104, 1)" d="M472 0h1v8h-1z"/>&amp;quot; &amp;quot;<path fill="rgba(145, 71, 102, 1)" d="M473 0h1v8h-1z"/>&amp;quot; &amp;quot;<path fill="rgba(180, 88, 125, 1)" d="M474 0h1v8h-1z"/>&amp;quot; &amp;quot;<path fill="rgba(255, 139, 158, 1)" d="M475 0h1v8h-1z"/>&amp;quot; &amp;quot;<path fill="rgba(160, 0, 4, 1)" d="M476 0h1v8h-1z"/>&amp;quot; &amp;quot;<path fill="rgba(242, 86, 119, 1)" d="M477 0h1v8h-1z"/>&amp;quot; &amp;quot;<path fill="rgba(163, 46, 79, 1)" d="M478 0h1v8h-1z"/>&amp;quot; &amp;quot;<path fill="rgba(255, 225, 242, 1)" d="M479 0h1v8h-1z"/>&amp;quot; &amp;quot;<path fill="rgba(239, 255, 255, 1)" d="M480 0h1v8h-1z"/>&amp;quot; &amp;quot;<path fill="rgba(105, 197, 221, 1)" d="M481 0h1v8h-1z"/>&amp;quot; &amp;quot;<path fill="rgba(90, 203, 225, 1)" d="M482 0h1v8h-1z"/>&amp;quot; &amp;quot;<path fill="rgba(107, 171, 183, 1)" d="M483 0h1v8h-1z"/>&amp;quot; &amp;quot;<path fill="rgba(243, 255, 255, 1)" d="M484 0h1v8h-1z"/>&amp;quot; &amp;quot;<path fill="rgba(255, 229, 203, 1)" d="M485 0h1v8h-1z"/>&amp;quot; &amp;quot;<path fill="rgba(225, 181, 141, 1)" d="M486 0h1v8h-1z"/>&amp;quot; &amp;quot;<path fill="rgba(218, 183, 144, 1)" d="M487 0h1v8h-1z"/>&amp;quot; &amp;quot;<path fill="rgba(253, 255, 222, 1)" d="M488 0h1v8h-1z"/>&amp;quot; &amp;quot;<path fill="rgba(105, 118, 92, 1)" d="M489 0h1v8h-1z"/>&amp;quot; &amp;quot;<path fill="rgba(215, 229, 208, 1)" d="M490 0h1v8h-1z"/>&amp;quot; &amp;quot;<path fill="rgba(206, 199, 179, 1)" d="M491 0h1v8h-1z"/>&amp;quot; &amp;quot;<path fill="rgba(253, 255, 250, 1)" d="M492 0h1v8h-1z"/>&amp;quot; &amp;quot;<path fill="rgba(225, 255, 255, 1)" d="M493 0h1v8h-1z"/>&amp;quot; &amp;quot;<path fill="rgba(105, 189, 204, 1)" d="M494 0h1v8h-1z"/>&amp;quot; &amp;quot;<path fill="rgba(0, 113, 145, 1)" d="M495 0h1v8h-1z"/>&amp;quot; &amp;quot;<path fill="rgba(121, 234, 255, 1)" d="M496 0h1v8h-1z"/>&amp;quot; &amp;quot;<path fill="rgba(196, 255, 255, 1)" d="M497 0h1v8h-1z"/>&amp;quot; &amp;quot;<path fill="rgba(93, 174, 159, 1)" d="M498 0h1v8h-1z"/>&amp;quot; &amp;quot;<path fill="rgba(93, 174, 159, 1)" d="M499 0h1v8h-1z"/>&amp;quot; &amp;quot;<path fill="rgba(210, 255, 255, 1)" d="M500 0h1v8h-1z"/>&amp;quot;</svg>