<svg xmlns="http://www.w3.org/2000/svg" xmlns:xlink="http://www.w3.org/1999/xlink" version="1.1" x="0px" y="0px" height="500px" width="500px" xml:space="preserve">"<style>.style0{fill:	rgba(187, 125, 131, 1);}.style1{fill:	rgba(232, 186, 194, 1);}.style10{fill:	rgba(253, 253, 251, 1);}.style100{fill:	rgba(247, 82, 151, 1);}.style101{fill:	rgba(201, 0, 71, 1);}.style102{fill:	rgba(189, 0, 59, 1);}.style103{fill:	rgba(255, 177, 179, 1);}.style104{fill:	rgba(255, 231, 207, 1);}.style105{fill:	rgba(187, 150, 107, 1);}.style106{fill:	rgba(255, 246, 196, 1);}.style107{fill:	rgba(255, 236, 193, 1);}.style108{fill:	rgba(241, 212, 180, 1);}.style109{fill:	rgba(255, 216, 199, 1);}.style11{fill:	rgba(252, 255, 252, 1);}.style110{fill:	rgba(149, 96, 79, 1);}.style111{fill:	rgba(255, 243, 220, 1);}.style112{fill:	rgba(230, 179, 144, 1);}.style113{fill:	rgba(255, 192, 147, 1);}.style114{fill:	rgba(198, 125, 59, 1);}.style115{fill:	rgba(243, 191, 103, 1);}.style116{fill:	rgba(228, 193, 79, 1);}.style117{fill:	rgba(253, 248, 114, 1);}.style118{fill:	rgba(207, 169, 0, 1);}.style119{fill:	rgba(255, 203, 29, 1);}.style12{fill:	rgba(254, 249, 255, 1);}.style120{fill:	rgba(226, 162, 0, 1);}.style121{fill:	rgba(242, 185, 0, 1);}.style122{fill:	rgba(255, 214, 94, 1);}.style123{fill:	rgba(225, 155, 113, 1);}.style124{fill:	rgba(185, 140, 139, 1);}.style125{fill:	rgba(204, 187, 177, 1);}.style126{fill:	rgba(46, 89, 105, 1);}.style127{fill:	rgba(82, 150, 161, 1);}.style128{fill:	rgba(138, 182, 164, 1);}.style129{fill:	rgba(155, 171, 145, 1);}.style13{fill:	rgba(250, 255, 254, 1);}.style130{fill:	rgba(134, 111, 107, 1);}.style131{fill:	rgba(161, 124, 127, 1);}.style132{fill:	rgba(228, 192, 188, 1);}.style133{fill:	rgba(151, 74, 88, 1);}.style134{fill:	rgba(255, 238, 242, 1);}.style135{fill:	rgba(233, 216, 190, 1);}.style136{fill:	rgba(204, 204, 166, 1);}.style137{fill:	rgba(160, 149, 114, 1);}.style138{fill:	rgba(219, 222, 176, 1);}.style139{fill:	rgba(189, 224, 162, 1);}.style14{fill:	rgba(247, 255, 251, 1);}.style140{fill:	rgba(179, 220, 170, 1);}.style141{fill:	rgba(250, 255, 255, 1);}.style142{fill:	rgba(146, 144, 157, 1);}.style143{fill:	rgba(218, 223, 224, 1);}.style144{fill:	rgba(251, 255, 253, 1);}.style145{fill:	rgba(254, 254, 252, 1);}.style146{fill:	rgba(254, 255, 255, 1);}.style147{fill:	rgba(255, 254, 252, 1);}.style148{fill:	rgba(254, 254, 254, 1);}.style149{fill:	rgba(251, 254, 251, 1);}.style15{fill:	rgba(254, 255, 253, 1);}.style150{fill:	rgba(255, 252, 245, 1);}.style151{fill:	rgba(249, 203, 194, 1);}.style152{fill:	rgba(195, 153, 132, 1);}.style153{fill:	rgba(254, 255, 226, 1);}.style154{fill:	rgba(255, 230, 214, 1);}.style155{fill:	rgba(255, 227, 254, 1);}.style156{fill:	rgba(132, 18, 55, 1);}.style157{fill:	rgba(239, 148, 137, 1);}.style158{fill:	rgba(208, 140, 103, 1);}.style159{fill:	rgba(255, 231, 186, 1);}.style16{fill:	rgba(250, 254, 242, 1);}.style160{fill:	rgba(180, 157, 81, 1);}.style161{fill:	rgba(227, 229, 99, 1);}.style162{fill:	rgba(156, 177, 55, 1);}.style163{fill:	rgba(237, 222, 143, 1);}.style164{fill:	rgba(176, 85, 67, 1);}.style165{fill:	rgba(248, 152, 136, 1);}.style166{fill:	rgba(255, 225, 153, 1);}.style167{fill:	rgba(156, 146, 68, 1);}.style168{fill:	rgba(176, 147, 123, 1);}.style169{fill:	rgba(178, 154, 147, 1);}.style17{fill:	rgba(254, 255, 235, 1);}.style170{fill:	rgba(254, 255, 238, 1);}.style171{fill:	rgba(154, 201, 180, 1);}.style172{fill:	rgba(96, 206, 200, 1);}.style173{fill:	rgba(105, 211, 208, 1);}.style174{fill:	rgba(134, 163, 155, 1);}.style175{fill:	rgba(176, 189, 163, 1);}.style176{fill:	rgba(194, 239, 180, 1);}.style177{fill:	rgba(138, 192, 125, 1);}.style178{fill:	rgba(237, 255, 210, 1);}.style179{fill:	rgba(176, 211, 148, 1);}.style18{fill:	rgba(237, 241, 210, 1);}.style180{fill:	rgba(171, 231, 143, 1);}.style181{fill:	rgba(86, 168, 65, 1);}.style182{fill:	rgba(163, 249, 145, 1);}.style183{fill:	rgba(80, 170, 68, 1);}.style184{fill:	rgba(128, 207, 109, 1);}.style185{fill:	rgba(180, 253, 154, 1);}.style186{fill:	rgba(116, 190, 91, 1);}.style187{fill:	rgba(126, 210, 101, 1);}.style188{fill:	rgba(87, 191, 71, 1);}.style189{fill:	rgba(133, 192, 85, 1);}.style19{fill:	rgba(241, 237, 213, 1);}.style190{fill:	rgba(241, 215, 144, 1);}.style191{fill:	rgba(114, 70, 43, 1);}.style192{fill:	rgba(106, 115, 127, 1);}.style193{fill:	rgba(97, 98, 128, 1);}.style194{fill:	rgba(149, 82, 112, 1);}.style195{fill:	rgba(185, 133, 160, 1);}.style196{fill:	rgba(86, 130, 158, 1);}.style197{fill:	rgba(73, 104, 133, 1);}.style198{fill:	rgba(208, 123, 161, 1);}.style199{fill:	rgba(204, 99, 134, 1);}.style2{fill:	rgba(255, 248, 255, 1);}.style20{fill:	rgba(254, 255, 243, 1);}.style200{fill:	rgba(165, 126, 152, 1);}.style201{fill:	rgba(86, 77, 99, 1);}.style202{fill:	rgba(255, 246, 255, 1);}.style203{fill:	rgba(158, 146, 150, 1);}.style204{fill:	rgba(119, 154, 135, 1);}.style205{fill:	rgba(228, 255, 241, 1);}.style206{fill:	rgba(245, 255, 239, 1);}.style207{fill:	rgba(127, 137, 112, 1);}.style208{fill:	rgba(98, 106, 99, 1);}.style209{fill:	rgba(248, 243, 244, 1);}.style21{fill:	rgba(255, 253, 255, 1);}.style210{fill:	rgba(124, 99, 106, 1);}.style211{fill:	rgba(255, 243, 255, 1);}.style212{fill:	rgba(157, 96, 109, 1);}.style213{fill:	rgba(255, 196, 201, 1);}.style214{fill:	rgba(203, 153, 142, 1);}.style215{fill:	rgba(180, 169, 147, 1);}.style216{fill:	rgba(196, 195, 178, 1);}.style217{fill:	rgba(175, 158, 170, 1);}.style218{fill:	rgba(213, 210, 227, 1);}.style219{fill:	rgba(99, 154, 160, 1);}.style22{fill:	rgba(90, 88, 101, 1);}.style220{fill:	rgba(191, 250, 239, 1);}.style221{fill:	rgba(189, 190, 170, 1);}.style222{fill:	rgba(106, 122, 96, 1);}.style223{fill:	rgba(69, 175, 154, 1);}.style224{fill:	rgba(154, 255, 251, 1);}.style225{fill:	rgba(121, 165, 174, 1);}.style226{fill:	rgba(171, 198, 203, 1);}.style227{fill:	rgba(103, 150, 137, 1);}.style228{fill:	rgba(117, 197, 182, 1);}.style229{fill:	rgba(99, 212, 223, 1);}.style23{fill:	rgba(251, 255, 255, 1);}.style230{fill:	rgba(16, 176, 191, 1);}.style231{fill:	rgba(38, 181, 182, 1);}.style232{fill:	rgba(20, 200, 206, 1);}.style233{fill:	rgba(0, 181, 211, 1);}.style234{fill:	rgba(0, 192, 232, 1);}.style235{fill:	rgba(0, 162, 201, 1);}.style236{fill:	rgba(0, 176, 215, 1);}.style237{fill:	rgba(0, 189, 238, 1);}.style238{fill:	rgba(0, 127, 151, 1);}.style239{fill:	rgba(62, 169, 147, 1);}.style24{fill:	rgba(255, 228, 255, 1);}.style240{fill:	rgba(215, 252, 192, 1);}.style241{fill:	rgba(251, 217, 134, 1);}.style242{fill:	rgba(198, 158, 57, 1);}.style243{fill:	rgba(170, 176, 81, 1);}.style244{fill:	rgba(247, 254, 183, 1);}.style245{fill:	rgba(232, 188, 164, 1);}.style246{fill:	rgba(219, 153, 136, 1);}.style247{fill:	rgba(168, 99, 47, 1);}.style248{fill:	rgba(220, 154, 97, 1);}.style249{fill:	rgba(137, 72, 32, 1);}.style25{fill:	rgba(107, 28, 59, 1);}.style250{fill:	rgba(167, 125, 92, 1);}.style251{fill:	rgba(139, 148, 98, 1);}.style252{fill:	rgba(79, 137, 81, 1);}.style253{fill:	rgba(73, 173, 121, 1);}.style254{fill:	rgba(0, 125, 68, 1);}.style255{fill:	rgba(161, 255, 189, 1);}.style256{fill:	rgba(16, 146, 79, 1);}.style257{fill:	rgba(84, 215, 168, 1);}.style258{fill:	rgba(136, 89, 104, 1);}.style259{fill:	rgba(229, 125, 154, 1);}.style26{fill:	rgba(255, 253, 251, 1);}.style260{fill:	rgba(147, 22, 54, 1);}.style261{fill:	rgba(255, 171, 178, 1);}.style262{fill:	rgba(228, 219, 207, 1);}.style263{fill:	rgba(148, 141, 123, 1);}.style264{fill:	rgba(206, 120, 121, 1);}.style265{fill:	rgba(225, 119, 122, 1);}.style266{fill:	rgba(255, 226, 224, 1);}.style267{fill:	rgba(167, 91, 93, 1);}.style268{fill:	rgba(229, 117, 139, 1);}.style269{fill:	rgba(255, 127, 161, 1);}.style27{fill:	rgba(177, 190, 150, 1);}.style270{fill:	rgba(198, 0, 63, 1);}.style271{fill:	rgba(229, 42, 94, 1);}.style272{fill:	rgba(214, 69, 108, 1);}.style273{fill:	rgba(255, 158, 179, 1);}.style274{fill:	rgba(255, 234, 240, 1);}.style275{fill:	rgba(178, 94, 99, 1);}.style276{fill:	rgba(174, 32, 60, 1);}.style277{fill:	rgba(255, 163, 188, 1);}.style278{fill:	rgba(195, 135, 167, 1);}.style279{fill:	rgba(155, 96, 128, 1);}.style28{fill:	rgba(202, 187, 101, 1);}.style280{fill:	rgba(160, 19, 68, 1);}.style281{fill:	rgba(251, 121, 155, 1);}.style282{fill:	rgba(255, 221, 246, 1);}.style283{fill:	rgba(144, 105, 131, 1);}.style284{fill:	rgba(208, 150, 179, 1);}.style285{fill:	rgba(170, 132, 154, 1);}.style286{fill:	rgba(234, 254, 255, 1);}.style287{fill:	rgba(196, 205, 216, 1);}.style288{fill:	rgba(186, 121, 147, 1);}.style289{fill:	rgba(190, 144, 180, 1);}.style29{fill:	rgba(252, 255, 191, 1);}.style290{fill:	rgba(103, 179, 216, 1);}.style291{fill:	rgba(63, 152, 181, 1);}.style292{fill:	rgba(176, 151, 170, 1);}.style293{fill:	rgba(186, 146, 158, 1);}.style294{fill:	rgba(152, 179, 193, 1);}.style295{fill:	rgba(209, 255, 255, 1);}.style296{fill:	rgba(229, 255, 255, 1);}.style297{fill:	rgba(226, 249, 253, 1);}.style298{fill:	rgba(179, 177, 198, 1);}.style299{fill:	rgba(179, 159, 176, 1);}.style3{fill:	rgba(166, 154, 171, 1);}.style30{fill:	rgba(232, 203, 133, 1);}.style300{fill:	rgba(255, 242, 250, 1);}.style301{fill:	rgba(171, 130, 125, 1);}.style302{fill:	rgba(255, 253, 237, 1);}.style303{fill:	rgba(255, 251, 240, 1);}.style304{fill:	rgba(160, 135, 142, 1);}.style305{fill:	rgba(255, 248, 251, 1);}.style306{fill:	rgba(250, 239, 217, 1);}.style307{fill:	rgba(254, 255, 229, 1);}.style308{fill:	rgba(255, 255, 253, 1);}.style309{fill:	rgba(249, 254, 255, 1);}.style31{fill:	rgba(242, 192, 119, 1);}.style310{fill:	rgba(253, 255, 250, 1);}.style311{fill:	rgba(254, 253, 251, 1);}.style312{fill:	rgba(253, 253, 255, 1);}.style313{fill:	rgba(255, 253, 254, 1);}.style314{fill:	rgba(255, 242, 248, 1);}.style315{fill:	rgba(120, 0, 31, 1);}.style316{fill:	rgba(253, 132, 158, 1);}.style317{fill:	rgba(255, 190, 217, 1);}.style318{fill:	rgba(133, 101, 128, 1);}.style319{fill:	rgba(146, 127, 154, 1);}.style32{fill:	rgba(229, 160, 80, 1);}.style320{fill:	rgba(120, 132, 158, 1);}.style321{fill:	rgba(166, 229, 255, 1);}.style322{fill:	rgba(36, 101, 126, 1);}.style323{fill:	rgba(205, 201, 228, 1);}.style324{fill:	rgba(152, 131, 159, 1);}.style325{fill:	rgba(163, 154, 196, 1);}.style326{fill:	rgba(159, 168, 215, 1);}.style327{fill:	rgba(100, 123, 174, 1);}.style328{fill:	rgba(166, 160, 211, 1);}.style329{fill:	rgba(188, 109, 157, 1);}.style33{fill:	rgba(237, 119, 71, 1);}.style330{fill:	rgba(255, 161, 205, 1);}.style331{fill:	rgba(183, 102, 146, 1);}.style332{fill:	rgba(155, 72, 129, 1);}.style333{fill:	rgba(149, 31, 121, 1);}.style334{fill:	rgba(182, 19, 131, 1);}.style335{fill:	rgba(227, 9, 133, 1);}.style336{fill:	rgba(165, 0, 80, 1);}.style337{fill:	rgba(239, 194, 214, 1);}.style338{fill:	rgba(176, 176, 140, 1);}.style339{fill:	rgba(232, 202, 94, 1);}.style34{fill:	rgba(187, 0, 6, 1);}.style340{fill:	rgba(255, 211, 72, 1);}.style341{fill:	rgba(204, 163, 33, 1);}.style342{fill:	rgba(254, 246, 130, 1);}.style343{fill:	rgba(253, 239, 125, 1);}.style344{fill:	rgba(255, 206, 108, 1);}.style345{fill:	rgba(255, 240, 185, 1);}.style346{fill:	rgba(164, 118, 82, 1);}.style347{fill:	rgba(255, 250, 233, 1);}.style348{fill:	rgba(254, 254, 224, 1);}.style349{fill:	rgba(242, 178, 102, 1);}.style35{fill:	rgba(254, 44, 101, 1);}.style350{fill:	rgba(209, 143, 57, 1);}.style351{fill:	rgba(255, 249, 196, 1);}.style352{fill:	rgba(254, 255, 232, 1);}.style353{fill:	rgba(255, 252, 249, 1);}.style354{fill:	rgba(94, 127, 103, 1);}.style355{fill:	rgba(229, 255, 222, 1);}.style356{fill:	rgba(106, 174, 84, 1);}.style357{fill:	rgba(154, 224, 123, 1);}.style358{fill:	rgba(137, 197, 111, 1);}.style359{fill:	rgba(179, 255, 172, 1);}.style36{fill:	rgba(255, 189, 191, 1);}.style360{fill:	rgba(0, 148, 50, 1);}.style361{fill:	rgba(61, 214, 100, 1);}.style362{fill:	rgba(80, 200, 73, 1);}.style363{fill:	rgba(86, 195, 59, 1);}.style364{fill:	rgba(91, 200, 62, 1);}.style365{fill:	rgba(90, 180, 57, 1);}.style366{fill:	rgba(183, 240, 152, 1);}.style367{fill:	rgba(196, 254, 172, 1);}.style368{fill:	rgba(89, 189, 85, 1);}.style369{fill:	rgba(64, 178, 65, 1);}.style37{fill:	rgba(158, 59, 79, 1);}.style370{fill:	rgba(155, 245, 136, 1);}.style371{fill:	rgba(103, 178, 101, 1);}.style372{fill:	rgba(147, 211, 187, 1);}.style373{fill:	rgba(210, 255, 255, 1);}.style374{fill:	rgba(158, 199, 177, 1);}.style375{fill:	rgba(200, 255, 224, 1);}.style376{fill:	rgba(0, 114, 88, 1);}.style377{fill:	rgba(122, 226, 188, 1);}.style378{fill:	rgba(173, 232, 165, 1);}.style379{fill:	rgba(189, 234, 166, 1);}.style38{fill:	rgba(255, 209, 233, 1);}.style380{fill:	rgba(87, 146, 103, 1);}.style381{fill:	rgba(221, 255, 232, 1);}.style382{fill:	rgba(177, 224, 165, 1);}.style383{fill:	rgba(183, 226, 156, 1);}.style384{fill:	rgba(186, 140, 128, 1);}.style385{fill:	rgba(243, 255, 218, 1);}.style386{fill:	rgba(253, 255, 227, 1);}.style387{fill:	rgba(199, 202, 175, 1);}.style388{fill:	rgba(84, 113, 82, 1);}.style389{fill:	rgba(152, 185, 159, 1);}.style39{fill:	rgba(196, 82, 103, 1);}.style390{fill:	rgba(98, 116, 100, 1);}.style391{fill:	rgba(254, 251, 242, 1);}.style392{fill:	rgba(255, 248, 237, 1);}.style393{fill:	rgba(242, 188, 174, 1);}.style394{fill:	rgba(203, 163, 147, 1);}.style395{fill:	rgba(254, 255, 234, 1);}.style396{fill:	rgba(189, 209, 137, 1);}.style397{fill:	rgba(219, 232, 65, 1);}.style398{fill:	rgba(232, 240, 55, 1);}.style399{fill:	rgba(250, 255, 151, 1);}.style4{fill:	rgba(129, 110, 133, 1);}.style40{fill:	rgba(250, 147, 160, 1);}.style400{fill:	rgba(230, 229, 119, 1);}.style401{fill:	rgba(242, 251, 96, 1);}.style402{fill:	rgba(232, 228, 60, 1);}.style403{fill:	rgba(255, 231, 94, 1);}.style404{fill:	rgba(179, 136, 0, 1);}.style405{fill:	rgba(248, 217, 94, 1);}.style406{fill:	rgba(255, 239, 119, 1);}.style407{fill:	rgba(252, 198, 80, 1);}.style408{fill:	rgba(205, 149, 34, 1);}.style409{fill:	rgba(240, 192, 105, 1);}.style41{fill:	rgba(255, 235, 250, 1);}.style410{fill:	rgba(255, 214, 148, 1);}.style411{fill:	rgba(172, 85, 48, 1);}.style412{fill:	rgba(255, 199, 142, 1);}.style413{fill:	rgba(211, 126, 0, 1);}.style414{fill:	rgba(255, 204, 50, 1);}.style415{fill:	rgba(255, 180, 56, 1);}.style416{fill:	rgba(210, 122, 26, 1);}.style417{fill:	rgba(210, 101, 57, 1);}.style418{fill:	rgba(255, 168, 125, 1);}.style419{fill:	rgba(253, 162, 71, 1);}.style42{fill:	rgba(206, 168, 169, 1);}.style420{fill:	rgba(216, 139, 32, 1);}.style421{fill:	rgba(176, 113, 39, 1);}.style422{fill:	rgba(246, 244, 211, 1);}.style423{fill:	rgba(228, 233, 198, 1);}.style424{fill:	rgba(248, 230, 177, 1);}.style425{fill:	rgba(163, 126, 81, 1);}.style426{fill:	rgba(255, 242, 225, 1);}.style427{fill:	rgba(169, 137, 121, 1);}.style428{fill:	rgba(248, 255, 221, 1);}.style429{fill:	rgba(159, 169, 128, 1);}.style43{fill:	rgba(199, 197, 169, 1);}.style430{fill:	rgba(255, 205, 199, 1);}.style431{fill:	rgba(230, 129, 135, 1);}.style432{fill:	rgba(240, 142, 138, 1);}.style433{fill:	rgba(189, 103, 104, 1);}.style434{fill:	rgba(145, 71, 102, 1);}.style435{fill:	rgba(180, 88, 125, 1);}.style436{fill:	rgba(255, 139, 158, 1);}.style437{fill:	rgba(160, 0, 4, 1);}.style438{fill:	rgba(242, 86, 119, 1);}.style439{fill:	rgba(163, 46, 79, 1);}.style44{fill:	rgba(253, 255, 221, 1);}.style440{fill:	rgba(255, 225, 242, 1);}.style441{fill:	rgba(239, 255, 255, 1);}.style442{fill:	rgba(105, 197, 221, 1);}.style443{fill:	rgba(90, 203, 225, 1);}.style444{fill:	rgba(107, 171, 183, 1);}.style445{fill:	rgba(243, 255, 255, 1);}.style446{fill:	rgba(255, 229, 203, 1);}.style447{fill:	rgba(225, 181, 141, 1);}.style448{fill:	rgba(218, 183, 144, 1);}.style449{fill:	rgba(253, 255, 222, 1);}.style45{fill:	rgba(122, 96, 70, 1);}.style450{fill:	rgba(105, 118, 92, 1);}.style451{fill:	rgba(215, 229, 208, 1);}.style452{fill:	rgba(206, 199, 179, 1);}.style453{fill:	rgba(225, 255, 255, 1);}.style454{fill:	rgba(105, 189, 204, 1);}.style455{fill:	rgba(0, 113, 145, 1);}.style456{fill:	rgba(121, 234, 255, 1);}.style457{fill:	rgba(196, 255, 255, 1);}.style458{fill:	rgba(93, 174, 159, 1);}.style46{fill:	rgba(240, 156, 151, 1);}.style47{fill:	rgba(196, 0, 48, 1);}.style48{fill:	rgba(209, 0, 32, 1);}.style49{fill:	rgba(241, 118, 84, 1);}.style5{fill:	rgba(255, 250, 255, 1);}.style50{fill:	rgba(255, 199, 171, 1);}.style51{fill:	rgba(184, 0, 50, 1);}.style52{fill:	rgba(216, 0, 98, 1);}.style53{fill:	rgba(242, 105, 142, 1);}.style54{fill:	rgba(211, 101, 131, 1);}.style55{fill:	rgba(216, 109, 153, 1);}.style56{fill:	rgba(173, 63, 116, 1);}.style57{fill:	rgba(138, 0, 74, 1);}.style58{fill:	rgba(255, 172, 217, 1);}.style59{fill:	rgba(166, 85, 112, 1);}.style6{fill:	rgba(168, 185, 218, 1);}.style60{fill:	rgba(137, 111, 108, 1);}.style61{fill:	rgba(151, 195, 163, 1);}.style62{fill:	rgba(212, 255, 217, 1);}.style63{fill:	rgba(207, 176, 151, 1);}.style64{fill:	rgba(153, 118, 76, 1);}.style65{fill:	rgba(196, 229, 145, 1);}.style66{fill:	rgba(142, 214, 108, 1);}.style67{fill:	rgba(109, 182, 81, 1);}.style68{fill:	rgba(144, 221, 129, 1);}.style69{fill:	rgba(136, 210, 144, 1);}.style7{fill:	rgba(87, 109, 136, 1);}.style70{fill:	rgba(171, 238, 173, 1);}.style71{fill:	rgba(126, 178, 96, 1);}.style72{fill:	rgba(234, 255, 196, 1);}.style73{fill:	rgba(253, 255, 241, 1);}.style74{fill:	rgba(254, 251, 252, 1);}.style75{fill:	rgba(255, 254, 250, 1);}.style76{fill:	rgba(252, 254, 249, 1);}.style77{fill:	rgba(255, 255, 255, 1);}.style78{fill:	rgba(252, 253, 255, 1);}.style79{fill:	rgba(254, 254, 255, 1);}.style8{fill:	rgba(231, 232, 245, 1);}.style80{fill:	rgba(255, 243, 248, 1);}.style81{fill:	rgba(203, 67, 79, 1);}.style82{fill:	rgba(196, 60, 80, 1);}.style83{fill:	rgba(226, 184, 203, 1);}.style84{fill:	rgba(221, 202, 222, 1);}.style85{fill:	rgba(138, 77, 94, 1);}.style86{fill:	rgba(155, 125, 134, 1);}.style87{fill:	rgba(153, 228, 232, 1);}.style88{fill:	rgba(75, 165, 171, 1);}.style89{fill:	rgba(121, 112, 136, 1);}.style9{fill:	rgba(255, 254, 255, 1);}.style90{fill:	rgba(240, 190, 220, 1);}.style91{fill:	rgba(129, 81, 113, 1);}.style92{fill:	rgba(189, 152, 186, 1);}.style93{fill:	rgba(209, 195, 232, 1);}.style94{fill:	rgba(66, 45, 77, 1);}.style95{fill:	rgba(198, 141, 162, 1);}.style96{fill:	rgba(255, 224, 242, 1);}.style97{fill:	rgba(102, 0, 41, 1);}.style98{fill:	rgba(238, 123, 172, 1);}.style99{fill:	rgba(148, 0, 77, 1);}</style><rect y="1" height="1" width="500" class="style0"/>""<rect y="2" height="1" width="500" class="style1"/>""<rect y="3" height="1" width="500" class="style2"/>""<rect y="4" height="1" width="500" class="style3"/>""<rect y="5" height="1" width="500" class="style4"/>""<rect y="6" height="1" width="500" class="style5"/>""<rect y="7" height="1" width="500" class="style6"/>""<rect y="8" height="1" width="500" class="style7"/>""<rect y="9" height="1" width="500" class="style8"/>""<rect y="10" height="1" width="500" class="style9"/>""<rect y="11" height="1" width="500" class="style10"/>""<rect y="12" height="1" width="500" class="style11"/>""<rect y="13" height="1" width="500" class="style12"/>""<rect y="14" height="1" width="500" class="style9"/>""<rect y="15" height="1" width="500" class="style13"/>""<rect y="16" height="1" width="500" class="style14"/>""<rect y="17" height="1" width="500" class="style15"/>""<rect y="18" height="1" width="500" class="style16"/>""<rect y="19" height="1" width="500" class="style17"/>""<rect y="20" height="1" width="500" class="style18"/>""<rect y="21" height="1" width="500" class="style19"/>""<rect y="22" height="1" width="500" class="style20"/>""<rect y="23" height="1" width="500" class="style21"/>""<rect y="24" height="1" width="500" class="style22"/>""<rect y="25" height="1" width="500" class="style23"/>""<rect y="26" height="1" width="500" class="style2"/>""<rect y="27" height="1" width="500" class="style24"/>""<rect y="28" height="1" width="500" class="style25"/>""<rect y="29" height="1" width="500" class="style26"/>""<rect y="30" height="1" width="500" class="style27"/>""<rect y="31" height="1" width="500" class="style28"/>""<rect y="32" height="1" width="500" class="style28"/>""<rect y="33" height="1" width="500" class="style29"/>""<rect y="34" height="1" width="500" class="style29"/>""<rect y="35" height="1" width="500" class="style30"/>""<rect y="36" height="1" width="500" class="style31"/>""<rect y="37" height="1" width="500" class="style32"/>""<rect y="38" height="1" width="500" class="style33"/>""<rect y="39" height="1" width="500" class="style34"/>""<rect y="40" height="1" width="500" class="style35"/>""<rect y="41" height="1" width="500" class="style36"/>""<rect y="42" height="1" width="500" class="style36"/>""<rect y="43" height="1" width="500" class="style37"/>""<rect y="44" height="1" width="500" class="style38"/>""<rect y="45" height="1" width="500" class="style39"/>""<rect y="46" height="1" width="500" class="style40"/>""<rect y="47" height="1" width="500" class="style41"/>""<rect y="48" height="1" width="500" class="style42"/>""<rect y="49" height="1" width="500" class="style43"/>""<rect y="50" height="1" width="500" class="style44"/>""<rect y="51" height="1" width="500" class="style45"/>""<rect y="52" height="1" width="500" class="style46"/>""<rect y="53" height="1" width="500" class="style47"/>""<rect y="54" height="1" width="500" class="style48"/>""<rect y="55" height="1" width="500" class="style49"/>""<rect y="56" height="1" width="500" class="style50"/>""<rect y="57" height="1" width="500" class="style51"/>""<rect y="58" height="1" width="500" class="style52"/>""<rect y="59" height="1" width="500" class="style53"/>""<rect y="60" height="1" width="500" class="style54"/>""<rect y="61" height="1" width="500" class="style55"/>""<rect y="62" height="1" width="500" class="style56"/>""<rect y="63" height="1" width="500" class="style57"/>""<rect y="64" height="1" width="500" class="style58"/>""<rect y="65" height="1" width="500" class="style59"/>""<rect y="66" height="1" width="500" class="style60"/>""<rect y="67" height="1" width="500" class="style61"/>""<rect y="68" height="1" width="500" class="style62"/>""<rect y="69" height="1" width="500" class="style63"/>""<rect y="70" height="1" width="500" class="style64"/>""<rect y="71" height="1" width="500" class="style65"/>""<rect y="72" height="1" width="500" class="style66"/>""<rect y="73" height="1" width="500" class="style67"/>""<rect y="74" height="1" width="500" class="style68"/>""<rect y="75" height="1" width="500" class="style69"/>""<rect y="76" height="1" width="500" class="style70"/>""<rect y="77" height="1" width="500" class="style71"/>""<rect y="78" height="1" width="500" class="style72"/>""<rect y="79" height="1" width="500" class="style73"/>""<rect y="80" height="1" width="500" class="style74"/>""<rect y="81" height="1" width="500" class="style75"/>""<rect y="82" height="1" width="500" class="style76"/>""<rect y="83" height="1" width="500" class="style77"/>""<rect y="84" height="1" width="500" class="style78"/>""<rect y="85" height="1" width="500" class="style79"/>""<rect y="86" height="1" width="500" class="style80"/>""<rect y="87" height="1" width="500" class="style81"/>""<rect y="88" height="1" width="500" class="style82"/>""<rect y="89" height="1" width="500" class="style83"/>""<rect y="90" height="1" width="500" class="style84"/>""<rect y="91" height="1" width="500" class="style85"/>""<rect y="92" height="1" width="500" class="style86"/>""<rect y="93" height="1" width="500" class="style87"/>""<rect y="94" height="1" width="500" class="style88"/>""<rect y="95" height="1" width="500" class="style89"/>""<rect y="96" height="1" width="500" class="style90"/>""<rect y="97" height="1" width="500" class="style91"/>""<rect y="98" height="1" width="500" class="style92"/>""<rect y="99" height="1" width="500" class="style93"/>""<rect y="100" height="1" width="500" class="style94"/>""<rect y="101" height="1" width="500" class="style95"/>""<rect y="102" height="1" width="500" class="style96"/>""<rect y="103" height="1" width="500" class="style97"/>""<rect y="104" height="1" width="500" class="style98"/>""<rect y="105" height="1" width="500" class="style99"/>""<rect y="106" height="1" width="500" class="style100"/>""<rect y="107" height="1" width="500" class="style101"/>""<rect y="108" height="1" width="500" class="style102"/>""<rect y="109" height="1" width="500" class="style103"/>""<rect y="110" height="1" width="500" class="style104"/>""<rect y="111" height="1" width="500" class="style105"/>""<rect y="112" height="1" width="500" class="style106"/>""<rect y="113" height="1" width="500" class="style107"/>""<rect y="114" height="1" width="500" class="style108"/>""<rect y="115" height="1" width="500" class="style109"/>""<rect y="116" height="1" width="500" class="style110"/>""<rect y="117" height="1" width="500" class="style111"/>""<rect y="118" height="1" width="500" class="style112"/>""<rect y="119" height="1" width="500" class="style113"/>""<rect y="120" height="1" width="500" class="style114"/>""<rect y="121" height="1" width="500" class="style115"/>""<rect y="122" height="1" width="500" class="style116"/>""<rect y="123" height="1" width="500" class="style117"/>""<rect y="124" height="1" width="500" class="style118"/>""<rect y="125" height="1" width="500" class="style119"/>""<rect y="126" height="1" width="500" class="style120"/>""<rect y="127" height="1" width="500" class="style121"/>""<rect y="128" height="1" width="500" class="style122"/>""<rect y="129" height="1" width="500" class="style123"/>""<rect y="130" height="1" width="500" class="style105"/>""<rect y="131" height="1" width="500" class="style124"/>""<rect y="132" height="1" width="500" class="style125"/>""<rect y="133" height="1" width="500" class="style126"/>""<rect y="134" height="1" width="500" class="style127"/>""<rect y="135" height="1" width="500" class="style128"/>""<rect y="136" height="1" width="500" class="style129"/>""<rect y="137" height="1" width="500" class="style130"/>""<rect y="138" height="1" width="500" class="style131"/>""<rect y="139" height="1" width="500" class="style132"/>""<rect y="140" height="1" width="500" class="style124"/>""<rect y="141" height="1" width="500" class="style133"/>""<rect y="142" height="1" width="500" class="style134"/>""<rect y="143" height="1" width="500" class="style135"/>""<rect y="144" height="1" width="500" class="style136"/>""<rect y="145" height="1" width="500" class="style137"/>""<rect y="146" height="1" width="500" class="style138"/>""<rect y="147" height="1" width="500" class="style139"/>""<rect y="148" height="1" width="500" class="style140"/>""<rect y="149" height="1" width="500" class="style141"/>""<rect y="150" height="1" width="500" class="style142"/>""<rect y="151" height="1" width="500" class="style143"/>""<rect y="152" height="1" width="500" class="style144"/>""<rect y="153" height="1" width="500" class="style145"/>""<rect y="154" height="1" width="500" class="style145"/>""<rect y="155" height="1" width="500" class="style146"/>""<rect y="156" height="1" width="500" class="style146"/>""<rect y="157" height="1" width="500" class="style147"/>""<rect y="158" height="1" width="500" class="style147"/>""<rect y="159" height="1" width="500" class="style144"/>""<rect y="160" height="1" width="500" class="style77"/>""<rect y="161" height="1" width="500" class="style77"/>""<rect y="162" height="1" width="500" class="style77"/>""<rect y="163" height="1" width="500" class="style77"/>""<rect y="164" height="1" width="500" class="style77"/>""<rect y="165" height="1" width="500" class="style77"/>""<rect y="166" height="1" width="500" class="style77"/>""<rect y="167" height="1" width="500" class="style77"/>""<rect y="168" height="1" width="500" class="style77"/>""<rect y="169" height="1" width="500" class="style77"/>""<rect y="170" height="1" width="500" class="style77"/>""<rect y="171" height="1" width="500" class="style77"/>""<rect y="172" height="1" width="500" class="style77"/>""<rect y="173" height="1" width="500" class="style77"/>""<rect y="174" height="1" width="500" class="style148"/>""<rect y="175" height="1" width="500" class="style148"/>""<rect y="176" height="1" width="500" class="style148"/>""<rect y="177" height="1" width="500" class="style149"/>""<rect y="178" height="1" width="500" class="style150"/>""<rect y="179" height="1" width="500" class="style151"/>""<rect y="180" height="1" width="500" class="style152"/>""<rect y="181" height="1" width="500" class="style153"/>""<rect y="182" height="1" width="500" class="style154"/>""<rect y="183" height="1" width="500" class="style155"/>""<rect y="184" height="1" width="500" class="style156"/>""<rect y="185" height="1" width="500" class="style157"/>""<rect y="186" height="1" width="500" class="style158"/>""<rect y="187" height="1" width="500" class="style159"/>""<rect y="188" height="1" width="500" class="style160"/>""<rect y="189" height="1" width="500" class="style161"/>""<rect y="190" height="1" width="500" class="style148"/>""<rect y="191" height="1" width="500" class="style162"/>""<rect y="192" height="1" width="500" class="style163"/>""<rect y="193" height="1" width="500" class="style164"/>""<rect y="194" height="1" width="500" class="style165"/>""<rect y="195" height="1" width="500" class="style166"/>""<rect y="196" height="1" width="500" class="style167"/>""<rect y="197" height="1" width="500" class="style168"/>""<rect y="198" height="1" width="500" class="style169"/>""<rect y="199" height="1" width="500" class="style170"/>""<rect y="200" height="1" width="500" class="style171"/>""<rect y="201" height="1" width="500" class="style172"/>""<rect y="202" height="1" width="500" class="style173"/>""<rect y="203" height="1" width="500" class="style174"/>""<rect y="204" height="1" width="500" class="style175"/>""<rect y="205" height="1" width="500" class="style176"/>""<rect y="206" height="1" width="500" class="style177"/>""<rect y="207" height="1" width="500" class="style178"/>""<rect y="208" height="1" width="500" class="style179"/>""<rect y="209" height="1" width="500" class="style180"/>""<rect y="210" height="1" width="500" class="style181"/>""<rect y="211" height="1" width="500" class="style182"/>""<rect y="212" height="1" width="500" class="style183"/>""<rect y="213" height="1" width="500" class="style184"/>""<rect y="214" height="1" width="500" class="style185"/>""<rect y="215" height="1" width="500" class="style186"/>""<rect y="216" height="1" width="500" class="style187"/>""<rect y="217" height="1" width="500" class="style188"/>""<rect y="218" height="1" width="500" class="style189"/>""<rect y="219" height="1" width="500" class="style190"/>""<rect y="220" height="1" width="500" class="style191"/>""<rect y="221" height="1" width="500" class="style192"/>""<rect y="222" height="1" width="500" class="style193"/>""<rect y="223" height="1" width="500" class="style194"/>""<rect y="224" height="1" width="500" class="style195"/>""<rect y="225" height="1" width="500" class="style196"/>""<rect y="226" height="1" width="500" class="style197"/>""<rect y="227" height="1" width="500" class="style198"/>""<rect y="228" height="1" width="500" class="style199"/>""<rect y="229" height="1" width="500" class="style200"/>""<rect y="230" height="1" width="500" class="style201"/>""<rect y="231" height="1" width="500" class="style202"/>""<rect y="232" height="1" width="500" class="style203"/>""<rect y="233" height="1" width="500" class="style204"/>""<rect y="234" height="1" width="500" class="style205"/>""<rect y="235" height="1" width="500" class="style206"/>""<rect y="236" height="1" width="500" class="style207"/>""<rect y="237" height="1" width="500" class="style208"/>""<rect y="238" height="1" width="500" class="style209"/>""<rect y="239" height="1" width="500" class="style210"/>""<rect y="240" height="1" width="500" class="style211"/>""<rect y="241" height="1" width="500" class="style211"/>""<rect y="242" height="1" width="500" class="style212"/>""<rect y="243" height="1" width="500" class="style213"/>""<rect y="244" height="1" width="500" class="style214"/>""<rect y="245" height="1" width="500" class="style215"/>""<rect y="246" height="1" width="500" class="style216"/>""<rect y="247" height="1" width="500" class="style217"/>""<rect y="248" height="1" width="500" class="style218"/>""<rect y="249" height="1" width="500" class="style219"/>""<rect y="250" height="1" width="500" class="style220"/>""<rect y="251" height="1" width="500" class="style221"/>""<rect y="252" height="1" width="500" class="style222"/>""<rect y="253" height="1" width="500" class="style223"/>""<rect y="254" height="1" width="500" class="style224"/>""<rect y="255" height="1" width="500" class="style225"/>""<rect y="256" height="1" width="500" class="style226"/>""<rect y="257" height="1" width="500" class="style227"/>""<rect y="258" height="1" width="500" class="style228"/>""<rect y="259" height="1" width="500" class="style229"/>""<rect y="260" height="1" width="500" class="style230"/>""<rect y="261" height="1" width="500" class="style231"/>""<rect y="262" height="1" width="500" class="style232"/>""<rect y="263" height="1" width="500" class="style233"/>""<rect y="264" height="1" width="500" class="style234"/>""<rect y="265" height="1" width="500" class="style235"/>""<rect y="266" height="1" width="500" class="style236"/>""<rect y="267" height="1" width="500" class="style237"/>""<rect y="268" height="1" width="500" class="style238"/>""<rect y="269" height="1" width="500" class="style239"/>""<rect y="270" height="1" width="500" class="style240"/>""<rect y="271" height="1" width="500" class="style241"/>""<rect y="272" height="1" width="500" class="style242"/>""<rect y="273" height="1" width="500" class="style243"/>""<rect y="274" height="1" width="500" class="style244"/>""<rect y="275" height="1" width="500" class="style245"/>""<rect y="276" height="1" width="500" class="style246"/>""<rect y="277" height="1" width="500" class="style247"/>""<rect y="278" height="1" width="500" class="style248"/>""<rect y="279" height="1" width="500" class="style249"/>""<rect y="280" height="1" width="500" class="style250"/>""<rect y="281" height="1" width="500" class="style251"/>""<rect y="282" height="1" width="500" class="style252"/>""<rect y="283" height="1" width="500" class="style253"/>""<rect y="284" height="1" width="500" class="style254"/>""<rect y="285" height="1" width="500" class="style255"/>""<rect y="286" height="1" width="500" class="style256"/>""<rect y="287" height="1" width="500" class="style257"/>""<rect y="288" height="1" width="500" class="style251"/>""<rect y="289" height="1" width="500" class="style258"/>""<rect y="290" height="1" width="500" class="style259"/>""<rect y="291" height="1" width="500" class="style260"/>""<rect y="292" height="1" width="500" class="style261"/>""<rect y="293" height="1" width="500" class="style262"/>""<rect y="294" height="1" width="500" class="style263"/>""<rect y="295" height="1" width="500" class="style264"/>""<rect y="296" height="1" width="500" class="style265"/>""<rect y="297" height="1" width="500" class="style266"/>""<rect y="298" height="1" width="500" class="style267"/>""<rect y="299" height="1" width="500" class="style268"/>""<rect y="300" height="1" width="500" class="style269"/>""<rect y="301" height="1" width="500" class="style270"/>""<rect y="302" height="1" width="500" class="style271"/>""<rect y="303" height="1" width="500" class="style272"/>""<rect y="304" height="1" width="500" class="style273"/>""<rect y="305" height="1" width="500" class="style274"/>""<rect y="306" height="1" width="500" class="style275"/>""<rect y="307" height="1" width="500" class="style276"/>""<rect y="308" height="1" width="500" class="style277"/>""<rect y="309" height="1" width="500" class="style278"/>""<rect y="310" height="1" width="500" class="style279"/>""<rect y="311" height="1" width="500" class="style280"/>""<rect y="312" height="1" width="500" class="style281"/>""<rect y="313" height="1" width="500" class="style282"/>""<rect y="314" height="1" width="500" class="style283"/>""<rect y="315" height="1" width="500" class="style284"/>""<rect y="316" height="1" width="500" class="style285"/>""<rect y="317" height="1" width="500" class="style286"/>""<rect y="318" height="1" width="500" class="style287"/>""<rect y="319" height="1" width="500" class="style288"/>""<rect y="320" height="1" width="500" class="style289"/>""<rect y="321" height="1" width="500" class="style290"/>""<rect y="322" height="1" width="500" class="style291"/>""<rect y="323" height="1" width="500" class="style292"/>""<rect y="324" height="1" width="500" class="style293"/>""<rect y="325" height="1" width="500" class="style294"/>""<rect y="326" height="1" width="500" class="style295"/>""<rect y="327" height="1" width="500" class="style296"/>""<rect y="328" height="1" width="500" class="style297"/>""<rect y="329" height="1" width="500" class="style298"/>""<rect y="330" height="1" width="500" class="style299"/>""<rect y="331" height="1" width="500" class="style300"/>""<rect y="332" height="1" width="500" class="style301"/>""<rect y="333" height="1" width="500" class="style302"/>""<rect y="334" height="1" width="500" class="style303"/>""<rect y="335" height="1" width="500" class="style304"/>""<rect y="336" height="1" width="500" class="style305"/>""<rect y="337" height="1" width="500" class="style306"/>""<rect y="338" height="1" width="500" class="style307"/>""<rect y="339" height="1" width="500" class="style308"/>""<rect y="340" height="1" width="500" class="style309"/>""<rect y="341" height="1" width="500" class="style10"/>""<rect y="342" height="1" width="500" class="style310"/>""<rect y="343" height="1" width="500" class="style311"/>""<rect y="344" height="1" width="500" class="style148"/>""<rect y="345" height="1" width="500" class="style312"/>""<rect y="346" height="1" width="500" class="style146"/>""<rect y="347" height="1" width="500" class="style313"/>""<rect y="348" height="1" width="500" class="style314"/>""<rect y="349" height="1" width="500" class="style315"/>""<rect y="350" height="1" width="500" class="style316"/>""<rect y="351" height="1" width="500" class="style317"/>""<rect y="352" height="1" width="500" class="style318"/>""<rect y="353" height="1" width="500" class="style319"/>""<rect y="354" height="1" width="500" class="style320"/>""<rect y="355" height="1" width="500" class="style321"/>""<rect y="356" height="1" width="500" class="style322"/>""<rect y="357" height="1" width="500" class="style323"/>""<rect y="358" height="1" width="500" class="style324"/>""<rect y="359" height="1" width="500" class="style325"/>""<rect y="360" height="1" width="500" class="style326"/>""<rect y="361" height="1" width="500" class="style327"/>""<rect y="362" height="1" width="500" class="style328"/>""<rect y="363" height="1" width="500" class="style329"/>""<rect y="364" height="1" width="500" class="style330"/>""<rect y="365" height="1" width="500" class="style331"/>""<rect y="366" height="1" width="500" class="style332"/>""<rect y="367" height="1" width="500" class="style333"/>""<rect y="368" height="1" width="500" class="style334"/>""<rect y="369" height="1" width="500" class="style335"/>""<rect y="370" height="1" width="500" class="style336"/>""<rect y="371" height="1" width="500" class="style337"/>""<rect y="372" height="1" width="500" class="style338"/>""<rect y="373" height="1" width="500" class="style339"/>""<rect y="374" height="1" width="500" class="style340"/>""<rect y="375" height="1" width="500" class="style341"/>""<rect y="376" height="1" width="500" class="style342"/>""<rect y="377" height="1" width="500" class="style342"/>""<rect y="378" height="1" width="500" class="style343"/>""<rect y="379" height="1" width="500" class="style344"/>""<rect y="380" height="1" width="500" class="style330"/>""<rect y="381" height="1" width="500" class="style345"/>""<rect y="382" height="1" width="500" class="style346"/>""<rect y="383" height="1" width="500" class="style347"/>""<rect y="384" height="1" width="500" class="style348"/>""<rect y="385" height="1" width="500" class="style349"/>""<rect y="386" height="1" width="500" class="style350"/>""<rect y="387" height="1" width="500" class="style351"/>""<rect y="388" height="1" width="500" class="style352"/>""<rect y="389" height="1" width="500" class="style353"/>""<rect y="390" height="1" width="500" class="style23"/>""<rect y="391" height="1" width="500" class="style354"/>""<rect y="392" height="1" width="500" class="style355"/>""<rect y="393" height="1" width="500" class="style356"/>""<rect y="394" height="1" width="500" class="style357"/>""<rect y="395" height="1" width="500" class="style358"/>""<rect y="396" height="1" width="500" class="style359"/>""<rect y="397" height="1" width="500" class="style360"/>""<rect y="398" height="1" width="500" class="style361"/>""<rect y="399" height="1" width="500" class="style362"/>""<rect y="400" height="1" width="500" class="style363"/>""<rect y="401" height="1" width="500" class="style364"/>""<rect y="402" height="1" width="500" class="style365"/>""<rect y="403" height="1" width="500" class="style366"/>""<rect y="404" height="1" width="500" class="style367"/>""<rect y="405" height="1" width="500" class="style368"/>""<rect y="406" height="1" width="500" class="style369"/>""<rect y="407" height="1" width="500" class="style370"/>""<rect y="408" height="1" width="500" class="style371"/>""<rect y="409" height="1" width="500" class="style372"/>""<rect y="410" height="1" width="500" class="style373"/>""<rect y="411" height="1" width="500" class="style374"/>""<rect y="412" height="1" width="500" class="style375"/>""<rect y="413" height="1" width="500" class="style376"/>""<rect y="414" height="1" width="500" class="style377"/>""<rect y="415" height="1" width="500" class="style378"/>""<rect y="416" height="1" width="500" class="style379"/>""<rect y="417" height="1" width="500" class="style380"/>""<rect y="418" height="1" width="500" class="style381"/>""<rect y="419" height="1" width="500" class="style382"/>""<rect y="420" height="1" width="500" class="style383"/>""<rect y="421" height="1" width="500" class="style384"/>""<rect y="422" height="1" width="500" class="style385"/>""<rect y="423" height="1" width="500" class="style386"/>""<rect y="424" height="1" width="500" class="style387"/>""<rect y="425" height="1" width="500" class="style388"/>""<rect y="426" height="1" width="500" class="style389"/>""<rect y="427" height="1" width="500" class="style390"/>""<rect y="428" height="1" width="500" class="style391"/>""<rect y="429" height="1" width="500" class="style392"/>""<rect y="430" height="1" width="500" class="style384"/>""<rect y="431" height="1" width="500" class="style393"/>""<rect y="432" height="1" width="500" class="style394"/>""<rect y="433" height="1" width="500" class="style395"/>""<rect y="434" height="1" width="500" class="style396"/>""<rect y="435" height="1" width="500" class="style397"/>""<rect y="436" height="1" width="500" class="style398"/>""<rect y="437" height="1" width="500" class="style399"/>""<rect y="438" height="1" width="500" class="style400"/>""<rect y="439" height="1" width="500" class="style401"/>""<rect y="440" height="1" width="500" class="style402"/>""<rect y="441" height="1" width="500" class="style403"/>""<rect y="442" height="1" width="500" class="style404"/>""<rect y="443" height="1" width="500" class="style405"/>""<rect y="444" height="1" width="500" class="style406"/>""<rect y="445" height="1" width="500" class="style407"/>""<rect y="446" height="1" width="500" class="style408"/>""<rect y="447" height="1" width="500" class="style409"/>""<rect y="448" height="1" width="500" class="style410"/>""<rect y="449" height="1" width="500" class="style411"/>""<rect y="450" height="1" width="500" class="style412"/>""<rect y="451" height="1" width="500" class="style413"/>""<rect y="452" height="1" width="500" class="style414"/>""<rect y="453" height="1" width="500" class="style415"/>""<rect y="454" height="1" width="500" class="style416"/>""<rect y="455" height="1" width="500" class="style417"/>""<rect y="456" height="1" width="500" class="style418"/>""<rect y="457" height="1" width="500" class="style419"/>""<rect y="458" height="1" width="500" class="style420"/>""<rect y="459" height="1" width="500" class="style421"/>""<rect y="460" height="1" width="500" class="style406"/>""<rect y="461" height="1" width="500" class="style422"/>""<rect y="462" height="1" width="500" class="style423"/>""<rect y="463" height="1" width="500" class="style424"/>""<rect y="464" height="1" width="500" class="style425"/>""<rect y="465" height="1" width="500" class="style426"/>""<rect y="466" height="1" width="500" class="style427"/>""<rect y="467" height="1" width="500" class="style428"/>""<rect y="468" height="1" width="500" class="style429"/>""<rect y="469" height="1" width="500" class="style430"/>""<rect y="470" height="1" width="500" class="style431"/>""<rect y="471" height="1" width="500" class="style432"/>""<rect y="472" height="1" width="500" class="style433"/>""<rect y="473" height="1" width="500" class="style434"/>""<rect y="474" height="1" width="500" class="style435"/>""<rect y="475" height="1" width="500" class="style436"/>""<rect y="476" height="1" width="500" class="style437"/>""<rect y="477" height="1" width="500" class="style438"/>""<rect y="478" height="1" width="500" class="style439"/>""<rect y="479" height="1" width="500" class="style440"/>""<rect y="480" height="1" width="500" class="style441"/>""<rect y="481" height="1" width="500" class="style442"/>""<rect y="482" height="1" width="500" class="style443"/>""<rect y="483" height="1" width="500" class="style444"/>""<rect y="484" height="1" width="500" class="style445"/>""<rect y="485" height="1" width="500" class="style446"/>""<rect y="486" height="1" width="500" class="style447"/>""<rect y="487" height="1" width="500" class="style448"/>""<rect y="488" height="1" width="500" class="style449"/>""<rect y="489" height="1" width="500" class="style450"/>""<rect y="490" height="1" width="500" class="style451"/>""<rect y="491" height="1" width="500" class="style452"/>""<rect y="492" height="1" width="500" class="style310"/>""<rect y="493" height="1" width="500" class="style453"/>""<rect y="494" height="1" width="500" class="style454"/>""<rect y="495" height="1" width="500" class="style455"/>""<rect y="496" height="1" width="500" class="style456"/>""<rect y="497" height="1" width="500" class="style457"/>""<rect y="498" height="1" width="500" class="style458"/>""<rect y="499" height="1" width="500" class="style458"/>""<rect y="500" height="1" width="500" class="style373"/>"</svg>